<?xml version="1.0" standalone="no"?>
<!DOCTYPE svg PUBLIC "-//W3C//DTD SVG 1.1//EN" "http://www.w3.org/Graphics/SVG/1.1/DTD/svg11.dtd" >
<svg xmlns="http://www.w3.org/2000/svg" xmlns:xlink="http://www.w3.org/1999/xlink" version="1.1">
<metadata>
Created by FontForge 20150824 at Tue Sep 27 03:11:55 2016
 By Everything Fonts
</metadata>
<defs>
<font id="KOMIKAX" horiz-adv-x="694" >
  <font-face 
    font-family="KOMIKAX"
    font-weight="400"
    font-stretch="normal"
    units-per-em="1000"
    panose-1="2 0 5 6 0 0 0 2 0 4"
    ascent="800"
    descent="-200"
    x-height="859"
    cap-height="873"
    bbox="-152.667 -252.429 1496 1379.53"
    underline-thickness="50"
    underline-position="-175"
    unicode-range="U+0006-2122"
  />
<missing-glyph horiz-adv-x="500" 
 />
    <glyph glyph-name=".notdef" horiz-adv-x="500" 
 />
    <glyph glyph-name=".null" horiz-adv-x="0" 
 />
    <glyph glyph-name="nonmarkingreturn" horiz-adv-x="500" 
 />
    <glyph glyph-name="dotaccent" horiz-adv-x="331" 
d="M49 1089q-1 -32 9 -57t28 -43t41.5 -27t50.5 -7q26 0 47 10t36.5 24.5t25 31t12.5 28.5q6 18 7 40q1 33 -21 66t-70 50q-36 11 -65.5 5t-51.5 -23t-34.5 -43t-14.5 -55z" />
    <glyph glyph-name="ring" 
d="M526 1244q-20 9 -50.5 16t-63.5 11q-25 2 -53 -3t-49 -15q-47 -25 -78 -60t-45 -73t-11 -74.5t24 -64.5q8 -13 24.5 -22.5t32.5 -14.5q21 -8 47 -11t50 -5q36 -3 63.5 1.5t52.5 17.5q36 22 60 52.5t37.5 64t15.5 67t-5 61.5q-7 16 -18 28.5t-34 23.5zM433 1208
q12 -2 17.5 -15.5t6 -32.5t-4 -40.5t-12.5 -39.5q-9 -24 -21 -43.5t-26.5 -33t-29 -20t-27.5 -2.5q-14 2 -21 14.5t-8.5 30t3 38t12.5 38.5q9 19 23 38.5t29.5 35t31 25t27.5 7.5z" />
    <glyph glyph-name="caron" horiz-adv-x="670" 
d="M163 1374q-17 1 -22 -5.5t0 -23.5q8 -28 18 -63.5t20.5 -74t20.5 -78t17 -74.5q3 -22 8.5 -32t16.5 -22q12 -11 26 -19t28 -19q13 -8 24 -7.5t25 15.5q28 27 56.5 59.5t54.5 65.5t48.5 63t38.5 53q17 25 0 53q-11 17 -21 29t-21 23q-12 13 -22 13q-9 0 -18 -13
q-29 -38 -64 -81.5t-74 -88.5q-14 52 -25.5 99t-23.5 80q-15 31 -45 39q-19 5 -34 7t-32 2z" />
    <glyph glyph-name="dotlessi" unicode="&#xd;" horiz-adv-x="312" 
d="M259 794q-27 18 -63 34t-67 24q-31 9 -46.5 2.5t-24.5 -35.5q-11 -47 -24 -109.5t-25.5 -132.5t-24.5 -143t-21.5 -139t-16 -121.5t-8.5 -90.5q-3 -26 4.5 -40.5t30.5 -25.5q21 -11 44.5 -18t49.5 -14q26 -6 34.5 -1t13.5 22q9 45 21.5 102.5t27.5 122t31 132t32.5 132
t33 122.5t30.5 103q7 27 1.5 41t-33.5 33z" />
    <glyph glyph-name="fraction" horiz-adv-x="844" 
d="M770 780q-7 11 -9 13.5t-4 2.5t-5 1.5t-11 11.5q-33 42 -81 3q-43 -34 -104.5 -89t-130.5 -120.5t-140.5 -135.5t-135 -134t-114 -115t-76.5 -79q-9 -10 -15 -19t-8 -18q-1 -8 0.5 -16t10.5 -16q5 -6 5.5 -4.5t0.5 3.5t2 2t11 -7q17 -14 29.5 -13.5t28.5 17.5
q35 33 91 83.5t123 110t139.5 124t141.5 124t128.5 110.5t100.5 84q23 19 29.5 34t-7.5 42z" />
    <glyph glyph-name="fi" horiz-adv-x="906" 
d="M-22 18q19 -8 44.5 -17t48.5 -12.5t39 0t17 21.5q10 54 23 123.5t30 146.5q56 12 114 23t115 20q27 3 34.5 11.5t-1.5 31.5q-5 20 -12 39.5t-20 39.5q-24 34 -72 31q-31 -1 -60.5 -3.5t-58.5 -5.5q15 54 24.5 103t22.5 90q27 3 69.5 9.5t92 14t101 15t94.5 14.5
q-20 -78 -40 -168t-37 -175t-29.5 -157.5t-16.5 -116.5q-5 -26 2 -40.5t30 -25.5q20 -11 43.5 -18t49.5 -14q26 -6 35 -1t14 22q11 45 26.5 103t33.5 123t37.5 133t39 132.5t38.5 123t36 103.5q13 31 -3.5 63t-52 57.5t-83.5 39.5t-98 9q-40 -5 -95.5 -11.5t-117.5 -14
t-126.5 -16.5t-123 -18t-106.5 -17.5t-76 -16.5q4 -49 1.5 -114t-9 -136.5t-15.5 -144.5t-17.5 -137.5t-15 -116t-7.5 -79.5q1 -13 2 -23t5 -17.5t11 -13.5t20 -12z" />
    <glyph glyph-name="fl" horiz-adv-x="1057" 
d="M928 42q16 3 24 6t11 7t2 10.5t-4 17.5q-6 37 -27 72q-12 19 -26.5 24.5t-41.5 3.5q-47 -3 -87.5 -7t-86.5 -12q19 69 41.5 145t46.5 151.5t48 147.5t46 132q16 41 -2 70t-52.5 47.5t-77.5 26.5t-77 7q-40 -2 -97.5 -6t-122.5 -10t-133.5 -14t-129.5 -16t-111 -16.5
t-78 -16.5q5 -49 3.5 -114t-7.5 -136.5t-14 -144.5t-15.5 -137.5t-13.5 -116t-6 -79.5q1 -13 2 -23t5 -17.5t11 -13.5t20 -12q19 -8 44.5 -17t48.5 -12.5t39 0t16 21.5q11 54 23 123.5t28 146.5q56 12 114 23t114 20q27 3 34.5 11.5t-1.5 31.5q-5 20 -12.5 39.5t-21.5 39.5
q-22 34 -71 31q-31 -1 -60.5 -3.5t-58.5 -5.5q14 54 23 103t22 90q24 3 63.5 7.5t86.5 9.5t97.5 10t95.5 10q-20 -75 -39.5 -155.5t-36 -156.5t-28.5 -142.5t-17 -113.5q-5 -25 3 -42.5t25 -31.5q22 -18 35 -29.5t30 -22.5q7 -5 14.5 -9t18 -6.5t26 -1.5t37.5 7
q60 12 127 24.5t131 24.5z" />
    <glyph glyph-name="Lslash" horiz-adv-x="660" 
d="M-92 382q-61 -32 -3 -59q22 -12 49 -22t59 -20q41 -11 67 -5q-8 -43 -12.5 -81t-7.5 -67q-4 -25 5 -42.5t27 -31.5q23 -18 36.5 -29.5t30.5 -22.5q7 -5 14.5 -9t18 -6.5t26 -1.5t37.5 7q60 12 126.5 24.5t130.5 24.5q15 3 23 6t11 7t1.5 10.5t-5.5 17.5q-4 17 -11 35.5
t-19 36.5q-11 19 -26 24.5t-42 3.5q-47 -3 -87.5 -7t-85.5 -12q13 54 27.5 113t31.5 120q59 26 119.5 52.5t120.5 50.5q33 14 41.5 24.5t-14.5 26.5q-18 11 -36.5 26t-48.5 28q-23 13 -51 12t-60 -12q-4 -2 -8 -3t-6 -2q11 38 22 73t22 67q11 26 4.5 40t-33.5 33
q-26 18 -62 32.5t-68 22.5q-29 9 -45 3.5t-27 -34.5q-21 -72 -42.5 -164.5t-40.5 -187.5q-63 -29 -116.5 -55.5t-92.5 -46.5z" />
    <glyph glyph-name="lslash" horiz-adv-x="660" 
d="M-92 382q-61 -32 -3 -59q22 -12 49 -22t59 -20q41 -11 67 -5q-8 -43 -12.5 -81t-7.5 -67q-4 -25 5 -42.5t27 -31.5q23 -18 36.5 -29.5t30.5 -22.5q7 -5 14.5 -9t18 -6.5t26 -1.5t37.5 7q60 12 126.5 24.5t130.5 24.5q15 3 23 6t11 7t1.5 10.5t-5.5 17.5q-4 17 -11 35.5
t-19 36.5q-11 19 -26 24.5t-42 3.5q-47 -3 -87.5 -7t-85.5 -12q13 54 27.5 113t31.5 120q59 26 119.5 52.5t120.5 50.5q33 14 41.5 24.5t-14.5 26.5q-18 11 -36.5 26t-48.5 28q-23 13 -51 12t-60 -12q-4 -2 -8 -3t-6 -2q11 38 22 73t22 67q11 26 4.5 40t-33.5 33
q-26 18 -62 32.5t-68 22.5q-29 9 -45 3.5t-27 -34.5q-21 -72 -42.5 -164.5t-40.5 -187.5q-63 -29 -116.5 -55.5t-92.5 -46.5z" />
    <glyph glyph-name="Zcaron" horiz-adv-x="562" 
d="M304 661q-58 -72 -116 -150.5t-109.5 -152.5t-92 -137t-63.5 -104q-7 -12 -6.5 -22.5t5 -19.5t12 -17t14.5 -15q23 -18 38 -30t32 -24q9 -5 17.5 -9.5t19.5 -6.5t25 -1.5t34 5.5q60 14 131 26.5t135 24.5q26 3 34 11t0 28q-4 17 -12.5 35t-20.5 37q-20 33 -75 27
q-41 -5 -77.5 -10.5t-73.5 -14.5q95 123 200.5 254t210.5 258q20 23 22.5 43.5t-5.5 43.5q-6 18 -11.5 38.5t-18.5 47.5q-11 23 -25 31.5t-44 7.5q-55 -3 -117 -7.5t-123 -11t-117.5 -15.5t-101.5 -19q-20 -7 -25.5 -15t3.5 -31q6 -12 13.5 -25.5t15.5 -27.5t15.5 -26
t13.5 -21q20 -23 42 -29t48 -1q35 8 71.5 12.5t81.5 12.5zM190 1329q-17 1 -22.5 -5.5t-0.5 -23.5q7 -27 16.5 -62.5t19.5 -73.5t19 -77t15 -74q3 -21 8.5 -30.5t16.5 -22.5q11 -10 25 -18.5t27 -18.5q13 -8 24 -7.5t25 15.5q28 26 57 58t56 64.5t49.5 62.5t38.5 53
q18 24 1 52q-10 17 -19.5 28.5t-20.5 22.5q-12 13 -22 13q-9 0 -18 -13q-30 -38 -65.5 -80.5t-74.5 -86.5q-13 51 -23.5 97.5t-21.5 78.5q-15 31 -44 39q-19 5 -34.5 7t-31.5 2z" />
    <glyph glyph-name="zcaron" horiz-adv-x="562" 
d="M304 661q-58 -72 -116 -150.5t-109.5 -152.5t-92 -137t-63.5 -104q-7 -12 -6.5 -22.5t5 -19.5t12 -17t14.5 -15q23 -18 38 -30t32 -24q9 -5 17.5 -9.5t19.5 -6.5t25 -1.5t34 5.5q60 14 131 26.5t135 24.5q26 3 34 11t0 28q-4 17 -12.5 35t-20.5 37q-20 33 -75 27
q-41 -5 -77.5 -10.5t-73.5 -14.5q95 123 200.5 254t210.5 258q20 23 22.5 43.5t-5.5 43.5q-6 18 -11.5 38.5t-18.5 47.5q-11 23 -25 31.5t-44 7.5q-55 -3 -117 -7.5t-123 -11t-117.5 -15.5t-101.5 -19q-20 -7 -25.5 -15t3.5 -31q6 -12 13.5 -25.5t15.5 -27.5t15.5 -26
t13.5 -21q20 -23 42 -29t48 -1q35 8 71.5 12.5t81.5 12.5zM190 1329q-17 1 -22.5 -5.5t-0.5 -23.5q7 -27 16.5 -62.5t19.5 -73.5t19 -77t15 -74q3 -21 8.5 -30.5t16.5 -22.5q11 -10 25 -18.5t27 -18.5q13 -8 24 -7.5t25 15.5q28 26 57 58t56 64.5t49.5 62.5t38.5 53
q18 24 1 52q-10 17 -19.5 28.5t-20.5 22.5q-12 13 -22 13q-9 0 -18 -13q-30 -38 -65.5 -80.5t-74.5 -86.5q-13 51 -23.5 97.5t-21.5 78.5q-15 31 -44 39q-19 5 -34.5 7t-31.5 2z" />
    <glyph glyph-name="space" unicode=" " horiz-adv-x="361" 
 />
    <glyph glyph-name="space" unicode="&#xa0;" horiz-adv-x="361" 
 />
    <glyph glyph-name="exclam" unicode="!" horiz-adv-x="400" 
d="M331 864q-26 18 -61.5 33t-65.5 23q-32 11 -47.5 4t-23.5 -38q-17 -64 -36 -145t-37 -164t-32.5 -161.5t-22.5 -136.5q-5 -29 2.5 -43.5t30.5 -26.5q22 -11 45.5 -18.5t51.5 -12.5q23 -6 33.5 -1t15.5 26q15 60 34.5 129.5t43 144.5t49 152t51.5 152q9 27 2.5 45.5
t-33.5 37.5zM-44 64q-2 -48 31 -74t80 -25q22 0 39.5 7.5t30 18t21 23t11.5 21.5q4 12 3.5 28t-8.5 32t-25 29.5t-44 20.5q-32 9 -57.5 5.5t-43.5 -16t-27.5 -31t-10.5 -39.5z" />
    <glyph glyph-name="quotedbl" unicode="&#x22;" horiz-adv-x="561" 
d="M194 662q11 19 24.5 45.5t24.5 56.5q10 22 18.5 46.5t14 47.5t8 42t0.5 30q-3 22 -24 41q-18 17 -38 29.5t-43 23.5q-25 14 -41.5 11.5t-21.5 -31.5q-8 -38 -19.5 -85t-25 -95t-26 -91t-21.5 -72q-9 -38 35 -44q20 -3 40.5 -1.5t35.5 5.5q18 2 33 13t26 28zM435 625
q14 16 32 41t35 54t32.5 58.5t25.5 55.5q4 17 6.5 27.5t2.5 15.5q1 15 -16 42q-14 15 -31 29.5t-40 28.5q-47 34 -67 -14q-14 -34 -33.5 -78.5t-40.5 -89.5t-41.5 -86t-35.5 -67q-20 -38 30 -47l38 -4t39 1q37 2 64 33z" />
    <glyph glyph-name="numbersign" unicode="#" horiz-adv-x="717" 
d="M656 494q25 2 30.5 9t-6.5 27q-9 14 -17 25t-19.5 18t-28 11t-41.5 4q9 21 15 39t13 35q17 45 1 78t-54 60q-43 31 -59 -13q-17 -45 -34.5 -97.5t-33.5 -108.5q-30 -3 -62 -5.5t-66 -5.5q12 36 20 66q14 46 -5.5 78t-59.5 58q-41 28 -56 -14q-14 -45 -27.5 -97.5
t-27.5 -110.5q-44 -8 -81 -13t-66 -13q-26 -6 -29 -14t13 -28q13 -17 25 -29.5t26.5 -20t33 -9.5t44.5 3h5q-8 -33 -12.5 -63t-11.5 -59q-32 -8 -60 -12t-55 -12q-23 -6 -25 -13.5t12 -26.5q24 -28 47.5 -42t60.5 -9v-14q-3 -23 0.5 -40t12.5 -30t22.5 -22t30.5 -16
q20 -8 28.5 -6.5t13.5 19.5q8 30 15 63.5t15 72.5q32 7 63 10.5t63 11.5q-3 -13 -4 -23t-6 -20q-1 -13 -2 -23.5t1 -18.5q3 -25 18 -41t41 -27q18 -8 28 -6.5t17 19.5q8 33 19.5 72t25.5 87q28 3 52.5 5.5t50.5 4.5q23 3 27.5 11t-7.5 25q-8 13 -16 22t-18 15t-24 9t-35 4
q9 32 19.5 65t21.5 67q32 3 61 4.5t57 4.5zM388 468q-10 -34 -18 -64t-15 -61q-30 -4 -61.5 -7.5t-63.5 -8.5q8 32 15 61t16 63q29 6 61 9t66 8z" />
    <glyph glyph-name="dollar" unicode="$" horiz-adv-x="553" 
d="M222 744q-20 -1 -37 -6t-31 -13q-60 -35 -100 -90.5t-59 -109.5q-14 -60 8.5 -107t65.5 -80q31 -24 68.5 -45t68.5 -38t47.5 -30.5t4.5 -23.5q-9 -8 -26.5 -9t-42 4t-53.5 16.5t-60 28.5q-12 8 -27 13t-30.5 6t-31 -2t-27.5 -10q-14 -10 -13 -25q0 -13 32 -45
q24 -25 50 -41t53 -29q-4 -12 -5 -23.5t-2 -25.5q-2 -36 11 -70t48 -51q20 -10 29.5 -7.5t13.5 19.5q5 26 13 60.5t17 66.5q1 -1 12 -1h13q41 0 71 10.5t51.5 26.5t35.5 35t23 35q15 40 -2 69.5t-51 55t-76.5 49.5t-77.5 53q-21 19 -25.5 42t1.5 45.5t19.5 43t29.5 35
t31.5 22.5t25.5 4q7 -4 7 -16q4 -21 -0.5 -49.5t-8.5 -49.5q-2 -21 4 -37.5t18.5 -29.5t30 -23.5t38.5 -18.5q30 -11 47 15q7 15 14 35.5t12 43.5t8.5 46t4.5 41q1 23 -5.5 50t-38.5 56q-25 21 -46 33q7 23 12.5 47t10.5 44q11 47 -6.5 81t-51.5 57q-43 30 -62 -13
q-12 -31 -26 -78t-28 -92z" />
    <glyph glyph-name="percent" unicode="%" horiz-adv-x="889" 
d="M723 672q32 36 27.5 71.5t-32.5 69.5q-29 40 -59 5q-28 -30 -61.5 -52.5t-66.5 -37t-64 -20.5t-55 -4q-58 5 -89 46q-26 35 -42 53q-18 14 -43 25.5t-57 18.5q-20 4 -45.5 -1.5t-43.5 -18.5q-39 -31 -65.5 -77.5t-38 -97.5t-7 -100.5t26.5 -86.5q11 -17 26 -32.5
t30 -25.5q19 -11 42 -17.5t44 -11.5q61 -7 107 25q24 18 40.5 45t27 58t15 64.5t4.5 65.5q42 -14 86.5 -9.5t85.5 26.5q-58 -69 -119 -146.5t-116.5 -150t-100.5 -135t-71 -101.5q-24 -40 -14.5 -65t38.5 -47q17 -10 25.5 -11.5t21.5 11.5q23 34 62.5 86t88 112.5t103 126.5
t107 128t100 117t82.5 94zM764 291q-2 20 -12 39t-29 35q-14 11 -38.5 21.5t-49.5 16.5q-20 3 -45 -1.5t-43 -15.5q-34 -22 -59 -54t-40.5 -68t-22 -73.5t-2 -70.5t19.5 -59.5t41 -40.5q17 -10 37.5 -15.5t42.5 -8.5q54 -9 100 20q24 16 42 39t30.5 49.5t19.5 55t9 57.5
q2 20 1.5 38.5t-2.5 35.5zM202 750q11 -4 14.5 -21t3.5 -40q1 -23 -2 -51t-8 -57q-14 -68 -36 -99t-43 -23q-21 7 -24 52t11 110q6 23 16.5 47.5t23 44t24.5 30.5t20 7zM645 319q7 -3 10 -18t1.5 -36.5t-7 -47t-14.5 -47.5q-19 -57 -42.5 -85t-41.5 -21q-21 7 -19 45
q1 21 6.5 45t16.5 52q7 21 18.5 42.5t25 38.5t26 26.5t20.5 5.5z" />
    <glyph glyph-name="ampersand" unicode="&#x26;" horiz-adv-x="778" 
d="M462 56q17 -12 26 -21q15 -11 26 -17.5t20.5 -10.5t19 -5t20.5 0q23 4 37 10.5t31 17.5q18 11 19 20.5t-20 26.5q-16 14 -31 29t-34 32q8 8 14.5 16t15.5 16q13 17 23 34.5t15 35.5t3.5 36t-11.5 36q-9 15 -25 15t-41 -18q-26 -20 -48 -36.5t-46 -33.5q-26 29 -51.5 58
t-48.5 60q52 29 105 61.5t87 70.5q67 67 63.5 147.5t-81.5 161.5q-33 35 -63 53.5t-59.5 26t-60 5.5t-64.5 -9q-36 -8 -71 -22.5t-65.5 -35t-54.5 -46.5t-39 -56q-16 -32 -22 -62t-2.5 -60.5t17 -63t36.5 -69.5q6 -10 15 -23t20 -30q-46 -26 -84.5 -53.5t-65.5 -59.5
q-26 -32 -38 -64t-6.5 -64t29.5 -64t69 -64q42 -27 79.5 -39t72 -14.5t65.5 3t58 13.5q79 18 146 56zM284 488l-4 8q-41 72 -9 128q9 16 25.5 32.5t37.5 30.5t44.5 24.5t46.5 15.5q19 -21 23 -44.5t-2 -46t-19 -42t-29 -31.5q-21 -20 -50.5 -39t-63.5 -36zM346 164
q-74 -36 -128.5 -48t-73.5 6q-9 7 -9 21q-1 25 23 58.5t83 75.5q28 -32 53 -59.5t52 -53.5z" />
    <glyph glyph-name="quotesingle" unicode="'" horiz-adv-x="318" 
d="M196 625q14 16 31 41t34 54t31.5 58.5t23.5 55.5q4 17 6.5 27.5t2.5 15.5q0 16 -18 42q-14 15 -31 29.5t-40 28.5q-48 34 -67 -14q-14 -35 -33 -79t-39.5 -88.5t-39.5 -85.5t-32 -68q-18 -38 30 -47q20 -2 38.5 -4t37.5 1q38 2 65 33z" />
    <glyph glyph-name="parenleft" unicode="(" horiz-adv-x="364" 
d="M211 931q-86 -102 -137 -220.5t-66.5 -237.5t4.5 -231.5t77 -203.5q31 -45 68.5 -58.5t74.5 -11.5q22 3 26 7t-6 21q-44 74 -58 165t-3 186.5t44 190.5t83 176q62 100 -31 212q-41 50 -76 5z" />
    <glyph glyph-name="parenright" unicode=")" horiz-adv-x="406" 
d="M290 747q-17 65 -65 113t-133 63q-21 4 -32 2t-15 -9t-2 -18.5t7 -26.5q25 -77 37 -160t11.5 -166t-12 -163t-34 -151t-54.5 -131t-72 -102q-21 -29 22 -33q88 -7 140 35q63 54 111 139.5t76 186.5t33 210t-18 211z" />
    <glyph glyph-name="asterisk" unicode="*" horiz-adv-x="712" 
d="M621 545q42 8 17 42q-22 32 -54 46.5t-91 6.5q-20 -3 -40 -5.5t-40 -6.5q5 22 12.5 45t16.5 49q15 45 -3.5 79t-59.5 61q-41 30 -56 -14q-17 -51 -30 -96.5t-23 -89.5q-19 15 -35 31t-38 34q-42 38 -82.5 42.5t-79.5 -13.5q-40 -19 -5 -52q44 -40 81.5 -72.5t73.5 -61.5
q-53 -14 -98.5 -29.5t-83.5 -29.5q-25 -8 -25.5 -17.5t16.5 -26.5q15 -16 30.5 -28.5t33 -19.5t37.5 -7t43 8t45 14t45 13q-4 -13 -5 -26t-4 -29q-4 -25 -0.5 -43.5t12.5 -32t23 -22.5t31 -16q23 -11 31 -9t13 22q10 39 17.5 73t15.5 71q18 -13 36.5 -27.5t41.5 -28.5
q50 -35 83 -35q34 0 65 16q19 13 20.5 20t-18.5 23q-38 30 -71.5 55t-65.5 52q43 10 83.5 19t84.5 16z" />
    <glyph glyph-name="plus" unicode="+" horiz-adv-x="732" 
d="M581 329q22 0 29 7t-1 27q-7 17 -13 32.5t-19 35.5q-20 33 -63 35q-51 2 -128 0q7 23 15 44.5t14 41.5q10 21 7 33.5t-22 29.5q-16 17 -42 32.5t-52 25.5q-20 8 -34.5 -1.5t-21.5 -26.5q-14 -37 -27 -85.5t-27 -104.5q-64 -3 -122 -9.5t-100 -14.5q-18 -3 -31.5 -12
t-3.5 -28q9 -20 26.5 -44.5t33.5 -40.5q9 -8 16.5 -13t15 -7t15.5 -1.5t20 2.5q23 4 48.5 7.5t51.5 6.5q-5 -30 -7 -55t-4 -44q-3 -35 32 -52q22 -12 39 -19.5t36 -15.5q22 -9 29.5 -6t12.5 23q8 38 18 86t24 100q60 6 118.5 7.5t116.5 3.5z" />
    <glyph glyph-name="comma" unicode="," horiz-adv-x="313" 
d="M56 -115q10 10 25 26t30 34t29 36.5t23 35.5q11 17 10.5 29.5t-17.5 26.5q-19 17 -41 29.5t-45 23.5q-23 10 -37 8t-24 -20q-23 -55 -54.5 -105.5t-57.5 -97.5q-16 -28 20 -38q19 -7 40.5 -10.5t43.5 -2.5q16 2 28.5 6.5t26.5 18.5z" />
    <glyph glyph-name="hyphen" unicode="-" horiz-adv-x="592" 
d="M-105 530q-49 -9 -13 -63q14 -23 29.5 -44.5t37.5 -44.5q21 -23 39 -30t39 -1q76 20 165.5 29.5t176.5 15.5q25 1 32 9t-3 33q-10 20 -19.5 42t-24.5 48q-16 22 -33.5 33t-40.5 11q-50 0 -103.5 -3.5t-105.5 -8.5t-97.5 -12t-78.5 -14z" />
    <glyph glyph-name="period" unicode="." horiz-adv-x="331" 
d="M-30 73q-1 -23 7 -41.5t23 -31t35.5 -19.5t43.5 -6q22 0 40 7.5t31 18t21 22.5t11 21q5 15 5 29q1 23 -17.5 46.5t-59.5 36.5q-31 8 -56 4t-43 -16.5t-29 -31t-12 -39.5z" />
    <glyph glyph-name="slash" unicode="/" horiz-adv-x="531" 
d="M520 801q-22 20 -45 37.5t-48 32.5q-48 36 -77 -14q-28 -41 -65 -106t-77.5 -141.5t-81.5 -157.5t-76.5 -154.5t-63 -132t-41.5 -89.5q-10 -23 -7 -40q2 -8 7 -15.5t16 -13.5q14 -9 29.5 -18t37.5 -20q23 -11 34.5 -7.5t19.5 20.5q21 37 54.5 96t74.5 128.5t86 144
t87.5 145t80 130t63.5 99.5q15 23 15 38q0 16 -23 38z" />
    <glyph glyph-name="zero" unicode="0" horiz-adv-x="685" 
d="M532 786q-33 26 -83.5 43.5t-107.5 26.5q-42 7 -90.5 -5.5t-84.5 -40.5q-53 -43 -91.5 -98.5t-64 -118t-38 -128.5t-13.5 -129.5t10 -121.5t32 -104q16 -28 42.5 -50t49.5 -34q36 -17 75 -26t75 -12q57 -5 100 4t84 43q58 50 98.5 124.5t63.5 158.5t29 169.5t-5 157.5
q-8 41 -25 75t-56 66zM376 684q20 -6 28 -41t6 -86q-1 -50 -8.5 -102.5t-19.5 -100.5q-13 -57 -33 -104t-42.5 -79.5t-46 -47.5t-44.5 -9q-22 7 -34.5 36t-16 70.5t2 91.5t18.5 100q14 52 37.5 103.5t50.5 91t54 61.5t48 16z" />
    <glyph glyph-name="one" unicode="1" horiz-adv-x="387" 
d="M332 724q10 26 3 40t-34 32q-29 20 -57.5 33.5t-58.5 21.5q-15 4 -26 5t-19.5 -2t-16 -10t-17.5 -19q-20 -27 -43 -63.5t-40 -71.5q-7 -15 -8 -24.5t4.5 -17.5t18.5 -15.5t33 -17.5q-15 -67 -29.5 -144.5t-26 -151t-19 -136t-9.5 -99.5q-2 -26 4 -41t25 -26
q24 -12 47.5 -17.5t47.5 -11.5q26 -7 34.5 -2t13.5 22q8 44 19.5 101t26 121t31 131.5t33 132.5t33 124t30.5 106z" />
    <glyph glyph-name="two" unicode="2" horiz-adv-x="619" 
d="M221 144q46 33 93 73t89.5 83t78.5 86t60 82q22 34 37.5 66.5t21.5 65t0 65.5t-27 69q-16 24 -43.5 49.5t-64 44t-80 27t-92.5 -0.5q-83 -15 -153 -69.5t-118 -134.5q-13 -25 -18 -42t-2.5 -28.5t11 -18.5t21.5 -11q22 -8 47 -11.5t49.5 -2.5t47.5 8t42 21q25 24 51 46.5
t49 37.5t42 20.5t31 -3.5q13 -9 -0.5 -40t-46.5 -76.5t-81 -100.5t-103 -110.5t-113 -108t-111 -91.5q-12 -9 -15.5 -18t-1.5 -18.5t7.5 -18.5t12.5 -16q8 -9 18.5 -19.5t21.5 -20.5t22 -19t20 -15q7 -6 14 -10t16.5 -6t23.5 -1.5t36 4.5q29 6 73 13t92 13t95.5 11t83.5 7
q23 3 29.5 9t-1.5 24q-5 15 -15.5 34t-22.5 34q-13 18 -28 25.5t-38 6.5q-32 -1 -76 -4t-85 -10z" />
    <glyph glyph-name="three" unicode="3" horiz-adv-x="649" 
d="M382 391q49 20 88.5 42t68.5 48q24 21 40.5 52.5t19.5 69.5t-10.5 80t-48.5 86q-35 41 -70 62t-69 28.5t-65 5t-58 -7.5q-36 -8 -70.5 -24t-64.5 -36t-55 -43t-41 -44q-26 -33 10 -65q18 -14 44 -24t54 -13t55 1.5t47 19.5q15 9 30.5 17.5t31.5 16t30 12t26 4.5
q18 0 25 -11q12 -15 -1 -38.5t-53 -52t-107.5 -61t-166.5 -63.5q-40 -14 -12 -56q31 -48 75.5 -72t91.5 -18q37 5 59.5 3t42.5 -18q9 -8 14.5 -22t4 -32t-10.5 -38t-28 -40q-20 -20 -43 -31.5t-51.5 -13t-63 7t-77.5 29.5q-30 14 -68.5 17.5t-69.5 -15.5q-9 -5 -14 -11.5
t-3.5 -15.5t12 -21.5t32.5 -29.5q71 -58 140 -79t132 -21q83 0 150 23t121 86q23 28 35 61t9.5 67t-21 68t-56.5 66q-20 17 -42.5 26.5t-48.5 17.5z" />
    <glyph glyph-name="four" unicode="4" horiz-adv-x="711" 
d="M535 387q27 88 52 168t47 143q11 26 5 40.5t-32 32.5q-15 9 -41 22.5t-53.5 27.5t-53.5 25.5t-41 17.5q-29 8 -46 5t-41 -22q-31 -28 -66 -64t-72 -76.5t-73 -83.5t-69 -85t-60.5 -81t-46.5 -72q-14 -23 -12.5 -41.5t15.5 -38.5q20 -23 43 -46.5t47 -41.5
q21 -19 39.5 -20t40.5 3q41 6 84 11t88 10q-19 -93 -27 -143q-5 -26 2 -39.5t28 -27.5q22 -11 45.5 -19.5t43.5 -13.5q25 -5 34.5 -0.5t14.5 23.5q11 48 27 107.5t36 129.5q23 1 46.5 2t47.5 2q25 3 32.5 10.5t2.5 27.5q-8 19 -12 34.5t-15 35.5q-16 35 -60 37zM132 363
q28 33 60 70.5t66.5 75t71.5 74t74 69.5q-21 -66 -38.5 -135.5t-37.5 -137.5q-51 -4 -102 -7.5t-94 -8.5z" />
    <glyph glyph-name="five" unicode="5" horiz-adv-x="589" 
d="M302 636q70 8 135 16t124 15q30 4 38 12t0 34q-5 23 -9 48t-16 49q-18 45 -77 42q-75 -3 -151.5 -8t-159.5 -18q-57 -11 -76 -57q-39 -102 -65.5 -184t-40.5 -146q-7 -29 0 -45.5t22 -27.5q24 -16 38 -24.5t33 -21.5q7 -6 13 -9.5t13 -4t17 1t26 6.5q14 4 33 7t38 3
t34 -2t22 -6q5 -7 10.5 -24t4.5 -40q0 -22 -8.5 -46t-22.5 -44q-11 -15 -26 -27t-36.5 -15.5t-50 4.5t-66.5 32q-14 9 -32.5 14t-38 5.5t-39 -3.5t-34.5 -13q-20 -11 -15 -26q1 -17 42 -54q44 -51 103.5 -70.5t122.5 -18.5q57 1 100 15t74 34.5t51 44t30 43.5
q49 95 30.5 169t-89.5 115q-82 44 -173 44q14 42 32 87.5t40 93.5z" />
    <glyph glyph-name="six" unicode="6" horiz-adv-x="612" 
d="M270 485q47 72 107 138.5t133 126.5q25 23 20 38t-30 30q-12 6 -29 13t-36 13.5t-38.5 12t-35.5 8.5q-17 3 -28.5 3.5t-20.5 -2.5t-18 -9.5t-21 -16.5q-101 -86 -164.5 -176.5t-99 -174.5t-47.5 -156.5t-10 -123.5q1 -38 10.5 -68.5t29 -55.5t50.5 -45t75 -36
q45 -14 81 -19t64.5 -3t50.5 10t41 19q29 18 57.5 48t50.5 69t35 84t10 93q0 25 -6 48t-21 43t-40.5 38t-64.5 33q-25 10 -51 15t-54 3zM160 274q14 21 31.5 37t35.5 25.5t35 12t31 -2.5q30 -13 27.5 -52t-26.5 -88q-28 -57 -62.5 -82t-66.5 -10q-26 11 -26 53t21 107z" />
    <glyph glyph-name="seven" unicode="7" horiz-adv-x="643" 
d="M379 672q-50 -69 -97 -141.5t-90 -145.5t-80 -144.5t-65 -137.5q-8 -24 -6.5 -38t19.5 -31q19 -17 42 -31t46 -25q23 -9 34 -7t19 19q39 75 88.5 158.5t104 167.5t111.5 164.5t112 151.5q21 26 20.5 48.5t-17.5 46.5q-14 19 -31 43.5t-40 50.5q-19 26 -39.5 33.5
t-51.5 7.5q-53 -2 -115 -6t-123 -10t-117 -14t-98 -20q-19 -5 -24 -14t11 -31q6 -11 15 -24t19 -25.5t19.5 -24t16.5 -20.5q23 -21 47 -26.5t47 -0.5q19 2 46.5 5.5t57.5 7.5t61 7.5t58 5.5z" />
    <glyph glyph-name="eight" unicode="8" horiz-adv-x="654" 
d="M592 522q26 36 33 72.5t-2.5 71.5t-33.5 67.5t-59 61.5q-59 46 -121.5 62.5t-128.5 -8.5q-78 -30 -137.5 -78t-94.5 -111q-41 -73 -18.5 -137t101.5 -117q-35 -22 -67 -45.5t-57 -50t-40.5 -56.5t-18.5 -63q-5 -63 38.5 -114.5t131.5 -76.5q46 -14 94.5 -17.5t94.5 5
t88 30.5t76 61q30 37 47.5 74t14.5 75t-31.5 77t-89.5 78q60 33 107 66t73 73zM279 307q22 -16 31.5 -33t10 -35t-6.5 -36.5t-19 -37.5q-27 -40 -60.5 -55.5t-58.5 -7.5q-9 3 -17 9.5t-12.5 16.5t-4.5 23q0 14 8 31q17 34 49 66t80 59zM377 703q63 -48 30.5 -101
t-147.5 -124q-20 19 -23.5 44.5t11 55t46.5 61.5t83 64z" />
    <glyph glyph-name="nine" unicode="9" horiz-adv-x="609" 
d="M192 257q-78 -99 -180 -179q-11 -8 -14 -14.5t-1 -12.5t7.5 -11.5t13.5 -11.5q23 -15 41.5 -22.5t42.5 -17.5q26 -11 43.5 -6t38.5 18q81 50 152 125t124.5 158t83.5 166.5t29 151.5q-2 45 -15.5 79.5t-39 63t-62.5 51.5t-85 44q-49 19 -89 23.5t-72 -1t-58 -18
t-46 -26.5q-38 -29 -69 -74.5t-50.5 -98.5t-24 -109.5t9.5 -108.5q12 -58 49.5 -96t114.5 -62q14 -5 28 -6.5t28 -4.5zM284 407q-40 -38 -80 -24q-17 5 -26 20.5t-11 37.5t2.5 49t13.5 55q12 31 28.5 59.5t35.5 49.5t38 31t36 4q19 -8 25.5 -33t1 -62.5t-21.5 -85.5
t-42 -101z" />
    <glyph glyph-name="colon" unicode=":" horiz-adv-x="369" 
d="M20 406q-2 -26 7 -46.5t25.5 -35.5t38.5 -22.5t46 -7.5t42.5 8.5t32.5 21t22.5 26t12.5 24.5q4 13 4 32q1 27 -17.5 53.5t-62.5 39.5q-32 9 -59 4.5t-47 -18t-32 -34.5t-13 -45zM-46 84q-3 -23 2.5 -41t18.5 -31.5t31 -22.5t40 -12q45 -8 77.5 9t41.5 49q3 13 2.5 31
t-8 35.5t-24 32.5t-45.5 23q-30 7 -54 4t-41.5 -13.5t-27.5 -27t-13 -36.5z" />
    <glyph glyph-name="semicolon" unicode=";" horiz-adv-x="390" 
d="M90 -138q9 11 20 29.5t22 40.5t21 45t16 43q14 26 -4.5 51t-63.5 52q-20 13 -38 23.5t-32.5 14t-24 -1.5t-12.5 -22q-14 -67 -33 -128.5t-36 -116.5q-12 -33 31 -45q44 -17 84 -16q17 2 28.5 8t21.5 23zM-63 495q6 -32 19.5 -57.5t33 -43.5t42.5 -27.5t48 -9.5
q26 0 43.5 10.5t28.5 25.5t16.5 31.5t7.5 29.5q2 18 -1.5 40.5t-15.5 44.5t-34 41t-56 30q-33 12 -59 6t-43.5 -23.5t-25.5 -43.5t-4 -54z" />
    <glyph glyph-name="less" unicode="&#x3c;" horiz-adv-x="522" 
d="M403 481q23 7 26 17t-11 27q-24 30 -58 61q-14 12 -25.5 16t-26 2.5t-33.5 -8.5t-47 -16q-26 -10 -54 -22t-55 -24t-52 -24t-44 -22q-17 -7 -26 -20.5t-13 -30t-5 -34t-4 -33.5q-2 -5 -2 -13q0 -7 2 -18q3 -11 18 -19q81 -30 160.5 -61t149.5 -66q22 -11 31.5 -8t18.5 21
q10 22 16 62q2 19 -6.5 30t-27.5 22q-29 16 -68 33.5t-87 37.5q57 24 112 47t111 43z" />
    <glyph glyph-name="equal" unicode="=" horiz-adv-x="654" 
d="M100 421q107 13 214 15.5t221 0.5q23 -2 31 4.5t3 26.5q-5 17 -11 33t-15 36q-16 33 -64 37q-48 5 -107 6.5t-120 1t-120.5 -4t-108.5 -9.5q-20 -3 -31.5 -13t-2.5 -32q8 -18 20 -38t23 -37q14 -20 28.5 -24.5t39.5 -2.5zM96 196q99 16 201.5 25.5t209.5 12.5q23 1 30 7
t0 25q-5 16 -11.5 31t-19.5 32q-18 31 -60 31q-49 1 -105 -0.5t-114 -5.5t-114 -10.5t-105 -14.5q-20 -3 -29 -14t2 -31q10 -15 22 -33.5t25 -33.5q14 -16 28.5 -21t39.5 0z" />
    <glyph glyph-name="greater" unicode="&#x3e;" horiz-adv-x="555" 
d="M465 420q8 25 0 34.5t-27 19.5q-43 21 -90.5 41.5t-94.5 39.5t-91 35t-78 27q-19 6 -32.5 2.5t-17.5 -20.5q-2 -21 -1 -47t6 -43q4 -11 7.5 -17.5t8.5 -11.5t12.5 -8.5t19.5 -6.5q38 -14 76 -27.5t76 -30.5q-69 -19 -132 -40.5t-107 -40.5q-14 -7 -20.5 -16.5t7.5 -25.5
q19 -18 38 -35.5t36 -29.5q19 -13 30.5 -14t28.5 8q60 25 123 45t143 43q11 4 19 7.5t14 8t10 11t9 16.5q8 16 14.5 35t12.5 41z" />
    <glyph glyph-name="question" unicode="?" horiz-adv-x="679" 
d="M127 202q21 -9 46 -19t46 -14t34.5 0.5t12.5 23.5q6 42 23.5 72.5t42 53.5t53.5 41t58.5 35.5t57 36t49.5 42.5t40.5 57t23 72.5t-9 84.5t-53.5 94q-19 25 -47.5 47.5t-65 37.5t-79.5 20t-90 -4q-78 -14 -144.5 -63t-116.5 -125q-16 -24 -22 -40.5t-3.5 -27.5t11 -18.5
t21.5 -12.5q50 -21 102.5 -17.5t87.5 32.5q24 19 47.5 38.5t46 35t45 25.5t45.5 10q16 0 30 -8.5t17 -28.5q4 -29 -23 -69t-102 -85q-29 -19 -65.5 -43t-68.5 -55t-55 -71t-26 -92q-3 -26 3 -40t28 -26zM45 65q-2 -23 5.5 -40t22 -29.5t34 -19.5t41.5 -10q50 -7 81 11t39 46
q2 3 2 12v15q0 12 -3.5 23.5t-12.5 22.5t-24.5 20.5t-39.5 16.5q-32 9 -58.5 7t-45.5 -12.5t-29.5 -27t-11.5 -35.5z" />
    <glyph glyph-name="at" unicode="@" horiz-adv-x="892" 
d="M789 312q26 68 28.5 141.5t-23 140.5t-81 122.5t-144.5 88.5q-61 23 -125.5 30.5t-127 -2t-120.5 -35t-104.5 -67t-79.5 -99.5t-46 -132q-16 -107 5.5 -188.5t65.5 -140.5t102.5 -96t116.5 -53q68 -21 119 -21.5t87 10.5q12 4 13.5 12t-6.5 18q-15 15 -38.5 25.5
t-46.5 15.5q-16 3 -30 3.5t-29 1t-31.5 2.5t-37.5 7q-19 5 -41 17t-43.5 31.5t-39.5 48t-28.5 65.5t-11 83.5t13.5 103.5q22 93 70 158t108 101t126.5 43.5t125.5 -13.5q45 -17 74.5 -43.5t46.5 -59t23.5 -68.5t6 -71.5t-6.5 -68.5t-14 -59q-15 -47 -33 -81.5t-35.5 -55.5
t-33.5 -27.5t-27 1.5q-7 5 -7 22q1 20 8 53t16.5 67.5t18 64t12.5 43.5q3 13 4 23.5t-3 19.5t-14.5 18t-29.5 19q-8 29 -28 50.5t-49 31.5q-40 12 -82 0.5t-78.5 -41.5t-65.5 -76t-44 -102q-16 -53 -11 -91.5t23 -65t44 -43t53 -23.5q42 -11 78 -6.5t64 26.5q28 -42 82 -54
q33 -10 68.5 -9t70 19.5t66 58t56.5 106.5zM482 511q-17 -62 -36 -114.5t-38 -90t-38 -57t-35 -14.5q-9 2 -16.5 10t-10 24t0.5 41t14 61q11 37 30.5 69.5t40.5 55.5t39 35.5t26 10.5q18 -8 23 -31z" />
    <glyph glyph-name="A" unicode="A" horiz-adv-x="718" 
d="M417 189q3 -41 6 -75.5t7 -63.5q4 -28 13.5 -39t33.5 -18q23 -8 45 -9.5t48 -1.5t33.5 7t7.5 25q-1 86 -0.5 186.5t2.5 200.5t6 192t10 163q3 29 -5.5 47t-39.5 29q-23 6 -45.5 13t-49 13t-58.5 10.5t-73 6.5q-47 4 -71 -13t-39 -44q-42 -75 -88.5 -171.5t-91 -195.5
t-83 -192t-62.5 -162q-6 -21 -5.5 -33.5t5.5 -20.5t14 -13.5t21 -13.5q16 -8 31.5 -14.5t28.5 -11.5q23 -8 34.5 -5t19.5 20q14 32 29 65.5t35 72.5q57 15 131.5 25.5t149.5 20.5zM226 329q47 95 93.5 183.5t86.5 161.5q-2 -80 -1 -161.5t3 -163.5q-46 -3 -91.5 -8
t-90.5 -12z" />
    <glyph glyph-name="B" unicode="B" 
d="M480 383q34 17 59 35.5t49 36.5q22 19 41 40.5t32 46.5t18.5 52t0.5 56q-11 53 -34.5 93t-58.5 75q-27 26 -69 39.5t-92.5 16.5t-106.5 -3t-110.5 -19t-104.5 -31t-88 -39q-2 -77 -9.5 -162.5t-17 -170t-17.5 -163t-11 -140.5q-2 -19 0 -31t7 -21.5t13.5 -18t19.5 -20.5
q30 -23 52.5 -37.5t52.5 -27.5q16 -9 28 -13t24.5 -5t26 1t32.5 7q36 9 76 22.5t79.5 30.5t75 38t61.5 44q38 30 55 61.5t12 76.5q-8 38 -32.5 74t-63.5 56zM216 454q14 53 24 100t24 90q43 20 80 30t65.5 11.5t46.5 -5t22 -19.5q4 -16 -12 -42.5t-50.5 -56t-85 -58.5
t-114.5 -50zM178 288q40 13 73 17.5t58 1.5t40 -11t20 -18q4 -17 -10.5 -37.5t-44.5 -41t-73 -39t-95 -31.5q7 40 15.5 78.5t16.5 80.5z" />
    <glyph glyph-name="C" unicode="C" horiz-adv-x="642" 
d="M474 210q-95 27 -154 -33q-82 -84 -122 -71q-21 6 -32 34t-13 68.5t4.5 90t19.5 99.5q14 48 38.5 104t52.5 102.5t55 75.5t47 23q20 -8 24 -34t3 -58q0 -18 3 -39q4 -25 13 -44t24 -33.5t38 -25t55 -16.5q17 -3 27 -2t15.5 5t8.5 11t6 15q6 18 11 40.5t8 47t4.5 49.5
t0.5 48q-1 20 -4 37.5t-10.5 33.5t-20 31.5t-31.5 31.5q-20 13 -45 25.5t-53 23t-58 18t-58 10.5q-38 3 -81 -8t-85 -47q-52 -45 -92.5 -104.5t-69.5 -126.5t-45.5 -137.5t-19.5 -137t7.5 -125t36.5 -101.5q15 -28 42 -49t54 -32q30 -10 68 -21.5t85 -14.5q22 -2 45.5 0
t45 7t41 13t33.5 17q28 20 56 50t46 66q17 31 15.5 52t-39.5 31z" />
    <glyph glyph-name="D" unicode="D" horiz-adv-x="733" 
d="M16 792l-58 -635q-3 -25 -1 -41t8.5 -27t15.5 -19.5t19 -17.5q27 -20 48 -33.5t49 -27.5q56 -27 107 -9q100 28 179 75t136.5 106t93.5 126t50.5 134.5t7.5 131.5t-35 118q-33 68 -81 109t-104.5 61.5t-117 23t-118.5 -7t-109.5 -28t-89.5 -39.5zM150 139
q25 130 52 257.5t62 258.5q65 21 110 4t63 -51t14 -95q-3 -44 -21 -95t-54 -102t-92 -97.5t-134 -79.5z" />
    <glyph glyph-name="E" unicode="E" horiz-adv-x="577" 
d="M41 798l-95 -665q-2 -27 7.5 -46t26.5 -33q21 -18 36.5 -29.5t32.5 -22.5q15 -10 35.5 -15.5t60.5 4.5q60 11 126 24t130 25q27 5 32 12.5t0 27.5q-8 18 -14.5 35.5t-18.5 37.5q-11 18 -26.5 24t-43.5 4q-50 -3 -92.5 -8t-89.5 -13q8 28 15 56.5t15 60.5q58 12 120.5 22
t122.5 21q28 6 34.5 14t-1.5 31q-5 20 -11.5 39.5t-18.5 39.5q-11 20 -27 26t-44 5q-34 -1 -64 -3t-60 -6q16 53 29 101.5t28 93.5q71 10 135 17t124 14q29 4 37 13t4 35q-5 23 -10 42.5t-18 43.5q-16 45 -73 44q-60 -2 -120.5 -9.5t-118 -17.5t-110 -22t-95.5 -23z" />
    <glyph glyph-name="F" unicode="F" horiz-adv-x="570" 
d="M543 692q30 4 37 12.5t3 34.5q-4 43 -31 88q-9 14 -17 22.5t-16.5 13t-19 6t-25.5 1.5q-60 -2 -121.5 -7t-120.5 -12.5t-112.5 -17t-96.5 -21.5q3 -49 -1 -114t-12.5 -136.5t-19.5 -144.5t-21 -137.5t-17.5 -116t-8.5 -79.5q0 -26 5 -40t30 -26q19 -8 44.5 -17
t48.5 -12.5t39 0t17 21.5q12 54 26.5 123.5t33.5 146.5q57 12 115 23t115 20q27 3 34.5 11.5t-0.5 31.5q-5 20 -11.5 39.5t-18.5 39.5q-22 34 -71 31q-31 -1 -60.5 -3.5t-58.5 -5.5q17 54 27.5 103t24.5 90q71 10 135.5 17t124.5 15z" />
    <glyph glyph-name="G" unicode="G" horiz-adv-x="663" 
d="M594 478q4 16 7.5 40t6 50t3 52t-0.5 47q-5 40 -19 72t-48 59q-18 15 -40.5 27.5t-48 22t-52.5 16.5t-53 10q-18 3 -39 3t-42.5 -3t-42.5 -11t-39 -22q-56 -41 -100.5 -99t-77 -124.5t-51.5 -137t-24 -138.5t5 -128.5t36 -105.5q14 -28 38.5 -51.5t50.5 -37.5
q73 -32 150 -42q44 -6 84 0.5t76 26.5q56 33 104 94t85 151q9 26 8.5 44t-17.5 41l-19.5 26t-22.5 27q-18 20 -39 25.5t-55 0.5q-29 -5 -69 -9.5t-77 -12.5q-20 -3 -36 -5.5t-27 -7t-15.5 -12t-0.5 -20.5q19 -57 51.5 -81t92.5 -21q-16 -33 -34 -61.5t-37 -48.5t-38.5 -29
t-37.5 -3q-21 7 -33 37.5t-14 73.5t5.5 93.5t24.5 98.5q19 60 46 115.5t55.5 97.5t56 64.5t47.5 16.5q10 -3 13.5 -16t7.5 -32l2 -20t1 -21q-1 -11 -0.5 -20.5t2.5 -19.5q5 -51 37.5 -82t102.5 -41q25 -2 34.5 4.5t16.5 26.5z" />
    <glyph glyph-name="H" unicode="H" horiz-adv-x="678" 
d="M687 739q8 26 2.5 40t-31.5 33q-28 18 -59 32.5t-60 22.5q-31 9 -47.5 4.5t-25.5 -36.5q-23 -85 -46.5 -189.5t-48.5 -210.5q-38 -3 -78.5 -6t-82.5 -8l37.5 165t33.5 134q3 13 4 23t-2.5 18t-12 16t-23.5 17q-27 18 -63.5 33.5t-68.5 24.5q-29 11 -44 5t-23 -38
q-12 -84 -23.5 -183.5t-23.5 -199.5t-25 -192t-28 -161q-6 -26 4 -40.5t33 -25.5q19 -11 45.5 -18t51.5 -14q26 -6 34.5 -1t12.5 22q8 48 18 108.5t26 129.5q42 7 82.5 12.5t82.5 11.5q-11 -58 -19 -105t-12 -83q-9 -36 14 -53.5t64 -29.5q20 -5 37.5 -9.5t30.5 -5t20.5 4
t7.5 18.5q20 83 45.5 180t53 195t55.5 191t52 168z" />
    <glyph glyph-name="I" unicode="I" horiz-adv-x="312" 
d="M259 794q-27 18 -63 34t-67 24q-31 9 -46.5 2.5t-24.5 -35.5q-11 -47 -24 -109.5t-25.5 -132.5t-24.5 -143t-21.5 -139t-16 -121.5t-8.5 -90.5q-3 -26 4.5 -40.5t30.5 -25.5q21 -11 44.5 -18t49.5 -14q26 -6 34.5 -1t13.5 22q9 45 21.5 102.5t27.5 122t31 132t32.5 132
t33 122.5t30.5 103q7 27 1.5 41t-33.5 33z" />
    <glyph glyph-name="J" unicode="J" horiz-adv-x="627" 
d="M138 -13q75 -17 123.5 -7.5t83.5 30.5q44 28 82 90t70.5 154t60.5 213t53 268q3 13 3.5 22.5t-3 17.5t-11.5 15.5t-23 17.5q-29 18 -65.5 32t-66.5 22q-31 8 -47.5 1.5t-22.5 -36.5q-9 -63 -21.5 -141t-27.5 -158.5t-32 -157t-36 -136t-39 -95.5t-41 -35q-24 3 -30 25.5
t-10 72.5q-3 78 -120 125q-35 16 -50.5 -0.5t-21.5 -51.5q-6 -46 -3 -81.5t19 -68.5q10 -23 24 -44t35 -39t49.5 -32t67.5 -23z" />
    <glyph glyph-name="K" unicode="K" horiz-adv-x="664" 
d="M332 303q44 42 93 90t94.5 96.5t84 95t61.5 84.5q19 31 21.5 52t-5.5 43q-13 27 -27.5 50t-36.5 42q-21 18 -38 18q-15 0 -32 -22q-26 -32 -66.5 -78t-87 -97t-95.5 -103.5t-91 -98.5q17 78 32 143.5t30 116.5q4 13 5 22.5t-3 17.5t-13 15.5t-24 17.5q-27 18 -63.5 34
t-68.5 24q-29 9 -45 2.5t-24 -34.5q-10 -47 -21 -111t-22 -135.5t-21 -146t-18 -142.5t-13 -124.5t-6 -91.5q-2 -37 18 -55t65 -30q22 -6 40.5 -11.5t31.5 -6t20 5t7 20.5q8 45 18 100t23 121q21 -30 45.5 -60.5t47 -57.5t41.5 -48t30 -33q27 -29 54 -33t53 3q17 2 34.5 7
t30.5 12q22 10 25.5 20.5t-13.5 27.5q-16 18 -37 45t-44 59t-46.5 66.5t-43.5 67.5z" />
    <glyph glyph-name="L" unicode="L" horiz-adv-x="532" 
d="M383 41q31 6 34.5 13t-3.5 28q-4 17 -11.5 35.5t-19.5 36.5q-12 19 -26.5 24.5t-42.5 3.5q-47 -3 -87 -7t-86 -12q16 69 34.5 144.5t39 151.5t41 148t40.5 132q9 26 2.5 40t-32.5 33q-27 18 -63 32.5t-67 22.5q-31 9 -46.5 3.5t-25.5 -34.5q-14 -51 -28.5 -112
t-28.5 -127t-26 -132.5t-22 -128.5t-17 -115.5t-10 -92.5q-4 -25 5 -42.5t26 -31.5q23 -18 37 -29.5t31 -22.5q7 -5 14.5 -9t18.5 -6.5t26 -1.5t37 7q60 12 126.5 24.5t129.5 24.5z" />
    <glyph glyph-name="M" unicode="M" horiz-adv-x="924" 
d="M187 489q15 -100 33.5 -194t38.5 -166q5 -17 9.5 -28t10.5 -18.5t14 -12t19 -8.5q30 -10 70 -18q13 -3 21 -2.5t13 3.5t8.5 9.5t8.5 17.5q16 35 42.5 87.5t58 111.5t65 120t63.5 113q-17 -59 -31.5 -122t-26.5 -120.5t-21 -105t-13 -77.5q-5 -25 2.5 -40t30.5 -26
q18 -10 42 -17t47 -12q26 -6 35 2t16 26q8 35 22 88t31.5 116t37 132t39 136t38.5 128t34 108q11 33 3.5 51.5t-36.5 32.5q-44 20 -89.5 35t-86.5 26q-35 10 -57.5 8t-40.5 -17.5t-35 -45t-40 -75.5q-23 -40 -47.5 -85t-47.5 -90t-44.5 -88t-37.5 -79q-16 103 -25 162
t-13.5 91t-6 44.5t-1.5 21.5q-4 19 -7.5 34t-11.5 27.5t-22 23t-38 19.5q-38 14 -75.5 24t-91.5 18q-35 5 -51.5 -3.5t-25.5 -42.5q-9 -47 -18.5 -108.5t-19 -130.5t-17.5 -140t-14.5 -137t-10 -122.5t-3.5 -95.5q-2 -26 7 -40t34 -26q20 -10 43.5 -17.5t46.5 -12.5
q24 -5 33 0.5t13 23.5q4 43 11.5 98t17.5 118t22 131t25 136z" />
    <glyph glyph-name="N" unicode="N" horiz-adv-x="702" 
d="M392 327q-11 51 -22 106.5t-21 108t-18 97.5t-13 74q-6 38 -19 57.5t-44 32.5q-38 18 -73 29t-72 22q-31 8 -49 0.5t-25 -37.5q-11 -52 -22.5 -119t-22.5 -139t-20.5 -144.5t-17 -136t-12 -113.5t-6.5 -77q-2 -26 5.5 -40.5t29.5 -25.5q23 -14 47.5 -20.5t48.5 -12.5
q26 -7 35 -2.5t13 21.5q5 36 13.5 84.5t19 105t22 118.5t22.5 124q13 -52 28 -103.5t30 -99t29.5 -88.5t28.5 -72q18 -43 62 -60q48 -17 94 -26q54 -12 60 26q16 70 38.5 162.5t47 189.5t49.5 191t48 168q8 26 4.5 44.5t-32.5 36.5q-17 11 -30 18t-24.5 12t-23.5 8t-27 7
q-32 8 -48.5 1t-24.5 -36q-29 -107 -58.5 -234t-49.5 -258z" />
    <glyph glyph-name="O" unicode="O" 
d="M541 790q-34 27 -85.5 46t-108.5 28q-44 7 -92.5 -7t-83.5 -41q-52 -45 -91.5 -101.5t-66.5 -119.5t-41 -129.5t-15 -130.5t11 -122t36 -104q15 -28 41 -50t53 -36q33 -17 73 -25.5t78 -12.5q57 -6 101 4.5t84 41.5q59 52 99.5 127t64 159.5t29.5 170t-5 158.5
q-8 44 -25.5 78.5t-55.5 65.5zM380 690q20 -6 29.5 -41.5t9.5 -85.5q0 -49 -8 -105.5t-21 -103.5q-15 -57 -35.5 -105.5t-43.5 -81.5t-46 -49t-44 -9q-23 7 -35 38t-14 74.5t4 94t20 97.5q14 48 36.5 99.5t48.5 93.5t52 66.5t47 17.5z" />
    <glyph glyph-name="P" unicode="P" horiz-adv-x="708" 
d="M185 215q60 16 121.5 38.5t117.5 50.5t103.5 60t81.5 66q21 21 38.5 43t29 46t15 51t-3.5 58q-16 63 -44.5 106.5t-62.5 81.5q-29 28 -68.5 39.5t-85.5 10.5t-95.5 -12.5t-98.5 -29t-95 -39t-84 -41.5q-10 -5 -17.5 -49.5t-13.5 -110.5t-12 -144t-12 -150.5t-13.5 -129.5
t-16.5 -81q-6 -26 3.5 -42t28.5 -26.5t43.5 -17t50.5 -13.5q26 -5 35 0t14 21q8 51 18.5 104t22.5 110zM228 403q15 63 29.5 121t30.5 112q37 16 72.5 24t64 9t47 -5.5t21.5 -18.5q8 -22 -6 -54t-48 -66.5t-87 -67t-124 -54.5z" />
    <glyph glyph-name="Q" unicode="Q" horiz-adv-x="693" 
d="M552 38q-14 15 -25.5 31t-27.5 33q41 55 68.5 124t42.5 142t17.5 145t-7.5 133q-8 44 -24.5 78.5t-54.5 65.5q-34 27 -85.5 46t-108.5 28q-44 7 -92.5 -7t-82.5 -41q-53 -45 -92.5 -101.5t-66.5 -119.5t-40.5 -129.5t-15 -130.5t10.5 -122t36 -104q15 -28 41 -50t53 -36
q33 -17 72 -26t79 -12q36 -2 69 0t61 15q5 -3 9 -6t9 -8q32 -26 77 -19q18 4 36 9.5t36 15.5q19 9 21 19t-15 27zM265 119q-24 -18 -44 -10q-17 7 -28 25.5t-16 46t-5.5 61.5t3.5 72q13 75 38.5 150t65.5 140q20 32 40.5 54.5t38.5 30t32 -2t20 -39.5q6 -26 7.5 -62t-2 -76
t-10.5 -80.5t-17 -74.5q-16 -77 -47 -134q-28 -5 -50.5 -11.5t-39.5 -15.5q-37 -17 -11 -45q6 -8 11.5 -15t13.5 -14z" />
    <glyph glyph-name="R" unicode="R" horiz-adv-x="727" 
d="M181 234q26 -32 58 -63.5t64 -60.5t62 -53t53 -40q35 -21 61.5 -23.5t48.5 3.5q18 3 30.5 5.5t30.5 16.5q15 11 17 21t-18 27q-25 20 -53.5 47t-57.5 56t-56.5 58t-50.5 55q112 50 192.5 108t115.5 127q23 43 10 110q-16 63 -44.5 106.5t-63.5 81.5q-44 43 -102.5 52.5
t-124 -2t-133 -38.5t-129.5 -55q-13 -7 -25 -35.5t-22 -72t-19 -98t-16.5 -112.5t-14 -116t-11.5 -108.5t-8.5 -90.5t-5.5 -61q-2 -26 5 -41.5t26 -26.5q19 -10 40 -14t48 -11q23 -5 31.5 0t13.5 21q11 54 22.5 110t25.5 117zM288 640q39 19 74 26t64 7q59 0 71 -28
q6 -17 -10 -48t-52 -65.5t-89.5 -68t-122.5 -56.5q19 66 34 124t31 109z" />
    <glyph glyph-name="S" unicode="S" horiz-adv-x="601" 
d="M-83 199q-19 -11 -19 -30q2 -18 45 -55q81 -75 157 -105.5t156 -28.5q60 1 103 15t73 34.5t48 44.5t28 45q16 29 10.5 54.5t-26 49t-52 45.5t-67 44.5t-71 46.5t-64.5 51q-23 20 -29 46t-1 53t19.5 54t33 50t38.5 41t36 27q19 13 27 11t9.5 -15t-2.5 -33.5t-9.5 -43
l-11 -45t-6.5 -39.5q-10 -83 126 -131q23 -9 36 -4t24 25q11 22 22 52t20 62.5t16 64.5t10 59q0 15 -0.5 31.5t-5 34.5t-15 36.5t-30.5 36.5q-30 29 -75 52t-90 39q-30 9 -57.5 10.5t-51 -2.5t-42.5 -12.5t-32 -17.5q-36 -22 -71 -54t-64 -69t-50.5 -76t-30.5 -73
q-13 -40 -12 -77t13 -69.5t33.5 -60t48.5 -49.5q25 -21 55.5 -41t61 -39t58 -36.5t46 -32t25 -26.5t-4.5 -19q-28 -22 -90.5 -7t-146.5 66q-15 10 -33.5 15.5t-39 7t-40.5 -2t-38 -10.5z" />
    <glyph glyph-name="T" unicode="T" horiz-adv-x="664" 
d="M642 702q31 2 36.5 10.5t-0.5 31.5q-7 26 -20 53t-33 50q-10 13 -23.5 18.5t-44.5 5.5q-59 -2 -133.5 -7.5t-152 -13.5t-152 -18t-133.5 -22q-19 -5 -25 -12.5t6 -30.5q11 -22 28.5 -54t38.5 -53q20 -21 36 -25.5t41 1.5q18 5 45 8.5t56 8.5q-15 -68 -30 -147.5
t-27.5 -157.5t-21.5 -148t-12 -118q-4 -19 1 -32.5t16.5 -23.5t28.5 -17t38 -13t38 -11t30 -5.5t20.5 4t9.5 18.5q14 73 32.5 157t39.5 172.5t43.5 178.5l43.5 174q49 5 95 9.5t85 8.5z" />
    <glyph glyph-name="U" unicode="U" horiz-adv-x="676" 
d="M-5 102q16 -28 38 -47t47 -33q58 -32 148 -38q45 -3 80 3.5t70 23.5q49 28 89 90t74 154t64.5 211.5t60.5 262.5q3 13 4 22.5t-2 17.5t-10.5 15.5t-21.5 16.5q-27 16 -59.5 32.5t-61 24t-48.5 1.5t-22 -36q-12 -62 -27 -141t-33.5 -160.5t-40 -158.5t-45 -135.5
t-49.5 -91.5t-53 -26q-22 6 -29.5 37t-5 78t13 106t25.5 121t32.5 122.5t33.5 112.5q17 61 -37 100q-26 19 -53.5 33t-57.5 23q-32 11 -47.5 5t-23.5 -35q-18 -64 -34.5 -131.5t-29.5 -134.5t-21 -132t-8 -123t9.5 -106.5t30.5 -83.5z" />
    <glyph glyph-name="V" unicode="V" horiz-adv-x="699" 
d="M700 718q9 22 8.5 39t-9.5 31t-25 25.5t-36 22.5q-19 12 -37.5 20.5t-35 11t-29.5 -4t-21 -24.5q-63 -158 -125.5 -319t-128.5 -306q-11 73 -20.5 147.5t-17.5 143.5t-15.5 131t-13.5 111q-9 64 -75 88q-27 11 -51.5 15t-53.5 4q-30 0 -36.5 -11t-4.5 -38
q22 -205 49.5 -376.5t62.5 -308.5q6 -24 25.5 -52.5t56.5 -45.5q33 -16 63 -26t65 -20q35 -9 54 -2.5t33 30.5q22 41 50 98t59 122t62 134t59 134.5t51 123.5t37 102z" />
    <glyph glyph-name="W" unicode="W" horiz-adv-x="961" 
d="M164 262q0 60 1.5 126.5t4 128t5 111.5t3.5 76q1 13 0 28.5t-5.5 30t-13.5 27.5t-24 22q-26 15 -56 23.5t-67 16.5q-32 7 -43 -2t-12 -41q0 -57 1 -123.5t4 -136t7 -139.5t9 -134q5 -61 11.5 -114.5t14.5 -94.5q3 -28 13.5 -41.5t34.5 -21.5q26 -8 54.5 -15.5t59.5 -12.5
q23 -3 36.5 0.5t25.5 23.5q11 25 29 63.5t39.5 83.5t45.5 92.5t47 91.5q0 -35 3.5 -72t7.5 -72.5t8.5 -65.5t7.5 -51q4 -21 16 -38.5t40 -27.5q14 -3 25.5 -6.5t23 -6.5t24.5 -6.5t31 -6.5q32 -5 49 0t27 24q18 41 43 96t53.5 117.5t60 129t62.5 130.5t61 123t55 105
q12 26 13 51t-22 47q-21 17 -43.5 30.5t-45.5 24.5q-32 13 -47 9.5t-30 -34.5q-12 -23 -29.5 -59.5t-39 -82.5t-46 -98.5t-49.5 -107.5t-49.5 -109.5t-45.5 -103.5q4 59 8.5 121t8.5 117t7 96t3 58q0 15 -0.5 26t-4 19t-11 14t-22.5 12q-27 11 -46.5 18t-48.5 13
q-29 7 -43.5 1t-26.5 -28q-16 -26 -41.5 -81t-55 -122t-60 -139t-56.5 -133z" />
    <glyph glyph-name="X" unicode="X" horiz-adv-x="708" 
d="M303 593q-21 51 -40.5 97.5t-35.5 87.5q-14 29 -33 46.5t-54 22.5q-17 1 -33 1.5t-31 0.5h-29h-15t-15 -1q-29 -4 -35 -15.5t6 -43.5q13 -32 31.5 -74t40 -90t45.5 -99.5t48 -102.5q-71 -90 -129.5 -171.5t-93.5 -137.5q-8 -12 -10.5 -21t-2.5 -16q1 -9 11 -22
t24.5 -26.5t30.5 -25.5t30 -20q39 -25 63 5q35 42 78.5 99.5t97.5 122.5q32 -68 55.5 -114.5t35.5 -63.5q17 -24 32 -34.5t42 -13.5q54 -5 104 0q44 6 21 41q-29 67 -65.5 153.5t-78.5 186.5q75 88 144.5 168.5t123.5 143.5q18 21 23 44t-12 50q-14 22 -36 47.5t-45 43.5
q-11 7 -22 11t-22 4q-21 0 -41 -23q-42 -47 -94.5 -114t-113.5 -147z" />
    <glyph glyph-name="Y" unicode="Y" horiz-adv-x="651" 
d="M644 714q7 16 11 27.5t3.5 21.5t-5.5 19.5t-14 20.5q-16 15 -38.5 34t-45.5 30.5t-43 10t-29 -26.5q-52 -93 -104 -183t-106 -176q-27 86 -52 163t-48 137q-16 32 -29.5 47.5t-43.5 22.5t-58.5 5.5t-59.5 -3.5q-26 -5 -31.5 -14.5t5.5 -36.5q18 -56 40.5 -120.5
t46.5 -132t48 -134.5t45 -127q-12 -69 -18 -125.5t-13 -99.5q-2 -26 5 -39.5t29 -27.5q22 -9 48 -17.5t50 -14.5q26 -6 35 -2t14 24q11 54 23 111.5t29 124.5q44 63 91 132t89 134t75.5 121t50.5 94z" />
    <glyph glyph-name="Z" unicode="Z" horiz-adv-x="562" 
d="M304 661q-58 -72 -116 -150.5t-109.5 -152.5t-92 -137t-63.5 -104q-7 -12 -6.5 -22.5t5 -19.5t12 -17t14.5 -15q23 -18 38 -30t32 -24q9 -5 17.5 -9.5t19.5 -6.5t25 -1.5t34 5.5q60 14 131 26.5t135 24.5q26 3 34 11t0 28q-4 17 -12.5 35t-20.5 37q-20 33 -75 27
q-41 -5 -77.5 -10.5t-73.5 -14.5q95 123 200.5 254t210.5 258q20 23 22.5 43.5t-5.5 43.5q-6 18 -11.5 38.5t-18.5 47.5q-11 23 -25 31.5t-44 7.5q-55 -3 -117 -7.5t-123 -11t-117.5 -15.5t-101.5 -19q-20 -7 -25.5 -15t3.5 -31q6 -12 13.5 -25.5t15.5 -27.5t15.5 -26
t13.5 -21q20 -23 42 -29t48 -1q35 8 71.5 12.5t81.5 12.5z" />
    <glyph glyph-name="bracketleft" unicode="[" horiz-adv-x="456" 
d="M314 35q-8 17 -12.5 33t-17.5 33q-19 33 -67 28q-17 -1 -32.5 -2t-32.5 -2q12 60 27.5 130t33.5 142.5t37.5 144.5t38.5 137q35 3 68 6.5t62 6.5q26 4 35.5 12.5t1.5 32.5q-5 23 -12 42t-20 42q-11 23 -28 34t-43 10q-42 -1 -91 -3.5t-96 -9.5q-51 -6 -60 -47
q-21 -77 -41 -170.5t-37.5 -187.5t-31 -181.5t-20.5 -153.5q-4 -29 4 -46t22 -32l28 -22t28 -20q17 -11 37 -15.5t47 0.5q35 6 72 12t68 11q26 0 33 8t-1 27z" />
    <glyph glyph-name="backslash" unicode="\" horiz-adv-x="537" 
d="M149 873q-32 7 -59 8t-58 0q-59 -3 -44 -56q12 -49 32 -118t44.5 -147t51.5 -159t53 -154t48.5 -132t37.5 -93q12 -24 24 -36t36 -14q37 -6 81 -1q26 2 32.5 9.5t-1.5 24.5q-14 44 -32.5 107.5t-38.5 137t-41.5 152.5t-40.5 154t-35 141t-26 115q-5 15 -9.5 25t-11 17
t-17 11.5t-26.5 7.5z" />
    <glyph glyph-name="bracketright" unicode="]" horiz-adv-x="477" 
d="M419 698q6 23 4 38t-19 37q-14 19 -26.5 33.5t-26.5 28.5q-17 19 -33.5 25t-45.5 4q-57 -5 -107.5 -10t-91.5 -13q-25 -4 -32 -17.5t-3 -32.5t15.5 -40.5t23.5 -41.5q11 -23 26.5 -29.5t45.5 -3.5q14 1 27 3t27 3q-16 -65 -34 -138t-35.5 -147t-32.5 -144t-25 -127
q-29 -4 -60.5 -10.5t-54.5 -11.5q-43 -11 -19 -43q11 -17 21.5 -32.5t21.5 -27.5q12 -12 26 -17.5t40 -1.5q32 5 65 9t68 9q33 1 42.5 10.5t13.5 23.5q15 63 36 147.5t44.5 175.5t49 180t49.5 161z" />
    <glyph glyph-name="asciicircum" unicode="^" horiz-adv-x="670" 
d="M506 370q23 -1 30 6t2 27q-9 32 -19.5 75t-22 90.5t-21.5 97.5t-17 97q-2 15 -4.5 25.5t-6.5 18.5t-10 15.5t-14 16.5q-17 14 -36.5 27t-40.5 28q-20 11 -36 10.5t-37 -23.5q-40 -38 -79.5 -82.5t-75 -88t-64.5 -83.5t-48 -68q-21 -30 4 -63q16 -20 29.5 -33.5
t30.5 -27.5q15 -15 27 -15q15 0 25 15q38 45 82.5 97.5t98.5 107.5q18 -66 34 -121.5t30 -92.5q15 -37 54 -46q24 -5 45 -7t40 -3z" />
    <glyph glyph-name="underscore" unicode="_" horiz-adv-x="645" 
d="M16 -209h645q17 -2 28 3.5t17.5 14.5t10.5 19.5t8 20.5q4 11 8 21.5t3 18.5t-9 12.5t-28 3.5h-658q-22 0 -32.5 -6.5t-15.5 -23.5q-5 -14 -7 -27l-4 -26q-8 -31 34 -31z" />
    <glyph glyph-name="grave" unicode="`" horiz-adv-x="592" 
d="M89 1152q30 -20 71.5 -44t88.5 -48t98 -46t99 -39q21 -9 45.5 -3.5t54.5 22.5q0 -1 7 4.5t12 15t3 21t-20 22.5q-40 19 -82 40t-83.5 43.5t-80 47t-71.5 50.5q-19 14 -42.5 13.5t-59.5 -20.5q-21 -10 -28.5 -29.5t-11.5 -49.5z" />
    <glyph glyph-name="a" unicode="a" horiz-adv-x="718" 
d="M417 189q3 -41 6 -75.5t7 -63.5q4 -28 13.5 -39t33.5 -18q23 -8 45 -9.5t48 -1.5t33.5 7t7.5 25q-1 86 -0.5 186.5t2.5 200.5t6 192t10 163q3 29 -5.5 47t-39.5 29q-23 6 -45.5 13t-49 13t-58.5 10.5t-73 6.5q-47 4 -71 -13t-39 -44q-42 -75 -88.5 -171.5t-91 -195.5
t-83 -192t-62.5 -162q-6 -21 -5.5 -33.5t5.5 -20.5t14 -13.5t21 -13.5q16 -8 31.5 -14.5t28.5 -11.5q23 -8 34.5 -5t19.5 20q14 32 29 65.5t35 72.5q57 15 131.5 25.5t149.5 20.5zM226 329q47 95 93.5 183.5t86.5 161.5q-2 -80 -1 -161.5t3 -163.5q-46 -3 -91.5 -8
t-90.5 -12z" />
    <glyph glyph-name="b" unicode="b" 
d="M480 383q34 17 59 35.5t49 36.5q22 19 41 40.5t32 46.5t18.5 52t0.5 56q-11 53 -34.5 93t-58.5 75q-27 26 -69 39.5t-92.5 16.5t-106.5 -3t-110.5 -19t-104.5 -31t-88 -39q-2 -77 -9.5 -162.5t-17 -170t-17.5 -163t-11 -140.5q-2 -19 0 -31t7 -21.5t13.5 -18t19.5 -20.5
q30 -23 52.5 -37.5t52.5 -27.5q16 -9 28 -13t24.5 -5t26 1t32.5 7q36 9 76 22.5t79.5 30.5t75 38t61.5 44q38 30 55 61.5t12 76.5q-8 38 -32.5 74t-63.5 56zM216 454q14 53 24 100t24 90q43 20 80 30t65.5 11.5t46.5 -5t22 -19.5q4 -16 -12 -42.5t-50.5 -56t-85 -58.5
t-114.5 -50zM178 288q40 13 73 17.5t58 1.5t40 -11t20 -18q4 -17 -10.5 -37.5t-44.5 -41t-73 -39t-95 -31.5q7 40 15.5 78.5t16.5 80.5z" />
    <glyph glyph-name="c" unicode="c" horiz-adv-x="642" 
d="M474 210q-95 27 -154 -33q-82 -84 -122 -71q-21 6 -32 34t-13 68.5t4.5 90t19.5 99.5q14 48 38.5 104t52.5 102.5t55 75.5t47 23q20 -8 24 -34t3 -58q0 -18 3 -39q4 -25 13 -44t24 -33.5t38 -25t55 -16.5q17 -3 27 -2t15.5 5t8.5 11t6 15q6 18 11 40.5t8 47t4.5 49.5
t0.5 48q-1 20 -4 37.5t-10.5 33.5t-20 31.5t-31.5 31.5q-20 13 -45 25.5t-53 23t-58 18t-58 10.5q-38 3 -81 -8t-85 -47q-52 -45 -92.5 -104.5t-69.5 -126.5t-45.5 -137.5t-19.5 -137t7.5 -125t36.5 -101.5q15 -28 42 -49t54 -32q30 -10 68 -21.5t85 -14.5q22 -2 45.5 0
t45 7t41 13t33.5 17q28 20 56 50t46 66q17 31 15.5 52t-39.5 31z" />
    <glyph glyph-name="d" unicode="d" horiz-adv-x="733" 
d="M16 792l-58 -635q-3 -25 -1 -41t8.5 -27t15.5 -19.5t19 -17.5q27 -20 48 -33.5t49 -27.5q56 -27 107 -9q100 28 179 75t136.5 106t93.5 126t50.5 134.5t7.5 131.5t-35 118q-33 68 -81 109t-104.5 61.5t-117 23t-118.5 -7t-109.5 -28t-89.5 -39.5zM150 139
q25 130 52 257.5t62 258.5q65 21 110 4t63 -51t14 -95q-3 -44 -21 -95t-54 -102t-92 -97.5t-134 -79.5z" />
    <glyph glyph-name="e" unicode="e" horiz-adv-x="577" 
d="M41 798l-95 -665q-2 -27 7.5 -46t26.5 -33q21 -18 36.5 -29.5t32.5 -22.5q15 -10 35.5 -15.5t60.5 4.5q60 11 126 24t130 25q27 5 32 12.5t0 27.5q-8 18 -14.5 35.5t-18.5 37.5q-11 18 -26.5 24t-43.5 4q-50 -3 -92.5 -8t-89.5 -13q8 28 15 56.5t15 60.5q58 12 120.5 22
t122.5 21q28 6 34.5 14t-1.5 31q-5 20 -11.5 39.5t-18.5 39.5q-11 20 -27 26t-44 5q-34 -1 -64 -3t-60 -6q16 53 29 101.5t28 93.5q71 10 135 17t124 14q29 4 37 13t4 35q-5 23 -10 42.5t-18 43.5q-16 45 -73 44q-60 -2 -120.5 -9.5t-118 -17.5t-110 -22t-95.5 -23z" />
    <glyph glyph-name="f" unicode="f" horiz-adv-x="570" 
d="M543 692q30 4 37 12.5t3 34.5q-4 43 -31 88q-9 14 -17 22.5t-16.5 13t-19 6t-25.5 1.5q-60 -2 -121.5 -7t-120.5 -12.5t-112.5 -17t-96.5 -21.5q3 -49 -1 -114t-12.5 -136.5t-19.5 -144.5t-21 -137.5t-17.5 -116t-8.5 -79.5q0 -26 5 -40t30 -26q19 -8 44.5 -17
t48.5 -12.5t39 0t17 21.5q12 54 26.5 123.5t33.5 146.5q57 12 115 23t115 20q27 3 34.5 11.5t-0.5 31.5q-5 20 -11.5 39.5t-18.5 39.5q-22 34 -71 31q-31 -1 -60.5 -3.5t-58.5 -5.5q17 54 27.5 103t24.5 90q71 10 135.5 17t124.5 15z" />
    <glyph glyph-name="g" unicode="g" horiz-adv-x="663" 
d="M594 478q4 16 7.5 40t6 50t3 52t-0.5 47q-5 40 -19 72t-48 59q-18 15 -40.5 27.5t-48 22t-52.5 16.5t-53 10q-18 3 -39 3t-42.5 -3t-42.5 -11t-39 -22q-56 -41 -100.5 -99t-77 -124.5t-51.5 -137t-24 -138.5t5 -128.5t36 -105.5q14 -28 38.5 -51.5t50.5 -37.5
q73 -32 150 -42q44 -6 84 0.5t76 26.5q56 33 104 94t85 151q9 26 8.5 44t-17.5 41l-19.5 26t-22.5 27q-18 20 -39 25.5t-55 0.5q-29 -5 -69 -9.5t-77 -12.5q-20 -3 -36 -5.5t-27 -7t-15.5 -12t-0.5 -20.5q19 -57 51.5 -81t92.5 -21q-16 -33 -34 -61.5t-37 -48.5t-38.5 -29
t-37.5 -3q-21 7 -33 37.5t-14 73.5t5.5 93.5t24.5 98.5q19 60 46 115.5t55.5 97.5t56 64.5t47.5 16.5q10 -3 13.5 -16t7.5 -32l2 -20t1 -21q-1 -11 -0.5 -20.5t2.5 -19.5q5 -51 37.5 -82t102.5 -41q25 -2 34.5 4.5t16.5 26.5z" />
    <glyph glyph-name="h" unicode="h" horiz-adv-x="678" 
d="M687 739q8 26 2.5 40t-31.5 33q-28 18 -59 32.5t-60 22.5q-31 9 -47.5 4.5t-25.5 -36.5q-23 -85 -46.5 -189.5t-48.5 -210.5q-38 -3 -78.5 -6t-82.5 -8l37.5 165t33.5 134q3 13 4 23t-2.5 18t-12 16t-23.5 17q-27 18 -63.5 33.5t-68.5 24.5q-29 11 -44 5t-23 -38
q-12 -84 -23.5 -183.5t-23.5 -199.5t-25 -192t-28 -161q-6 -26 4 -40.5t33 -25.5q19 -11 45.5 -18t51.5 -14q26 -6 34.5 -1t12.5 22q8 48 18 108.5t26 129.5q42 7 82.5 12.5t82.5 11.5q-11 -58 -19 -105t-12 -83q-9 -36 14 -53.5t64 -29.5q20 -5 37.5 -9.5t30.5 -5t20.5 4
t7.5 18.5q20 83 45.5 180t53 195t55.5 191t52 168z" />
    <glyph glyph-name="i" unicode="i" horiz-adv-x="312" 
d="M259 794q-27 18 -63 34t-67 24q-31 9 -46.5 2.5t-24.5 -35.5q-11 -47 -24 -109.5t-25.5 -132.5t-24.5 -143t-21.5 -139t-16 -121.5t-8.5 -90.5q-3 -26 4.5 -40.5t30.5 -25.5q21 -11 44.5 -18t49.5 -14q26 -6 34.5 -1t13.5 22q9 45 21.5 102.5t27.5 122t31 132t32.5 132
t33 122.5t30.5 103q7 27 1.5 41t-33.5 33z" />
    <glyph glyph-name="j" unicode="j" horiz-adv-x="627" 
d="M138 -13q75 -17 123.5 -7.5t83.5 30.5q44 28 82 90t70.5 154t60.5 213t53 268q3 13 3.5 22.5t-3 17.5t-11.5 15.5t-23 17.5q-29 18 -65.5 32t-66.5 22q-31 8 -47.5 1.5t-22.5 -36.5q-9 -63 -21.5 -141t-27.5 -158.5t-32 -157t-36 -136t-39 -95.5t-41 -35q-24 3 -30 25.5
t-10 72.5q-3 78 -120 125q-35 16 -50.5 -0.5t-21.5 -51.5q-6 -46 -3 -81.5t19 -68.5q10 -23 24 -44t35 -39t49.5 -32t67.5 -23z" />
    <glyph glyph-name="k" unicode="k" horiz-adv-x="664" 
d="M332 303q44 42 93 90t94.5 96.5t84 95t61.5 84.5q19 31 21.5 52t-5.5 43q-13 27 -27.5 50t-36.5 42q-21 18 -38 18q-15 0 -32 -22q-26 -32 -66.5 -78t-87 -97t-95.5 -103.5t-91 -98.5q17 78 32 143.5t30 116.5q4 13 5 22.5t-3 17.5t-13 15.5t-24 17.5q-27 18 -63.5 34
t-68.5 24q-29 9 -45 2.5t-24 -34.5q-10 -47 -21 -111t-22 -135.5t-21 -146t-18 -142.5t-13 -124.5t-6 -91.5q-2 -37 18 -55t65 -30q22 -6 40.5 -11.5t31.5 -6t20 5t7 20.5q8 45 18 100t23 121q21 -30 45.5 -60.5t47 -57.5t41.5 -48t30 -33q27 -29 54 -33t53 3q17 2 34.5 7
t30.5 12q22 10 25.5 20.5t-13.5 27.5q-16 18 -37 45t-44 59t-46.5 66.5t-43.5 67.5z" />
    <glyph glyph-name="l" unicode="l" horiz-adv-x="532" 
d="M383 41q31 6 34.5 13t-3.5 28q-4 17 -11.5 35.5t-19.5 36.5q-12 19 -26.5 24.5t-42.5 3.5q-47 -3 -87 -7t-86 -12q16 69 34.5 144.5t39 151.5t41 148t40.5 132q9 26 2.5 40t-32.5 33q-27 18 -63 32.5t-67 22.5q-31 9 -46.5 3.5t-25.5 -34.5q-14 -51 -28.5 -112
t-28.5 -127t-26 -132.5t-22 -128.5t-17 -115.5t-10 -92.5q-4 -25 5 -42.5t26 -31.5q23 -18 37 -29.5t31 -22.5q7 -5 14.5 -9t18.5 -6.5t26 -1.5t37 7q60 12 126.5 24.5t129.5 24.5z" />
    <glyph glyph-name="m" unicode="m" horiz-adv-x="924" 
d="M187 489q15 -100 33.5 -194t38.5 -166q5 -17 9.5 -28t10.5 -18.5t14 -12t19 -8.5q30 -10 70 -18q13 -3 21 -2.5t13 3.5t8.5 9.5t8.5 17.5q16 35 42.5 87.5t58 111.5t65 120t63.5 113q-17 -59 -31.5 -122t-26.5 -120.5t-21 -105t-13 -77.5q-5 -25 2.5 -40t30.5 -26
q18 -10 42 -17t47 -12q26 -6 35 2t16 26q8 35 22 88t31.5 116t37 132t39 136t38.5 128t34 108q11 33 3.5 51.5t-36.5 32.5q-44 20 -89.5 35t-86.5 26q-35 10 -57.5 8t-40.5 -17.5t-35 -45t-40 -75.5q-23 -40 -47.5 -85t-47.5 -90t-44.5 -88t-37.5 -79q-16 103 -25 162
t-13.5 91t-6 44.5t-1.5 21.5q-4 19 -7.5 34t-11.5 27.5t-22 23t-38 19.5q-38 14 -75.5 24t-91.5 18q-35 5 -51.5 -3.5t-25.5 -42.5q-9 -47 -18.5 -108.5t-19 -130.5t-17.5 -140t-14.5 -137t-10 -122.5t-3.5 -95.5q-2 -26 7 -40t34 -26q20 -10 43.5 -17.5t46.5 -12.5
q24 -5 33 0.5t13 23.5q4 43 11.5 98t17.5 118t22 131t25 136z" />
    <glyph glyph-name="n" unicode="n" horiz-adv-x="702" 
d="M392 327q-11 51 -22 106.5t-21 108t-18 97.5t-13 74q-6 38 -19 57.5t-44 32.5q-38 18 -73 29t-72 22q-31 8 -49 0.5t-25 -37.5q-11 -52 -22.5 -119t-22.5 -139t-20.5 -144.5t-17 -136t-12 -113.5t-6.5 -77q-2 -26 5.5 -40.5t29.5 -25.5q23 -14 47.5 -20.5t48.5 -12.5
q26 -7 35 -2.5t13 21.5q5 36 13.5 84.5t19 105t22 118.5t22.5 124q13 -52 28 -103.5t30 -99t29.5 -88.5t28.5 -72q18 -43 62 -60q48 -17 94 -26q54 -12 60 26q16 70 38.5 162.5t47 189.5t49.5 191t48 168q8 26 4.5 44.5t-32.5 36.5q-17 11 -30 18t-24.5 12t-23.5 8t-27 7
q-32 8 -48.5 1t-24.5 -36q-29 -107 -58.5 -234t-49.5 -258z" />
    <glyph glyph-name="o" unicode="o" 
d="M541 790q-34 27 -85.5 46t-108.5 28q-44 7 -92.5 -7t-83.5 -41q-52 -45 -91.5 -101.5t-66.5 -119.5t-41 -129.5t-15 -130.5t11 -122t36 -104q15 -28 41 -50t53 -36q33 -17 73 -25.5t78 -12.5q57 -6 101 4.5t84 41.5q59 52 99.5 127t64 159.5t29.5 170t-5 158.5
q-8 44 -25.5 78.5t-55.5 65.5zM380 690q20 -6 29.5 -41.5t9.5 -85.5q0 -49 -8 -105.5t-21 -103.5q-15 -57 -35.5 -105.5t-43.5 -81.5t-46 -49t-44 -9q-23 7 -35 38t-14 74.5t4 94t20 97.5q14 48 36.5 99.5t48.5 93.5t52 66.5t47 17.5z" />
    <glyph glyph-name="p" unicode="p" horiz-adv-x="708" 
d="M185 215q60 16 121.5 38.5t117.5 50.5t103.5 60t81.5 66q21 21 38.5 43t29 46t15 51t-3.5 58q-16 63 -44.5 106.5t-62.5 81.5q-29 28 -68.5 39.5t-85.5 10.5t-95.5 -12.5t-98.5 -29t-95 -39t-84 -41.5q-10 -5 -17.5 -49.5t-13.5 -110.5t-12 -144t-12 -150.5t-13.5 -129.5
t-16.5 -81q-6 -26 3.5 -42t28.5 -26.5t43.5 -17t50.5 -13.5q26 -5 35 0t14 21q8 51 18.5 104t22.5 110zM228 403q15 63 29.5 121t30.5 112q37 16 72.5 24t64 9t47 -5.5t21.5 -18.5q8 -22 -6 -54t-48 -66.5t-87 -67t-124 -54.5z" />
    <glyph glyph-name="q" unicode="q" horiz-adv-x="693" 
d="M552 38q-14 15 -25.5 31t-27.5 33q41 55 68.5 124t42.5 142t17.5 145t-7.5 133q-8 44 -24.5 78.5t-54.5 65.5q-34 27 -85.5 46t-108.5 28q-44 7 -92.5 -7t-82.5 -41q-53 -45 -92.5 -101.5t-66.5 -119.5t-40.5 -129.5t-15 -130.5t10.5 -122t36 -104q15 -28 41 -50t53 -36
q33 -17 72 -26t79 -12q36 -2 69 0t61 15q5 -3 9 -6t9 -8q32 -26 77 -19q18 4 36 9.5t36 15.5q19 9 21 19t-15 27zM265 119q-24 -18 -44 -10q-17 7 -28 25.5t-16 46t-5.5 61.5t3.5 72q13 75 38.5 150t65.5 140q20 32 40.5 54.5t38.5 30t32 -2t20 -39.5q6 -26 7.5 -62t-2 -76
t-10.5 -80.5t-17 -74.5q-16 -77 -47 -134q-28 -5 -50.5 -11.5t-39.5 -15.5q-37 -17 -11 -45q6 -8 11.5 -15t13.5 -14z" />
    <glyph glyph-name="r" unicode="r" horiz-adv-x="727" 
d="M181 234q26 -32 58 -63.5t64 -60.5t62 -53t53 -40q35 -21 61.5 -23.5t48.5 3.5q18 3 30.5 5.5t30.5 16.5q15 11 17 21t-18 27q-25 20 -53.5 47t-57.5 56t-56.5 58t-50.5 55q112 50 192.5 108t115.5 127q23 43 10 110q-16 63 -44.5 106.5t-63.5 81.5q-44 43 -102.5 52.5
t-124 -2t-133 -38.5t-129.5 -55q-13 -7 -25 -35.5t-22 -72t-19 -98t-16.5 -112.5t-14 -116t-11.5 -108.5t-8.5 -90.5t-5.5 -61q-2 -26 5 -41.5t26 -26.5q19 -10 40 -14t48 -11q23 -5 31.5 0t13.5 21q11 54 22.5 110t25.5 117zM288 640q39 19 74 26t64 7q59 0 71 -28
q6 -17 -10 -48t-52 -65.5t-89.5 -68t-122.5 -56.5q19 66 34 124t31 109z" />
    <glyph glyph-name="s" unicode="s" horiz-adv-x="601" 
d="M-83 202q-21 -10 -19 -29q2 -20 46 -57q81 -76 157.5 -107t157.5 -29q60 1 103 15t73 35t48 45.5t28 45.5q16 30 10.5 56t-26 49.5t-52 46t-67 45.5t-71.5 47.5t-65 52.5q-23 21 -29 47.5t-1 54t19 54.5t32.5 50.5t39 42t37.5 27.5q19 14 27.5 11.5t10 -15t-2.5 -33.5
t-9.5 -44.5t-11 -46.5t-7.5 -41q-11 -86 126 -132q25 -11 37.5 -5.5t24.5 25.5q11 21 21.5 52t20 65t16.5 67t11 59q0 15 -0.5 32.5t-5 35.5t-15.5 37t-31 38q-31 28 -76.5 52t-90.5 40q-30 9 -58 10.5t-52 -2.5t-43 -12.5t-31 -17.5q-37 -23 -72.5 -55.5t-65 -70t-51 -77.5
t-30.5 -76q-13 -41 -12 -78t13 -70t33.5 -61.5t49.5 -50.5q25 -21 56 -41.5t62 -39.5t58.5 -37t46 -33t25 -26.5t-5.5 -19.5q-28 -23 -91 -8t-148 68q-15 10 -33.5 15.5t-38.5 6.5t-40 -2t-38 -11z" />
    <glyph glyph-name="t" unicode="t" horiz-adv-x="664" 
d="M642 702q31 2 36.5 10.5t-0.5 31.5q-7 26 -20 53t-33 50q-10 13 -23.5 18.5t-44.5 5.5q-59 -2 -133.5 -7.5t-152 -13.5t-152 -18t-133.5 -22q-19 -5 -25 -12.5t6 -30.5q11 -22 28.5 -54t38.5 -53q20 -21 36 -25.5t41 1.5q18 5 45 8.5t56 8.5q-15 -68 -30 -147.5
t-27.5 -157.5t-21.5 -148t-12 -118q-4 -19 1 -32.5t16.5 -23.5t28.5 -17t38 -13t38 -11t30 -5.5t20.5 4t9.5 18.5q14 73 32.5 157t39.5 172.5t43.5 178.5l43.5 174q49 5 95 9.5t85 8.5z" />
    <glyph glyph-name="u" unicode="u" horiz-adv-x="676" 
d="M-5 102q16 -28 38 -47t47 -33q58 -32 148 -38q45 -3 80 3.5t70 23.5q49 28 89 90t74 154t64.5 211.5t60.5 262.5q3 13 4 22.5t-2 17.5t-10.5 15.5t-21.5 16.5q-27 16 -59.5 32.5t-61 24t-48.5 1.5t-22 -36q-12 -62 -27 -141t-33.5 -160.5t-40 -158.5t-45 -135.5
t-49.5 -91.5t-53 -26q-22 6 -29.5 37t-5 78t13 106t25.5 121t32.5 122.5t33.5 112.5q17 61 -37 100q-26 19 -53.5 33t-57.5 23q-32 11 -47.5 5t-23.5 -35q-18 -64 -34.5 -131.5t-29.5 -134.5t-21 -132t-8 -123t9.5 -106.5t30.5 -83.5z" />
    <glyph glyph-name="v" unicode="v" horiz-adv-x="699" 
d="M700 718q9 22 8.5 39t-9.5 31t-25 25.5t-36 22.5q-19 12 -37.5 20.5t-35 11t-29.5 -4t-21 -24.5q-63 -158 -125.5 -319t-128.5 -306q-11 73 -20.5 147.5t-17.5 143.5t-15.5 131t-13.5 111q-9 64 -75 88q-27 11 -51.5 15t-53.5 4q-30 0 -36.5 -11t-4.5 -38
q22 -205 49.5 -376.5t62.5 -308.5q6 -24 25.5 -52.5t56.5 -45.5q33 -16 63 -26t65 -20q35 -9 54 -2.5t33 30.5q22 41 50 98t59 122t62 134t59 134.5t51 123.5t37 102z" />
    <glyph glyph-name="w" unicode="w" horiz-adv-x="961" 
d="M164 262q0 60 1.5 126.5t4 128t5 111.5t3.5 76q1 13 0 28.5t-5.5 30t-13.5 27.5t-24 22q-26 15 -56 23.5t-67 16.5q-32 7 -43 -2t-12 -41q0 -57 1 -123.5t4 -136t7 -139.5t9 -134q5 -61 11.5 -114.5t14.5 -94.5q3 -28 13.5 -41.5t34.5 -21.5q26 -8 54.5 -15.5t59.5 -12.5
q23 -3 36.5 0.5t25.5 23.5q11 25 29 63.5t39.5 83.5t45.5 92.5t47 91.5q0 -35 3.5 -72t7.5 -72.5t8.5 -65.5t7.5 -51q4 -21 16 -38.5t40 -27.5q14 -3 25.5 -6.5t23 -6.5t24.5 -6.5t31 -6.5q32 -5 49 0t27 24q18 41 43 96t53.5 117.5t60 129t62.5 130.5t61 123t55 105
q12 26 13 51t-22 47q-21 17 -43.5 30.5t-45.5 24.5q-32 13 -47 9.5t-30 -34.5q-12 -23 -29.5 -59.5t-39 -82.5t-46 -98.5t-49.5 -107.5t-49.5 -109.5t-45.5 -103.5q4 59 8.5 121t8.5 117t7 96t3 58q0 15 -0.5 26t-4 19t-11 14t-22.5 12q-27 11 -46.5 18t-48.5 13
q-29 7 -43.5 1t-26.5 -28q-16 -26 -41.5 -81t-55 -122t-60 -139t-56.5 -133z" />
    <glyph glyph-name="x" unicode="x" horiz-adv-x="708" 
d="M303 593q-21 51 -40.5 97.5t-35.5 87.5q-14 29 -33 46.5t-54 22.5q-17 1 -33 1.5t-31 0.5h-29h-15t-15 -1q-29 -4 -35 -15.5t6 -43.5q13 -32 31.5 -74t40 -90t45.5 -99.5t48 -102.5q-71 -90 -129.5 -171.5t-93.5 -137.5q-8 -12 -10.5 -21t-2.5 -16q1 -9 11 -22
t24.5 -26.5t30.5 -25.5t30 -20q39 -25 63 5q35 42 78.5 99.5t97.5 122.5q32 -68 55.5 -114.5t35.5 -63.5q17 -24 32 -34.5t42 -13.5q54 -5 104 0q44 6 21 41q-29 67 -65.5 153.5t-78.5 186.5q75 88 144.5 168.5t123.5 143.5q18 21 23 44t-12 50q-14 22 -36 47.5t-45 43.5
q-11 7 -22 11t-22 4q-21 0 -41 -23q-42 -47 -94.5 -114t-113.5 -147z" />
    <glyph glyph-name="y" unicode="y" horiz-adv-x="651" 
d="M644 714q7 16 11 27.5t3.5 21.5t-5.5 19.5t-14 20.5q-16 15 -38.5 34t-45.5 30.5t-43 10t-29 -26.5q-52 -93 -104 -183t-106 -176q-27 86 -52 163t-48 137q-16 32 -29.5 47.5t-43.5 22.5t-58.5 5.5t-59.5 -3.5q-26 -5 -31.5 -14.5t5.5 -36.5q18 -56 40.5 -120.5
t46.5 -132t48 -134.5t45 -127q-12 -69 -18 -125.5t-13 -99.5q-2 -26 5 -39.5t29 -27.5q22 -9 48 -17.5t50 -14.5q26 -6 35 -2t14 24q11 54 23 111.5t29 124.5q44 63 91 132t89 134t75.5 121t50.5 94z" />
    <glyph glyph-name="z" unicode="z" horiz-adv-x="562" 
d="M304 661q-58 -72 -116 -150.5t-109.5 -152.5t-92 -137t-63.5 -104q-7 -12 -6.5 -22.5t5 -19.5t12 -17t14.5 -15q23 -18 38 -30t32 -24q9 -5 17.5 -9.5t19.5 -6.5t25 -1.5t34 5.5q60 14 131 26.5t135 24.5q26 3 34 11t0 28q-4 17 -12.5 35t-20.5 37q-20 33 -75 27
q-41 -5 -77.5 -10.5t-73.5 -14.5q95 123 200.5 254t210.5 258q20 23 22.5 43.5t-5.5 43.5q-6 18 -11.5 38.5t-18.5 47.5q-11 23 -25 31.5t-44 7.5q-55 -3 -117 -7.5t-123 -11t-117.5 -15.5t-101.5 -19q-20 -7 -25.5 -15t3.5 -31q6 -12 13.5 -25.5t15.5 -27.5t15.5 -26
t13.5 -21q20 -23 42 -29t48 -1q35 8 71.5 12.5t81.5 12.5z" />
    <glyph glyph-name="braceleft" unicode="{" horiz-adv-x="508" 
d="M368 35q-5 17 -11.5 33t-18.5 33q-21 33 -66 28q-17 -1 -33 -2t-33 -2q12 60 28 130t34 143t37.5 145t39.5 136q35 3 68 6.5t62 6.5q29 4 37 12.5t0 32.5q-5 23 -11 42t-19 42q-23 45 -73 44q-42 -1 -91 -3.5t-94 -9.5q-30 -3 -43 -15t-18 -32q-19 -72 -37.5 -156
t-37.5 -174q-33 -5 -60 -8t-47 -9q-35 -9 -20 -45q9 -20 21.5 -45.5t29.5 -44.5q14 -14 21 -19t21 -7q-9 -55 -16 -100t-14 -85q-4 -29 3 -46t27 -32q15 -11 29 -22t28 -20q17 -11 35 -16t50 1q35 6 71.5 12t68.5 11q26 0 33 8t-1 27z" />
    <glyph glyph-name="bar" unicode="|" horiz-adv-x="537" 
d="M371 881q-27 19 -54.5 29t-53.5 21q-31 11 -47 4t-26 -36q-12 -49 -26.5 -122.5t-30.5 -159.5t-31.5 -176t-29 -171t-23 -146t-13.5 -100q-2 -24 4.5 -37.5t29.5 -24.5q18 -8 37 -15t42 -13q26 -6 34 -0.5t13 23.5q7 42 22 108t33.5 145t39.5 164t41.5 165.5t38.5 149.5
t31 116q10 27 4 42t-35 34z" />
    <glyph glyph-name="braceright" unicode="}" horiz-adv-x="565" 
d="M416 698q6 23 4.5 38t-19.5 37q-14 19 -26.5 33.5t-26.5 28.5q-17 19 -33.5 25t-45.5 4q-57 -5 -107.5 -10t-91.5 -13q-20 -4 -34 -15t-4 -34q9 -22 17.5 -41.5t22.5 -41.5q15 -23 30 -29.5t45 -3.5q14 1 27 3t27 3q-16 -65 -34 -138t-35 -147t-31.5 -144t-24.5 -127
q-24 -3 -48 -6.5t-44 -8t-33.5 -10.5t-16.5 -13q-2 -6 3.5 -18t14 -25t18 -25t15.5 -19q12 -12 25.5 -17.5t38.5 -1.5q32 5 65.5 9t68.5 9q32 1 42.5 10.5t14.5 23.5q11 51 26.5 115t34.5 139q27 6 56.5 7.5t52 5t33.5 12.5t1 31q-8 20 -14 41t-17 41q-20 39 -67 39
q21 63 38 122t32 111z" />
    <glyph glyph-name="asciitilde" unicode="~" horiz-adv-x="742" 
d="M504 552q34 0 72.5 16t85.5 48q96 63 99 112q1 24 -31 40q-25 13 -55 13q-35 0 -69 -25q-5 -5 -17 -16.5t-25.5 -23t-26 -20t-18.5 -7.5q-22 2 -44 9.5t-43.5 17t-42.5 19t-41 15.5q-35 13 -67.5 19.5t-64.5 6.5q-27 0 -67 -13.5t-78.5 -33t-69.5 -42t-41 -40.5
q-14 -24 -13 -43q3 -48 76 -48q39 0 68 18q3 0 13.5 8.5t25 19t30.5 19t29 8.5q16 0 39 -3.5t47 -9.5t45 -13.5t32 -15.5q25 -18 63 -26.5t89 -8.5z" />
    <glyph glyph-name="exclamdown" unicode="&#xa1;" horiz-adv-x="400" 
d="M-11 11q24 -14 54.5 -25.5t56.5 -16.5q29 -8 41.5 -3t20.5 28q15 50 34.5 119t38 144t35.5 149.5t28 135.5q7 31 0.5 47t-31.5 30q-24 13 -49.5 22.5t-53.5 14.5q-26 7 -37.5 1.5t-16.5 -30.5q-14 -65 -32.5 -136t-38.5 -142.5t-40.5 -141t-39.5 -132.5q-8 -21 -1 -35.5
t31 -28.5zM366 795q3 31 -6 55.5t-25.5 41.5t-39.5 25.5t-50 8.5q-26 0 -47 -10t-36 -24.5t-24.5 -31t-13.5 -28.5q-5 -15 -4 -35.5t10.5 -40t28 -36.5t48.5 -26q34 -11 62.5 -6t48.5 20t32.5 38t15.5 49z" />
    <glyph glyph-name="cent" unicode="&#xa2;" horiz-adv-x="558" 
d="M412 266q-73 19 -115 -26q-60 -63 -92 -53q-15 4 -23 25t-9.5 52t3 68t15.5 74q10 35 28.5 76t39 75t40.5 55t34 17q14 -5 16.5 -24.5t2.5 -42.5q0 -8 1 -14t2 -13q7 -38 27.5 -58.5t67.5 -30.5q26 -5 32 2.5t11 19.5q4 13 7 29.5t5 34.5t3 36t0 34q-1 29 -10.5 51.5
t-39.5 45.5l-19 11q7 22 11.5 43.5t9.5 38.5q11 47 -6 81.5t-52 57.5q-43 30 -62 -13q-12 -30 -25 -74.5t-28 -89.5q-24 0 -51 -8.5t-54 -30.5q-57 -48 -96 -120t-58 -149.5t-16 -149.5t31 -120q10 -19 26.5 -33.5t33.5 -23.5l-2 -16t0 -16q-2 -36 11.5 -70.5t48.5 -51.5
q20 -10 29.5 -7.5t13.5 19.5q3 22 9.5 50.5t14.5 57.5h3q32 -2 67 6.5t56 23.5q21 14 42 37t34 50q13 24 11.5 40t-29.5 24z" />
    <glyph glyph-name="sterling" unicode="&#xa3;" horiz-adv-x="660" 
d="M61 473q14 2 27.5 2.5t27.5 2.5q-4 -20 -8 -41t-7 -41q-36 -3 -69 -7.5t-65 -9.5q-19 -3 -28.5 -14t2.5 -31q9 -16 21 -35t26 -34q14 -17 29 -21.5t39 -0.5l19 4q-5 -35 -8.5 -65t-6.5 -54q-4 -25 5 -42.5t27 -31.5q23 -18 36.5 -29.5t30.5 -22.5q7 -5 14.5 -9t18 -6.5
t26 -1.5t37.5 7q60 12 126.5 24.5t130.5 24.5q15 3 23 6t11 7t1.5 10.5t-5.5 17.5q-4 17 -11 35.5t-19 36.5q-11 19 -26.5 24.5t-41.5 3.5q-47 -3 -87.5 -7t-85.5 -12q5 26 12 53.5t14 55.5q43 4 86.5 6t87.5 4q23 1 30 7.5t-1 25.5q-5 16 -11.5 31.5t-18.5 32.5
q-17 32 -62 32q-18 0 -36 0.5t-38 -0.5l20 79h71q36 0 73 -1q44 -6 34 31q-5 17 -11.5 33.5t-15.5 36.5q-14 33 -63 38q-11 1 -22.5 1.5t-23.5 2.5q9 28 17.5 54.5t16.5 52.5q10 26 4 40t-33 33q-26 18 -62.5 32.5t-67.5 22.5q-29 9 -45.5 3.5t-26.5 -34.5
q-13 -44 -25.5 -95t-26.5 -107q-44 -2 -86.5 -4.5t-79.5 -7.5q-20 -3 -31.5 -13t-1.5 -33q7 -18 19 -38.5t24 -37.5q14 -20 29 -25t41 -2z" />
    <glyph glyph-name="yen" unicode="&#xa5;" horiz-adv-x="651" 
d="M74 292l62 7q-3 -21 -6 -40l-6 -38q-38 -3 -72.5 -7.5t-67.5 -9.5q-18 -3 -27 -13.5t2 -29.5q9 -15 21 -32.5t25 -32.5q14 -15 28.5 -19.5t38.5 -0.5q8 2 16.5 3t17.5 2q-1 -2 -0.5 -3.5t0.5 -3.5q-3 -26 4 -39.5t29 -27.5q22 -9 48 -17.5t50 -14.5q26 -6 35 -2t14 24
q5 26 10.5 52.5t10.5 53.5q42 3 83 5t85 4q21 2 28.5 8t-0.5 23q-5 15 -11.5 29.5t-19.5 31.5q-18 30 -59 30q-18 0 -36.5 0.5t-37.5 -0.5q14 18 26.5 36t26.5 38q26 0 53 -0.5t55 -0.5q22 -2 30 4.5t3 25.5q-5 16 -11.5 31t-15.5 35q-6 9 -13 16.5t-18 11.5q28 42 54.5 83
t48.5 77.5t39.5 67.5t28.5 55q7 16 11 27.5t3.5 21.5t-5 19.5t-13.5 20.5q-16 15 -39 34t-46 30.5t-42.5 10t-29.5 -26.5q-52 -93 -104.5 -183t-105.5 -176q-27 86 -52.5 163t-47.5 137q-8 16 -14.5 27.5t-14.5 20t-18.5 14t-25.5 8.5q-29 7 -58 5.5t-59 -3.5
q-27 -5 -32.5 -14.5t5.5 -36.5q13 -41 28 -86t31.5 -93t33.5 -97t34 -97q-24 -2 -46 -4t-42 -4q-19 -2 -30 -11.5t-2 -31.5q8 -17 19.5 -36t22.5 -35q14 -19 28.5 -23.5t38.5 -2.5z" />
    <glyph glyph-name="brokenbar" unicode="&#xa6;" horiz-adv-x="429" 
d="M371 881q-26 19 -53.5 29t-54.5 21q-31 11 -46.5 4t-25.5 -36q-12 -54 -20 -89t-13.5 -60.5t-9 -45t-6.5 -41t-6.5 -49.5t-7.5 -70q-4 -29 3 -44.5t32 -29.5q20 -9 40 -17t46 -16q28 -7 36.5 -0.5t15.5 28.5q13 41 22 69t16 50.5t13 42t12.5 43.5t15.5 56t22 79
q10 27 4.5 42t-35.5 34zM246 311q-25 15 -50 23.5t-50 18.5q-28 9 -42.5 3t-22.5 -30q-10 -45 -16.5 -74.5t-10.5 -50.5t-6.5 -37.5t-4.5 -35t-4.5 -41.5t-5.5 -58q-2 -24 4.5 -37.5t29.5 -24.5q18 -8 37 -15t42 -13q26 -6 34 -0.5t13 23.5q11 34 18.5 58t13 42.5t10 35
t10 37t13 47.5t18.5 66q8 23 3 35t-33 28z" />
    <glyph glyph-name="section" unicode="&#xa7;" horiz-adv-x="904" 
d="M-56 175q-20 -11 -18 -30q1 -15 46 -55q82 -74 159 -104t156 -28q50 1 88 11t65.5 25.5t46.5 34.5t31 38q30 -5 63 -3q61 1 105 15.5t74.5 35.5t49.5 45.5t30 45.5q17 30 11.5 56.5t-25.5 50.5t-51 47t-66.5 46t-71 47.5t-63.5 52.5q-23 21 -28.5 48t0.5 55t21.5 55.5
t34.5 51.5t39.5 42.5t37.5 27.5q19 14 27.5 12t9.5 -15.5t-3.5 -34.5t-10.5 -44.5l-12 -47t-8 -40.5q-13 -87 124 -135q24 -10 37.5 -4.5t24.5 26.5q12 23 23.5 53.5t22 64t18.5 66.5t12 61v33t-4 35.5t-14.5 37.5t-30.5 38q-29 29 -74.5 53t-91.5 41q-29 10 -56.5 11
t-52 -3t-44 -12.5t-31.5 -18.5q-38 -22 -73.5 -55t-67.5 -70q-4 2 -8.5 3t-8.5 3q-29 9 -56.5 10.5t-51 -2.5t-42.5 -12.5t-31 -17.5q-35 -22 -69 -54t-62.5 -68.5t-49 -75t-28.5 -72.5q-12 -40 -9.5 -76.5t15 -68.5t34.5 -59.5t50 -48.5q38 -30 87 -60t89.5 -55.5t62.5 -46
t6 -31.5q-28 -21 -90.5 -6.5t-147.5 65.5q-15 9 -34 14.5t-39 7t-40 -1.5t-37 -10zM258 384q-35 31 -51.5 68.5t-18 73t11 64t36.5 42.5q24 18 43 25.5t29 2.5q0 -14 0.5 -35.5t2 -44t4.5 -43t9 -32.5q17 -41 53 -76.5t80 -58.5q36 -25 73.5 -48.5t65 -43.5t39.5 -35.5
t-2 -24.5q-22 -17 -63.5 -12.5t-98.5 30.5q-23 18 -50.5 35t-56 35t-56 37.5t-50.5 40.5z" />
    <glyph glyph-name="dieresis" unicode="&#xa8;" horiz-adv-x="630" 
d="M371 1057q-2 -24 4.5 -43t19.5 -32t31 -20t38 -6q20 0 36 7.5t27.5 18.5t19 23.5t10.5 21.5q1 8 2.5 14.5t2.5 15.5q1 24 -15 48t-51 37q-27 8 -49 3.5t-38.5 -17t-26.5 -31.5t-11 -40zM60 1057q-1 -23 7 -41.5t21.5 -32t31.5 -20t38 -5.5q20 0 35.5 7.5t27 18.5t17.5 23
t8 21q6 13 6 29q0 26 -17 49.5t-55 36.5q-26 9 -48 4.5t-37.5 -17t-24.5 -32t-10 -41.5z" />
    <glyph glyph-name="copyright" unicode="&#xa9;" horiz-adv-x="1249" 
d="M1238 750q-36 59 -101 109.5t-141 88t-155 59t-144 21.5q-115 0 -224 -43.5t-201 -115.5t-161 -165.5t-104 -194t-30.5 -200t59.5 -183.5q26 -42 63 -73t94 -53q80 -31 177 -42.5t199.5 -5t204.5 31t192.5 66t163.5 100t117 133.5q31 54 48.5 118.5t18 128t-17.5 121.5
t-58 99zM1132 363q-26 -35 -55 -70.5t-62.5 -67.5t-71.5 -59.5t-80 -46.5q-62 -28 -118.5 -47.5t-118 -27t-134 -1.5t-165.5 30q-87 21 -131.5 70t-54.5 114.5t10.5 141t63.5 149.5t104.5 141t132.5 115.5t148 72.5t151 11q61 -10 120.5 -39.5t111 -72t91.5 -94t62 -106.5
t22.5 -110t-26.5 -103zM765 287q-35 11 -63.5 4t-49.5 -29q-60 -65 -91 -54q-15 4 -23 25t-9.5 52t3 68t14.5 74q10 35 27.5 75.5t37.5 74.5t39.5 55t33.5 17q15 -6 18.5 -25t3.5 -42q0 -8 0.5 -14t0.5 -13q7 -37 28 -57.5t68 -30.5q25 -5 31.5 1.5t11.5 19.5q8 26 12 64.5
t3 70.5q-2 29 -12 51t-39 45q-28 19 -70 34.5t-83 19.5q-28 2 -59.5 -5.5t-61.5 -33.5q-56 -48 -94.5 -119.5t-57.5 -148.5t-15.5 -149t31.5 -120q11 -22 31 -38t40 -24q23 -8 51 -17t63 -11q35 -3 68.5 5.5t56.5 22.5q20 16 40 38.5t34 50.5q12 23 11 39t-30 24z" />
    <glyph glyph-name="ordfeminine" unicode="&#xaa;" horiz-adv-x="411" 
d="M315 564q17 57 31.5 109t27.5 91q6 17 3 26t-20 20q-10 6 -26 14.5t-33.5 17t-33 15.5t-24.5 10q-20 6 -30 4.5t-26 -14.5q-29 -26 -64 -63.5t-69 -78t-63.5 -80.5t-48.5 -72q-10 -15 -9.5 -27.5t8.5 -25.5q13 -16 28 -31t29 -27q14 -13 26 -13.5t26 1.5q27 5 55.5 8
t57.5 6q-8 -32 -12.5 -55.5t-6.5 -40.5q-3 -18 1 -27t18 -19q14 -8 29.5 -13.5t27.5 -8.5q18 -5 24 -1t10 16q6 33 16 73.5t22 87.5q31 1 60 3q17 1 21 6t2 19q-5 12 -8 22.5t-9 23.5q-12 24 -40 24zM58 549q37 43 81 94t92 92q-13 -42 -24 -86.5t-23 -89.5
q-33 -2 -65.5 -4.5t-60.5 -5.5z" />
    <glyph glyph-name="guillemotleft" unicode="&#xab;" horiz-adv-x="936" 
d="M-40 392q-5 -25 4 -34.5t29 -18.5q43 -19 90 -38.5t93 -36.5t87.5 -31.5t74.5 -24.5q17 -5 30 -2t17 18q3 19 2 42t-5 40q-4 10 -7.5 16.5t-8 11t-11.5 8t-19 6.5q-76 25 -152 56q68 20 132.5 42t109.5 42q14 7 21 17t-6 27q-19 20 -38.5 39.5t-38.5 33.5
q-20 14 -32.5 15.5t-30.5 -8.5q-63 -28 -127.5 -51t-147.5 -46q-22 -8 -31.5 -17t-17.5 -29q-6 -17 -10 -36t-7 -41zM439 368q-6 -24 1.5 -33.5t26.5 -18.5q42 -19 88 -38.5t90 -36.5t84.5 -31.5t71.5 -23.5q18 -5 30.5 -2t17.5 18q5 18 6 41.5t-1 39.5q-4 10 -7 16.5
t-7.5 11t-11 8t-18.5 6.5q-36 12 -72.5 25.5t-74.5 29.5q70 20 135.5 41.5t112.5 41.5q16 8 23.5 17.5t-5.5 26.5q-17 21 -34.5 40t-35.5 33q-20 14 -31.5 15.5t-31.5 -8.5q-64 -28 -130 -50.5t-150 -46.5q-24 -8 -34.5 -16.5t-18.5 -28.5q-7 -17 -13 -36t-11 -41z" />
    <glyph glyph-name="logicalnot" unicode="&#xac;" horiz-adv-x="1423" 
d="M1308 176q22 8 41 16.5t34 16.5q33 18 54.5 40t12.5 48q-5 24 -21 41.5t-40 32.5q-26 17 -75 22t-106 1t-114.5 -14.5t-99.5 -23.5q-5 -34 -14 -73t-19.5 -78t-20.5 -75.5t-16 -65.5q-6 -18 0.5 -25.5t22.5 -19.5q19 -11 34.5 -18.5t38.5 -13.5q22 -9 38 -9.5t46 4.5
q25 4 54.5 11t59 15.5t56 18.5t46.5 22q27 14 41 29.5t9 37.5q-1 17 -19 33.5t-43 26.5zM1029 808q4 13 0.5 20t-23.5 16q-20 10 -43.5 17t-45.5 12q-23 4 -34.5 2t-17.5 -19q-18 -43 -35 -97t-35 -110q-29 -2 -59 -4t-65 -4q17 47 30 87.5t27 69.5q3 14 -1 21t-24 16
q-23 10 -48 17.5t-48 12.5q-24 5 -35.5 2.5t-15.5 -19.5q-11 -43 -21.5 -95.5t-22 -105.5t-23.5 -103.5t-25 -88.5q-5 -15 2.5 -23t24.5 -14q16 -7 37 -11t39 -7q21 -4 28 -1.5t9 12.5q10 27 17 61.5t21 72.5q32 4 64 6.5t64 6.5q-10 -32 -15.5 -58t-7.5 -47
q-8 -20 10.5 -30t50.5 -17q16 -3 29.5 -5.5t24 -3t16.5 2.5t6 11q13 47 31.5 100t38.5 106t39.5 102.5t35.5 88.5zM754 78q4 -20 7 -36.5t5 -31.5q5 -14 12 -19.5t24 -8.5q18 -5 34 -5.5t36 -0.5q18 0 23 3.5t6 12.5q-3 42 -6 89.5t-4 94t0 88.5t4 73q0 14 -6.5 21t-29.5 12
q-29 5 -63.5 10.5t-88.5 7.5q-33 2 -49.5 -5.5t-26.5 -18.5q-29 -33 -62.5 -76.5t-65 -88.5t-59.5 -88.5t-46 -76.5q-8 -21 -0.5 -27t23.5 -14q14 -4 25 -7t20 -6q18 -4 25 -2.5t13 10.5q11 16 21.5 32.5t27.5 35.5q42 8 95.5 12.5t105.5 9.5zM1093 834l-108 -354
q-4 -15 2 -26t17 -19q14 -11 27 -17t24 -13q11 -5 27 -8t50 3q47 5 99.5 12.5t102.5 14.5q21 3 26 7.5t-1 15.5l-8 20t-12 21q-8 10 -20 13.5t-36 1.5q-37 -2 -71 -4t-70 -7q8 16 14.5 31.5t15.5 32.5q45 8 93 13.5t95 10.5q22 4 28 7.5t0 16.5q-4 11 -8.5 21.5t-12.5 21.5
q-8 10 -20 13.5t-34 2.5q-26 0 -48 -1t-45 -4q14 28 26 53.5t26 48.5q52 6 100 9.5t93 7.5q21 2 27 6t3 18q-1 11 -5 21t-11 23q-12 22 -53 22q-44 -2 -89.5 -5.5t-88.5 -8.5t-82.5 -10.5t-72.5 -11.5zM485 789q23 2 26 6t0 15q-8 14 -18.5 27.5t-24.5 24.5q-10 7 -21 10
t-34 3q-43 -2 -97.5 -4.5t-111.5 -6.5t-112 -9t-99 -11q-13 -2 -17 -6t3 -16q11 -11 24 -27.5t30 -27.5q16 -11 27.5 -13.5t31.5 2.5q13 2 33 4t41 4q-9 -36 -17.5 -78.5t-16 -84.5t-12.5 -80.5t-6 -65.5q-5 -22 16 -32t51 -17q34 -7 55.5 -10t23.5 14q8 41 19 87.5
t23.5 94.5t26 96t26.5 92q34 2 68 4.5t62 4.5zM352 6q22 3 23.5 6t-2.5 14l-12 18t-14 17q-14 9 -23.5 12t-29.5 2q-34 -2 -64 -4t-64 -5q9 32 19.5 67.5t21.5 70t22.5 67t23.5 59.5q5 11 -0.5 17t-23.5 14q-20 8 -45.5 14t-48.5 10q-20 5 -30.5 2t-16.5 -16
q-12 -33 -24 -77t-22 -89t-17 -86.5t-9 -69.5q-1 -12 6 -20.5t20 -16.5q18 -9 28.5 -14.5t24.5 -11.5q10 -5 24 -7.5t46 2.5q44 6 91.5 12.5t95.5 12.5zM424 232q19 14 41 40.5t34 49.5q3 12 3 17q0 7 -12 18q-10 6 -21.5 12t-25.5 11q-18 8 -28.5 6.5t-17.5 -11.5
q-9 -14 -21.5 -33t-26 -38t-25.5 -36t-20 -29q-10 -17 21 -21q14 -1 27.5 -2t24.5 1q14 0 25 3.5t22 11.5zM1122 209q11 24 20 45t21 41q61 17 102 18t47 -10q3 -8 -9 -19.5t-37 -25t-61.5 -26.5t-82.5 -23zM616 144q35 45 66 85t60 73q0 -36 1 -73t6 -75q-35 -2 -68 -4
t-65 -6zM1086 131q60 14 96 10t41 -14q4 -17 -42.5 -37.5t-126.5 -33.5q10 19 17 37t15 38z" />
    <glyph glyph-name="registered" unicode="&#xae;" horiz-adv-x="1249" 
d="M1238 750q-36 59 -101 109.5t-141 88t-155 59t-144 21.5q-115 0 -224 -43.5t-201 -115.5t-161 -165.5t-104 -194t-30.5 -200t59.5 -183.5q26 -42 63 -73t94 -53q80 -31 177 -42.5t199.5 -5t204.5 31t192.5 66t163.5 100t117 133.5q31 54 48.5 118.5t18 128t-17.5 121.5
t-58 99zM1132 363q-26 -35 -55 -70.5t-62.5 -67.5t-71.5 -59.5t-80 -46.5q-62 -28 -118.5 -47.5t-118 -27t-134 -1.5t-165.5 30q-87 21 -131.5 70t-54.5 114.5t10.5 141t63.5 149.5t104.5 141t132.5 115.5t148 72.5t151 11q61 -10 120.5 -39.5t111 -72t91.5 -94t62 -106.5
t22.5 -110t-26.5 -103zM551 333q19 -24 43 -48t48 -45.5t46 -40t39 -30.5q26 -16 45.5 -18t36.5 3q14 2 22.5 3.5t21.5 12.5q10 9 12.5 16t-11.5 20q-20 16 -41 36t-42.5 42t-41.5 44t-38 42q81 37 140 79.5t85 93.5q16 30 4 79q-11 45 -31.5 76t-46.5 58q-32 31 -74 37.5
t-88.5 -1.5t-95 -27t-93.5 -40q-13 -7 -24 -41t-21 -83t-18 -107.5t-15 -112.5t-11.5 -98.5t-7.5 -65.5q-2 -21 3.5 -32.5t19.5 -19.5t29 -11t34 -9q18 -4 24.5 0t9.5 16q10 42 19 83.5t18 88.5zM631 630q59 25 100 25q20 0 33.5 -5.5t16.5 -15.5q6 -13 -5.5 -35t-37.5 -47
t-65.5 -49.5t-90.5 -41.5q14 48 26 90.5t23 78.5z" />
    <glyph glyph-name="macron" unicode="&#xaf;" horiz-adv-x="592" 
d="M36 1154q-51 -11 -15 -76q8 -14 12 -17.5t7.5 -5t9.5 -5t18 -17.5q23 -29 43 -37.5t43 -1.5q85 24 184 35.5t195 19.5q28 2 35.5 11.5t-3.5 40.5q-5 13 -6.5 16t-2.5 4.5t-3.5 6t-11.5 19.5q-31 53 -81 53q-55 0 -114.5 -4t-116 -10.5t-107 -14.5t-86.5 -17z" />
    <glyph glyph-name="degree" unicode="&#xb0;" horiz-adv-x="373" 
d="M285 849q-20 8 -47.5 14.5t-59.5 9.5q-23 2 -50 -2.5t-46 -13.5q-44 -22 -73.5 -53t-43 -65t-11 -66.5t23.5 -57.5q8 -11 23 -19.5t30 -13.5q20 -8 44 -10.5t47 -3.5q35 -3 61 1t50 15q34 19 57 46.5t35 57.5t14 60t-6 55q-5 14 -15.5 25t-32.5 21zM196 817
q12 -2 17.5 -14t6 -28.5t-3.5 -36t-11 -35.5q-9 -21 -21 -38.5t-25.5 -29.5t-27.5 -17.5t-26 -2.5q-13 2 -19.5 13t-7.5 26.5t3 33.5t12 35q8 16 21 33.5t27.5 31.5t29 22.5t25.5 6.5z" />
    <glyph glyph-name="plusminus" unicode="&#xb1;" horiz-adv-x="732" 
d="M587 462q23 0 30 7.5t-1 27.5q-7 17 -13 34.5t-19 37.5q-19 34 -65 36q-52 2 -130 0q6 25 14.5 47t15.5 43q10 22 7 35t-23 31q-16 18 -43 34t-53 27q-21 8 -35.5 -1.5t-21.5 -28.5q-15 -38 -28.5 -89t-27.5 -109q-66 -4 -124.5 -10.5t-102.5 -14.5q-9 -2 -17.5 -5
t-14 -8t-7 -12.5t3.5 -17.5q9 -20 26.5 -46t34.5 -42q19 -17 31.5 -21t36.5 1q24 4 50 8t53 6q-5 -31 -7 -57t-5 -46q-1 -35 33 -54q22 -13 39.5 -20.5t36.5 -16.5q23 -9 30.5 -5.5t12.5 23.5q8 40 18.5 90t24.5 105q62 6 121.5 7.5t118.5 3.5zM565 82q22 0 28.5 6.5
t-1.5 23.5q-7 16 -12.5 31t-17.5 33q-20 31 -61 31q-70 -1 -117 -2t-82.5 -3t-65 -5.5t-62.5 -8.5t-75 -12t-104 -16q-17 -2 -29.5 -11t-4.5 -26q10 -18 26 -40.5t32 -36.5q17 -15 29 -18.5t35 0.5q65 11 104.5 19t67.5 13.5t51 9.5t55 6.5t79.5 3.5t124.5 2z" />
    <glyph glyph-name="twosuperior" unicode="&#xb2;" horiz-adv-x="355" 
d="M105 401q30 22 60.5 48.5t57.5 55t49.5 57.5t37.5 55q13 22 23 43t13.5 41.5t-0.5 41.5t-18 44q-11 15 -28.5 31t-40.5 28t-50.5 18t-57.5 0q-52 -10 -96.5 -44.5t-73.5 -85.5q-17 -32 -14 -45t20 -20q28 -9 61 -8.5t58 18.5q16 16 32 30.5t30.5 24.5t26.5 13t20 -3
q8 -5 -0.5 -25.5t-29.5 -50t-52 -65.5t-66.5 -73t-73 -71.5t-72.5 -61.5q-16 -13 -12 -25.5t13 -23.5q11 -13 26.5 -28t27.5 -23q4 -4 8.5 -6.5t11 -4t16 -1t23.5 3.5q19 4 47.5 8.5t60 9t62.5 7.5t55 4q14 3 19 7t0 16q-4 11 -11 24t-16 23q-15 23 -42 22q-21 -1 -50 -3
t-55 -6z" />
    <glyph glyph-name="threesuperior" unicode="&#xb3;" horiz-adv-x="363" 
d="M201 571q30 14 54.5 28t42.5 31q15 13 25 33t11.5 44t-7 51t-30.5 54q-22 25 -43.5 37.5t-42 17t-40 3t-35.5 -4.5q-23 -5 -44 -14.5t-39.5 -22t-34 -26.5t-26.5 -27q-8 -12 -6 -21.5t13 -19.5q10 -9 26.5 -15t33.5 -8t34 1t29 12q18 11 38 21.5t35 10.5q10 0 15 -8
q7 -9 -0.5 -24t-32 -33t-66.5 -38.5t-103 -40.5q-26 -8 -10 -36q20 -31 48.5 -47t57.5 -11q23 3 37 1.5t26 -12.5q6 -5 9.5 -14t3 -21t-6 -25.5t-17.5 -26.5q-26 -26 -60.5 -29.5t-89.5 24.5q-20 10 -44.5 11.5t-44.5 -9.5q-5 -4 -8.5 -8.5t-2 -10.5t8 -14.5t20.5 -19.5
q45 -39 89 -53.5t85 -14.5q52 0 95.5 16t76.5 58q15 19 22.5 41t6 44.5t-14 45t-36.5 43.5q-13 11 -27 16.5t-31 10.5z" />
    <glyph glyph-name="acute" unicode="&#xb4;" horiz-adv-x="592" 
d="M573 1152q-3 30 -11 49.5t-28 29.5q-37 20 -60.5 20.5t-41.5 -13.5q-33 -26 -71.5 -50.5t-80 -47t-84 -43.5t-82.5 -40q-17 -11 -18.5 -22.5t3 -21t11.5 -15t6 -4.5q32 -17 56 -22.5t45 3.5q48 17 98.5 39t98 46t89 48t70.5 44z" />
    <glyph glyph-name="mu" unicode="&#xb5;" horiz-adv-x="762" 
d="M313 -16q45 -3 80 3.5t70 23.5q50 28 90.5 90t75.5 154t66 211.5t62 262.5q7 26 3 40t-32 32q-27 16 -59 32.5t-60.5 24t-48.5 1.5t-23 -36q-12 -62 -28 -141t-35 -160.5t-41 -158.5t-46 -135.5t-50 -91.5t-53 -26q-17 5 -26 24.5t-10.5 50t3 69.5t13.5 83q7 38 20 89
t27 101.5t26.5 94t19.5 65.5q20 61 -35 100q-52 38 -110 56q-32 11 -47.5 5t-23.5 -35q-22 -74 -42.5 -157.5t-38.5 -171t-33 -175.5t-26 -171.5t-18.5 -159.5t-10.5 -138q-2 -24 5.5 -37t29.5 -24q21 -10 44 -16t48 -12q26 -6 33.5 -1.5t11.5 19.5q8 48 20 110t26 131
q26 -11 56.5 -17.5t66.5 -8.5z" />
    <glyph glyph-name="paragraph" unicode="&#xb6;" horiz-adv-x="708" 
d="M115 155q-5 -56 -10 -107.5t-15 -102.5q1 -15 8 -20t35 0q27 7 53.5 13.5t48.5 16.5t36.5 25.5t17.5 41.5q0 6 10.5 46t26.5 98t34.5 126.5t36 130.5t30.5 110t17 66q24 8 38 -3.5t19 -36.5q-3 -21 -15.5 -71t-30 -114.5t-37 -135.5t-37 -134t-30.5 -110.5t-17 -63.5
q0 -15 7 -20t34 0q28 7 55 13.5t49 16.5t36.5 25.5t18.5 40.5q2 18 10.5 54t21.5 84t28 103t30 110.5t28.5 107t22.5 92.5t12 66.5t-3 29.5q-31 20 -69 40.5t-80.5 37.5t-87.5 28.5t-89.5 12.5t-87.5 -10t-81 -39q-48 -37 -91 -79t-80 -104q-19 -30 -24.5 -56t-2.5 -49.5
t13 -45t23 -41.5q17 -26 42.5 -50.5t57.5 -47.5q-7 -15 -8 -37.5t-4 -57.5z" />
    <glyph glyph-name="periodcentered" unicode="&#xb7;" horiz-adv-x="331" 
d="M49 453q-2 -26 6.5 -47t24.5 -35.5t38 -22t47 -5.5q24 0 43 8t32.5 20t22.5 25.5t12 23.5q2 8 3 15.5t2 17.5q0 27 -19.5 53.5t-62.5 40.5q-33 9 -60 4.5t-46.5 -18.5t-30.5 -35t-12 -45z" />
    <glyph glyph-name="periodcentered" unicode="&#x2219;" horiz-adv-x="331" 
d="M49 453q-2 -26 6.5 -47t24.5 -35.5t38 -22t47 -5.5q24 0 43 8t32.5 20t22.5 25.5t12 23.5q2 8 3 15.5t2 17.5q0 27 -19.5 53.5t-62.5 40.5q-33 9 -60 4.5t-46.5 -18.5t-30.5 -35t-12 -45z" />
    <glyph glyph-name="cedilla" unicode="&#xb8;" horiz-adv-x="301" 
d="M83 -172q12 12 27 31t29.5 41t27 44.5t20.5 41.5q8 27 8 33q1 11 -16 32q-12 11 -27 22t-34 21q-43 25 -58 -10q-12 -26 -29 -59.5t-34.5 -67t-34 -64.5t-27.5 -52q-18 -28 25 -36q17 -2 33.5 -3.5t32.5 0.5q34 2 57 26z" />
    <glyph glyph-name="onesuperior" unicode="&#xb9;" horiz-adv-x="226" 
d="M215 768q6 17 1.5 25.5t-20.5 19.5q-9 6 -21.5 12l-25 12t-25 11t-21.5 8q-18 5 -26.5 2t-20.5 -18q-11 -17 -26 -39t-25 -43q-8 -18 -2 -25.5t30 -20.5q-9 -42 -18 -91t-16 -96t-12 -87t-6 -64q-2 -19 2 -28.5t15 -17.5q15 -8 40 -15.5t42 -11.5q15 -5 21 -1.5t8 14.5
q7 43 19.5 103t27.5 124t30.5 124t28.5 103z" />
    <glyph glyph-name="ordmasculine" unicode="&#xba;" horiz-adv-x="1203" 
d="M379 327q-13 51 -26.5 106.5t-25.5 108t-21.5 97.5t-15.5 74q-8 38 -21.5 57.5t-44.5 32.5q-39 18 -75 29t-73 22q-31 8 -48.5 0.5t-24.5 -37.5q-9 -52 -17.5 -119t-16.5 -139t-14.5 -144.5t-11.5 -136t-8 -113.5t-3 -77q-2 -26 6 -40.5t31 -25.5q23 -14 48 -20.5
t50 -12.5q26 -7 35 -2.5t11 21.5q4 36 10.5 84.5t15 105t17.5 118.5l18 124q15 -52 32 -103.5t33.5 -99t33 -88.5t31.5 -72q19 -43 65 -60q48 -17 94 -26q54 -12 59 26l32.5 162.5t39.5 189.5t42 191t41 168q7 26 3 44.5t-34 36.5q-18 11 -31 18t-25 12t-24 8t-27 7
q-32 8 -48 1t-23 -36q-25 -107 -49.5 -234t-39.5 -258zM1083 640q-19 8 -45.5 13.5t-56.5 8.5q-23 2 -49.5 -2.5t-45.5 -12.5q-44 -20 -74.5 -49.5t-46 -61t-14.5 -62.5t19 -54q7 -11 21.5 -18.5t28.5 -12.5q19 -7 42 -9.5t45 -3.5q33 -2 59 1.5t50 14.5q34 18 58 43.5
t37.5 53.5t17 56t-2.5 51q-5 14 -14 24.5t-29 19.5zM663 277q-47 -9 -16 -58q6 -11 6.5 -14.5t1 -5t3 -5t12.5 -13.5q19 -22 46 -28.5t47 -0.5q75 18 163 27t171 14q25 2 32 9.5t-1 30.5q-5 9 -7 12t-4 5t-5 5.5t-9 15.5q-26 41 -68 41q-48 0 -100 -3t-101.5 -8t-94 -11.5
t-76.5 -12.5zM986 587q8 -2 11.5 -10t3 -19t-4 -24t-9.5 -24q-14 -28 -34.5 -46t-37.5 -13q-9 1 -13 9t-4 18q0 11 3.5 23t10.5 23q6 11 15.5 22.5t20 20.5t20.5 15t18 5z" />
    <glyph glyph-name="guillemotright" unicode="&#xbb;" horiz-adv-x="936" 
d="M448 420q7 25 -1 34.5t-28 19.5q-44 21 -92 41.5t-96 39.5t-92.5 35t-79.5 27q-19 6 -32.5 2.5t-15.5 -20.5q-2 -21 0.5 -47t7.5 -43q5 -11 8.5 -17.5t8.5 -11.5t12.5 -8.5t19.5 -6.5q39 -14 77.5 -27.5t77.5 -30.5q-68 -19 -130.5 -40.5t-105.5 -40.5
q-14 -7 -19.5 -16.5t8.5 -25.5q20 -18 39 -35.5t37 -29.5q20 -13 31.5 -14t28.5 8q59 25 120.5 45t141.5 43q11 4 19 7.5t13.5 8t9.5 11t9 16.5q14 33 23 76zM929 396q8 25 1 34.5t-26 19.5q-42 20 -89 41t-93.5 39.5t-89 34.5t-75.5 27q-20 6 -33.5 2.5t-16.5 -20.5
q-5 -21 -4 -47t4 -43q8 -21 15.5 -29t31.5 -15q37 -13 74 -26.5t75 -29.5q-69 -20 -133 -41t-109 -40q-14 -7 -21 -16.5t7 -24.5q17 -19 35.5 -36t35.5 -29q19 -13 30 -14t29 7q60 25 123 45.5t145 42.5q23 8 33.5 15.5t19.5 26.5q8 16 16 35t15 41z" />
    <glyph glyph-name="onequarter" unicode="&#xbc;" horiz-adv-x="804" 
d="M768 780q-6 11 -8.5 13.5t-4.5 2.5q-1 0 -4 1.5t-12 11.5q-32 43 -81 3q-43 -34 -104 -89t-130 -120.5t-140.5 -135.5t-135 -134t-113.5 -115t-76 -79q-20 -20 -23 -37q-1 -8 0.5 -16t10.5 -16q5 -6 5.5 -4.5t0.5 3.5t2 2t11 -7q17 -14 29.5 -13.5t28.5 17.5
q35 33 91 83.5t123 110t139.5 124t141 124t127.5 110.5t100 84q23 19 29.5 34t-7.5 42zM706 216q17 51 33 97t30 81q5 14 2.5 22t-18.5 19q-9 5 -24 12.5t-31 15t-30.5 13.5t-22.5 9q-19 5 -28.5 3.5t-24.5 -12.5q-28 -23 -62 -56t-67.5 -69t-63 -72t-48.5 -64
q-9 -14 -9 -25t7 -23q11 -14 24.5 -27t27.5 -24q13 -12 24 -12.5t25 1.5q26 4 52 7t54 6q-8 -29 -13 -50t-7 -36q-4 -17 -0.5 -25t17.5 -17q13 -7 27.5 -11.5t25.5 -7.5q17 -4 22 -1t10 14q7 30 17.5 66t23.5 78q15 1 29 1.5t28 1.5q15 1 19.5 5.5t2.5 16.5q-4 11 -7 20.5
t-8 21.5q-10 21 -37 21zM144 777q5 17 0 25.5t-22 19.5q-9 6 -22 12.5t-26 12.5t-25.5 10.5t-21.5 7.5q-19 5 -27 2t-19 -18q-11 -17 -25 -39t-22 -43q-8 -18 -1.5 -26t31.5 -21q-8 -42 -14 -91t-11 -96t-7.5 -87t-2.5 -64q-2 -19 2.5 -28.5t16.5 -17.5q16 -8 41.5 -15.5
l42.5 -12.5q15 -4 20.5 -1t7.5 15q5 43 14.5 103.5t21.5 124t24.5 124t23.5 103.5zM463 202q36 38 79.5 83.5t90.5 82.5q-14 -38 -26 -77.5t-24 -79.5q-32 -2 -63 -4t-57 -5z" />
    <glyph glyph-name="onehalf" unicode="&#xbd;" horiz-adv-x="844" 
d="M765 780q-6 11 -8.5 13.5t-4.5 2.5q-1 0 -4 1.5t-12 11.5q-32 43 -81 3q-43 -34 -103.5 -89t-129.5 -120.5t-140 -135.5t-134.5 -134t-113.5 -115t-76 -79q-19 -20 -23 -37q-1 -8 1 -16t11 -16q5 -6 5.5 -4.5t0.5 3.5t2 2t11 -7q17 -14 29.5 -13.5t28.5 17.5
q35 33 90.5 83.5t122 110t139 124t141 124t127.5 110.5t100 84q22 19 28.5 34t-7.5 42zM580 78q29 20 58.5 44t56.5 49.5t49.5 51t37.5 48.5q13 20 23 38.5t13.5 37t0.5 37.5t-15 39q-9 14 -25 28.5t-37.5 25t-47 15t-54.5 -0.5q-50 -8 -92.5 -39t-72.5 -76
q-17 -29 -14.5 -40.5t17.5 -17.5q26 -8 57 -8q32 0 56 17q15 14 31 27t30 22t25.5 12t18.5 -3q8 -5 -1 -23t-30 -44.5t-51.5 -59t-65 -65t-71.5 -63.5t-71 -55q-16 -11 -12.5 -22.5t11.5 -21.5q9 -11 23.5 -24.5t25.5 -21.5q8 -8 18 -10.5t37 2.5q18 4 45.5 8t57.5 8t59.5 7
t52.5 4q14 2 18.5 6t0.5 15q-4 9 -10 21t-14 21q-13 20 -39 19q-20 -1 -47 -2.5t-53 -5.5zM141 777q5 17 0 25.5t-22 19.5q-9 6 -22 12.5t-26 12.5t-25.5 10.5t-21.5 7.5q-19 5 -27.5 2t-19.5 -18q-10 -17 -24 -39t-22 -43q-8 -18 -1 -25.5t31 -21.5q-7 -42 -13.5 -91
t-11 -96t-7 -87t-2.5 -64q-1 -19 3.5 -28.5t15.5 -17.5q8 -4 19 -8t23 -7.5t23 -7t20 -5.5q15 -4 20 -1t7 15q5 43 14.5 103.5t21 124t24 124t23.5 103.5z" />
    <glyph glyph-name="threequarters" unicode="&#xbe;" horiz-adv-x="948" 
d="M192 608q30 14 54 28.5t41 31.5q15 13 24 33.5t9.5 44.5t-9.5 51t-34 55q-23 25 -45.5 38t-43.5 17.5t-40.5 3t-35.5 -4.5q-45 -11 -82 -37.5t-58 -54.5q-14 -21 9 -41q11 -9 27.5 -15t34.5 -8t34.5 1t27.5 12q17 11 37 21.5t36 10.5q9 0 15 -8q8 -9 1 -24t-31 -33.5
t-65.5 -39t-101.5 -40.5q-14 -5 -15 -14t7 -23q23 -32 51.5 -47.5t58.5 -10.5q23 2 37 1t27 -12t14.5 -36.5t-21.5 -52.5q-25 -26 -60 -29.5t-91 25.5q-20 9 -44.5 11t-44.5 -10q-11 -7 -10.5 -19t30.5 -35q47 -39 92 -53.5t86 -14.5q53 0 96 16t74 59q29 38 24.5 86
t-55.5 90q-13 11 -28 16.5t-32 10.5zM922 780q-6 11 -8.5 13.5t-4.5 2.5q-1 0 -4 1.5t-11 11.5q-32 43 -81 3q-43 -34 -105 -89t-132 -120.5t-142.5 -135.5t-136.5 -134l-115 -115t-77 -79q-21 -21 -24 -37q-1 -8 0.5 -16t10.5 -16q5 -6 5.5 -4.5t0.5 3.5t2 2t11 -7
q17 -14 29.5 -13.5t28.5 17.5q35 33 91.5 83.5t124 110t141 124t143 124t129.5 110.5t101 84q23 19 30 34t-7 42zM853 216q18 51 34.5 97t30.5 81q6 14 3 22t-18 19q-9 5 -24 12.5t-31 15t-30.5 13.5t-22.5 9q-19 5 -28 3.5t-25 -12.5q-29 -23 -63 -56t-68 -69t-64 -72
t-49 -64q-10 -14 -10 -25t7 -23q11 -14 24.5 -27t27.5 -24q13 -12 23.5 -12.5t24.5 1.5q26 4 52.5 7t54.5 6q-8 -29 -14 -50t-8 -36q-4 -17 -0.5 -25t17.5 -17q13 -7 27 -11.5t25 -7.5q17 -4 22.5 -1t10.5 14q8 30 18.5 66t24.5 78q15 1 29 1.5t28 1.5q15 1 19.5 5.5
t2.5 16.5q-4 11 -6.5 20.5t-7.5 21.5q-10 21 -37 21zM610 202q36 38 80 83.5t91 82.5q-14 -38 -26 -77.5t-26 -79.5l-62 -4t-57 -5z" />
    <glyph glyph-name="questiondown" unicode="&#xbf;" horiz-adv-x="679" 
d="M480 594q-21 11 -47.5 22t-49 16t-37.5 -0.5t-13 -27.5q-7 -45 -24.5 -78t-42 -57.5t-53.5 -43.5t-58 -36.5t-55.5 -35.5t-46.5 -41t-34 -52.5t-15.5 -63.5t14.5 -72t56 -78q18 -19 44 -36t58.5 -28.5t70 -15.5t77.5 3q68 11 128 48.5t109 98.5q17 20 24 34t6.5 23.5
t-8 15.5t-19.5 11q-46 19 -95 16t-84 -29q-23 -17 -44 -33t-42 -29.5t-41.5 -21.5t-41.5 -8q-14 0 -26.5 7t-17.5 24q-2 12 2.5 27t17.5 32t35.5 36t57.5 40q28 17 64.5 39.5t70 53.5t58.5 71.5t32 94.5q4 29 -1 44.5t-29 29.5zM583 758q4 29 -3 51.5t-22 38.5t-37 26
t-47 13q-29 4 -52.5 0t-42 -15t-30.5 -26.5t-17 -33.5q-1 -4 -1 -16v-19q0 -15 3.5 -29.5t13 -28t26.5 -25t44 -20.5q34 -11 62.5 -8t50.5 15.5t35.5 32.5t16.5 44z" />
    <glyph glyph-name="Agrave" unicode="&#xc0;" horiz-adv-x="718" 
d="M417 189q3 -41 6 -75.5t7 -63.5q4 -28 13.5 -39t33.5 -18q23 -8 45 -9.5t48 -1.5t33.5 7t7.5 25q-1 86 -0.5 186.5t2.5 200.5t6 192t10 163q3 29 -5.5 47t-39.5 29q-23 6 -45.5 13t-49 13t-58.5 10.5t-73 6.5q-47 4 -71 -13t-39 -44q-42 -75 -88.5 -171.5t-91 -195.5
t-83 -192t-62.5 -162q-6 -21 -5.5 -33.5t5.5 -20.5t14 -13.5t21 -13.5q16 -8 31.5 -14.5t28.5 -11.5q23 -8 34.5 -5t19.5 20q14 32 29 65.5t35 72.5q57 15 131.5 25.5t149.5 20.5zM182 1159q29 -20 70 -44t88 -48t97 -46t98 -39q20 -9 44.5 -3.5t55.5 22.5q0 -1 7 4.5
t12 14.5t4 21t-19 23q-80 38 -164 83.5t-149 98.5q-19 14 -42.5 13t-60.5 -21q-21 -10 -29 -29.5t-12 -49.5zM226 329q47 95 93.5 183.5t86.5 161.5q-2 -80 -1 -161.5t3 -163.5q-46 -3 -91.5 -8t-90.5 -12z" />
    <glyph glyph-name="Aacute" unicode="&#xc1;" horiz-adv-x="718" 
d="M417 189q2 -41 5.5 -75.5t7.5 -63.5q4 -28 13.5 -39t33.5 -18q23 -8 45 -9.5t48 -1.5t33.5 7t7.5 25q-1 86 -0.5 186.5t2.5 200.5t5.5 192t9.5 163q3 29 -5 47t-40 29q-23 6 -45.5 13t-48.5 13t-58 10.5t-73 6.5q-24 2 -41 -1.5t-30 -11.5t-22.5 -19.5t-17.5 -24.5
q-28 -50 -58 -110.5t-60.5 -125t-60.5 -131.5t-56.5 -130t-49.5 -120.5t-39 -103.5q-6 -21 -5.5 -33.5t5.5 -20.5t14 -13.5t21 -13.5q16 -8 31.5 -14.5t28.5 -11.5q23 -8 34.5 -5t19.5 20q13 32 28 65.5t36 72.5q57 15 131.5 25.5t149.5 20.5zM692 1152q-3 30 -10 49.5
t-28 29.5q-35 20 -58.5 20.5t-43.5 -13.5q-33 -26 -72.5 -50.5t-81 -47t-84.5 -43.5t-83 -40q-18 -11 -20.5 -22.5t2.5 -21t11.5 -15t6.5 -4.5q30 -17 54.5 -22.5t45.5 3.5q49 17 100 39t99 46t90 48t72 44zM226 329q46 95 93 183.5t86 161.5q-2 -80 -0.5 -161.5t3.5 -163.5
q-47 -3 -92 -8t-90 -12z" />
    <glyph glyph-name="Acircumflex" unicode="&#xc2;" horiz-adv-x="718" 
d="M417 189q3 -41 6 -75.5t7 -63.5q4 -28 13.5 -39t33.5 -18q23 -8 45 -9.5t48 -1.5t33.5 7t7.5 25q-1 86 -0.5 186.5t2.5 200.5t6 192t10 163q3 29 -5.5 47t-39.5 29q-23 6 -45.5 13t-49 13t-58.5 10.5t-73 6.5q-47 4 -71 -13t-39 -44q-42 -75 -88.5 -171.5t-91 -195.5
t-83 -192t-62.5 -162q-6 -21 -5.5 -33.5t5.5 -20.5t14 -13.5t21 -13.5q16 -8 31.5 -14.5t28.5 -11.5q23 -8 34.5 -5t19.5 20q14 32 29 65.5t35 72.5q57 15 131.5 25.5t149.5 20.5zM628 960q17 -1 22.5 5t1.5 21q-6 26 -13 60t-14.5 71.5t-14.5 77t-11 76.5q-1 12 -2.5 20
t-4.5 14t-7 11.5t-9 12.5q-12 11 -26 21t-28 21q-14 9 -26 8.5t-27 -17.5q-30 -29 -59.5 -63.5t-56 -69t-49 -65.5t-37.5 -53q-17 -24 1 -51q11 -16 21 -26.5t21 -21.5q12 -12 21 -12t17 12q29 35 63 76.5t75 85.5q11 -51 20.5 -95.5t19.5 -74.5q14 -29 41 -35q17 -5 32 -7
t29 -2zM226 329q47 95 93.5 183.5t86.5 161.5q-2 -80 -1 -161.5t3 -163.5q-46 -3 -91.5 -8t-90.5 -12z" />
    <glyph glyph-name="Atilde" unicode="&#xc3;" horiz-adv-x="718" 
d="M416 189q3 -41 6.5 -75.5t7.5 -63.5q4 -28 13.5 -39t33.5 -18q23 -8 45 -9.5t48 -1.5t33.5 7t7.5 25q-2 86 -1.5 186.5t2 200.5t5 192t8.5 163q3 29 -5 47t-40 29q-23 6 -45.5 13t-49 13t-58.5 10.5t-73 6.5q-47 4 -71 -13t-39 -44q-27 -50 -57 -110.5t-60.5 -125
t-60 -131.5t-56 -130t-49 -120.5t-38.5 -103.5q-6 -21 -5.5 -33.5t5.5 -20.5t14 -13.5t21 -13.5q16 -8 31.5 -14.5t28.5 -11.5q23 -8 34.5 -5t19.5 20q13 32 28 65.5t35 72.5q57 15 131.5 25.5t149.5 20.5zM541 985q54 0 120 50q38 26 56 49t20 42q0 19 -22 33
q-20 10 -43 10q-14 0 -26 -5t-26 -15l-13 -13t-19.5 -18t-20 -16t-14.5 -7q-17 1 -33 7.5t-32.5 14t-32 15t-30.5 12.5q-26 10 -50 15t-48 5q-21 0 -51.5 -10.5t-60.5 -26t-54 -33t-33 -32.5q-10 -19 -10 -36q1 -39 57 -39q30 0 52 14q2 0 10.5 7t19.5 15.5t23.5 15.5
t22.5 7q12 0 29.5 -3t35.5 -7.5t34 -10.5t24 -13q36 -27 115 -27zM224 329q47 95 93 183.5t86 161.5q-2 -80 0 -161.5t4 -163.5q-47 -3 -92 -8t-91 -12z" />
    <glyph glyph-name="Adieresis" unicode="&#xc4;" horiz-adv-x="718" 
d="M417 189q2 -41 5.5 -75.5t7.5 -63.5q4 -28 13.5 -39t33.5 -18q23 -8 45 -9.5t48 -1.5t33.5 7t7.5 25q-1 86 -0.5 186.5t2.5 200.5t5.5 192t8.5 163q4 29 -4.5 47t-40.5 29q-23 6 -45.5 13t-48.5 13t-58 10.5t-73 6.5q-47 4 -71 -13t-40 -44q-28 -50 -58 -110.5
t-60.5 -125t-60.5 -131.5t-56.5 -130t-49 -120.5t-38.5 -103.5q-6 -21 -5.5 -33.5t5.5 -20.5t14 -13.5t21 -13.5q16 -8 31.5 -14.5t28.5 -11.5q23 -8 34.5 -5t19.5 20q13 32 28 65.5t36 72.5q57 15 131.5 25.5t149.5 20.5zM225 329q47 95 93.5 183.5t86.5 161.5
q-2 -80 -0.5 -161.5t3.5 -163.5q-47 -3 -92 -8t-91 -12zM505 1064q-2 -24 4.5 -43t19 -32.5t30.5 -20t38 -5.5q19 0 35 7.5t28 18.5t20 23.5t11 21.5q2 8 3.5 14.5t2.5 15.5q2 24 -13.5 48t-50.5 37q-27 9 -49.5 4.5t-39 -17.5t-27 -32t-12.5 -40zM194 1064q-1 -23 6.5 -42
t21 -32t31 -20t37.5 -6q20 0 36 7.5t27 19t18 23.5t9 21q5 12 7 29q0 26 -16.5 49.5t-53.5 36.5q-26 9 -48 4.5t-38 -17t-26 -32t-11 -41.5z" />
    <glyph glyph-name="Aring" unicode="&#xc5;" horiz-adv-x="718" 
d="M417 189q3 -41 6 -75.5t7 -63.5q4 -28 13.5 -39t33.5 -18q23 -8 45 -9.5t48 -1.5t33.5 7t7.5 25q-1 86 -0.5 186.5t2.5 200.5t5.5 192t9.5 163q4 29 -4.5 47t-40.5 29q-23 6 -45.5 13t-48.5 13t-58 10.5t-73 6.5q-47 4 -71 -13t-40 -44q-28 -50 -58 -110.5t-60.5 -125
t-60.5 -131.5t-56.5 -130t-49.5 -120.5t-39 -103.5q-6 -21 -5.5 -33.5t5.5 -20.5t14 -13.5t21 -13.5q16 -8 31.5 -14.5t28.5 -11.5q23 -8 34.5 -5t19.5 20q14 32 28.5 65.5t35.5 72.5q57 15 131.5 25.5t149.5 20.5zM632 1244q-20 9 -49.5 16t-62.5 11q-25 2 -54 -3t-49 -15
q-48 -25 -80 -60t-47.5 -73t-14 -74.5t22.5 -64.5q8 -13 24 -22.5t32 -14.5q21 -8 46.5 -11t48.5 -5q37 -3 65 1.5t54 17.5q37 22 62 52.5t39 64t17 67t-4 61.5q-6 16 -16.5 28.5t-33.5 23.5zM226 329q46 95 93 183.5t87 161.5q-2 -80 -1 -161.5t3 -163.5q-47 -3 -92 -8
t-90 -12zM537 1208q12 -2 17.5 -15.5t5.5 -32.5t-4.5 -40.5t-13.5 -39.5q-10 -24 -23.5 -43.5t-28 -33t-29.5 -20t-28 -2.5q-14 2 -20.5 14.5t-7 30t4.5 38t14 38.5q9 19 23.5 38.5t30 35t31.5 25t28 7.5z" />
    <glyph glyph-name="AE" unicode="&#xc6;" horiz-adv-x="1056" 
d="M739 834q-21 6 -42 13t-46.5 13t-57 10.5t-71.5 6.5q-44 4 -72.5 -13t-48.5 -45q-37 -50 -79 -110.5t-85 -125t-86 -131.5t-82 -130t-72.5 -120.5t-58.5 -103.5q-11 -21 -13 -33.5t1.5 -20.5t11.5 -13.5t18 -13.5q14 -8 29 -14.5t26 -11.5q23 -8 34.5 -5t23.5 20
q19 32 39.5 65.5t49.5 72.5q59 15 136 25t152 20q-5 -33 -10 -55t-9 -37t-6 -25.5t-2 -21.5q-2 -28 14 -38.5t39 -17.5q7 -4 27.5 -5.5t44.5 -1.5q25 0 47.5 1t32.5 3q60 11 126.5 24t131.5 25q26 5 31.5 12.5t1.5 27.5q-7 18 -13 35.5t-17 37.5q-9 18 -25 24t-43 4
q-51 -3 -93.5 -8t-88.5 -13q0 4 1.5 7t1.5 8q8 23 15.5 48.5t15.5 53.5q58 12 120.5 22t124.5 21q28 6 35 14t0 31q-5 20 -10.5 39.5t-17.5 39.5q-9 20 -24.5 26t-44.5 5q-33 -1 -63 -3t-61 -6q19 53 34 101.5t31 93.5q71 10 135.5 17t124.5 14q30 4 38.5 13t5.5 35
q-5 23 -8.5 42.5t-16.5 43.5q-12 46 -69 44q-78 -3 -139 -13.5t-118 -25.5q-1 1 -3 1t-4 2zM283 330q66 95 129.5 183.5t119.5 162.5q-17 -81 -32.5 -162.5t-27.5 -163.5q-48 -3 -94 -8t-95 -12z" />
    <glyph glyph-name="Ccedilla" unicode="&#xc7;" horiz-adv-x="642" 
d="M149 -193q12 12 26 31t28.5 40.5t26.5 44t19 41.5q0 2 0.5 4.5t0.5 4.5q42 0 81.5 10.5t64.5 27.5q28 20 56 50t46 66q17 31 15.5 52t-39.5 31q-95 27 -154 -33q-82 -84 -122 -71q-21 6 -32 34t-13 68.5t4.5 90t19.5 99.5q14 48 38.5 104t52.5 102.5t55 75.5t47 23
q20 -8 24 -34t3 -58q0 -18 3 -39q4 -25 13 -44t24 -33.5t38 -25t55 -16.5q17 -3 27 -2t15.5 5t8.5 11t6 15q6 18 11 40.5t8 47t4.5 49.5t0.5 48q-1 20 -4 37.5t-10.5 33.5t-20 31.5t-31.5 31.5q-20 13 -45 25.5t-53 23t-58 18t-58 10.5q-38 3 -81 -8t-85 -47
q-52 -45 -92.5 -104.5t-69.5 -126.5t-45.5 -137.5t-19.5 -137t7.5 -125t36.5 -101.5q15 -28 42 -49t54 -32q3 -2 7 -3t9 -3l-25 -50t-25.5 -50.5t-23.5 -46t-19 -37.5q-16 -29 26 -36q18 -2 34 -3.5t33 0.5q33 2 55 26z" />
    <glyph glyph-name="Egrave" unicode="&#xc8;" horiz-adv-x="577" 
d="M41 798l-95 -665q-2 -27 7.5 -46t26.5 -33q21 -18 36.5 -29.5t32.5 -22.5q15 -10 35.5 -15.5t60.5 4.5q60 11 126 24t130 25q27 5 32 12.5t0 27.5q-8 18 -14.5 35.5t-18.5 37.5q-11 18 -26.5 24t-43.5 4q-50 -3 -92.5 -8t-89.5 -13q8 28 15 56.5t15 60.5q58 12 120.5 22
t122.5 21q28 6 34.5 14t-1.5 31q-5 20 -11.5 39.5t-18.5 39.5q-11 20 -27 26t-44 5q-34 -1 -64 -3t-60 -6q16 53 29 101.5t28 93.5q71 10 135 17t124 14q29 4 37 13t4 35q-5 23 -10 42.5t-18 43.5q-16 45 -73 44q-60 -2 -120.5 -9.5t-118 -17.5t-110 -22t-95.5 -23z
M105 1152q30 -20 71 -44t88 -48t97.5 -46t98.5 -39q20 -9 44.5 -3.5t55.5 22.5q0 -1 7 4.5t12 15t3.5 21t-19.5 22.5q-80 38 -164.5 83.5t-149.5 97.5q-19 14 -42.5 13.5t-60.5 -20.5q-20 -10 -28 -29.5t-13 -49.5z" />
    <glyph glyph-name="Eacute" unicode="&#xc9;" horiz-adv-x="577" 
d="M41 798l-95 -665q-2 -27 7.5 -46t26.5 -33q21 -18 36.5 -29.5t32.5 -22.5q15 -10 35.5 -15.5t60.5 4.5q60 11 126 24t130 25q27 5 32 12.5t0 27.5q-8 18 -14.5 35.5t-18.5 37.5q-11 18 -26.5 24t-43.5 4q-50 -3 -92.5 -8t-89.5 -13q8 28 15 56.5t15 60.5q58 12 120.5 22
t122.5 21q28 6 34.5 14t-1.5 31q-5 20 -11.5 39.5t-18.5 39.5q-11 20 -27 26t-44 5q-34 -1 -64 -3t-60 -6q16 53 29 101.5t28 93.5q71 10 135 17t124 14q29 4 37 13t4 35q-5 23 -10 42.5t-18 43.5q-16 45 -73 44q-60 -2 -120.5 -9.5t-118 -17.5t-110 -22t-95.5 -23z
M589 1152q-2 30 -9.5 49.5t-27.5 29.5q-37 20 -61 20.5t-41 -13.5q-67 -52 -153 -97.5t-168 -83.5q-18 -11 -19.5 -22.5t3 -21t11.5 -15t6 -4.5q31 -17 55.5 -22.5t45.5 3.5q48 17 99 39t98.5 46t89 48t71.5 44z" />
    <glyph glyph-name="Ecircumflex" unicode="&#xca;" horiz-adv-x="577" 
d="M41 798l-95 -665q-2 -27 7.5 -46t26.5 -33q21 -18 36.5 -29.5t32.5 -22.5q15 -10 35.5 -15.5t60.5 4.5q60 11 126 24t130 25q27 5 32 12.5t0 27.5q-8 18 -14.5 35.5t-18.5 37.5q-11 18 -26.5 24t-43.5 4q-50 -3 -92.5 -8t-89.5 -13q8 28 15 56.5t15 60.5q58 12 120.5 22
t122.5 21q28 6 34.5 14t-1.5 31q-5 20 -11.5 39.5t-18.5 39.5q-11 20 -27 26t-44 5q-34 -1 -64 -3t-60 -6q16 53 29 101.5t28 93.5q71 10 135 17t124 14q29 4 37 13t4 35q-5 23 -10 42.5t-18 43.5q-16 45 -73 44q-60 -2 -120.5 -9.5t-118 -17.5t-110 -22t-95.5 -23zM534 956
q17 -1 22 5t2 21q-6 26 -14 60t-16 71.5t-15 77t-11 75.5q-1 12 -3 20t-5 14t-7 11.5t-9 12.5q-13 11 -27 21t-28 21q-14 9 -26 8.5t-26 -17.5q-29 -29 -58.5 -63.5t-56 -68.5t-48.5 -65.5t-37 -53.5q-17 -23 3 -50q11 -16 20 -26.5t20 -21.5q8 -6 12.5 -9t9.5 -3
q11 0 17 12q29 35 62.5 76.5t74.5 85.5q12 -51 22 -96t20 -74q12 -28 41 -36q17 -5 32 -6.5t29 -1.5z" />
    <glyph glyph-name="Edieresis" unicode="&#xcb;" horiz-adv-x="577" 
d="M41 798l-95 -665q-2 -27 7.5 -46t26.5 -33q21 -18 36.5 -29.5t32.5 -22.5q15 -10 35.5 -15.5t60.5 4.5q60 11 126 24t130 25q27 5 32 12.5t0 27.5q-8 18 -14.5 35.5t-18.5 37.5q-11 18 -26.5 24t-43.5 4q-50 -3 -92.5 -8t-89.5 -13q8 28 15 56.5t15 60.5q58 12 120.5 22
t122.5 21q28 6 34.5 14t-1.5 31q-5 20 -11.5 39.5t-18.5 39.5q-11 20 -27 26t-44 5q-34 -1 -64 -3t-60 -6q16 53 29 101.5t28 93.5q71 10 135 17t124 14q29 4 37 13t4 35q-5 23 -10 42.5t-18 43.5q-16 45 -73 44q-60 -2 -120.5 -9.5t-118 -17.5t-110 -22t-95.5 -23z
M382 1057q-2 -24 4.5 -43t19 -32t30.5 -20t38 -6q20 0 36 7.5t27.5 18.5t19.5 23.5t11 21.5q1 8 2.5 14.5t2.5 15.5q1 24 -14.5 48t-50.5 37q-27 8 -49.5 3.5t-39 -17t-26.5 -31.5t-11 -40zM71 1057q-1 -23 6.5 -41.5t21 -32t31.5 -20t38 -5.5q20 0 35.5 7.5t27 18.5t18 23
t8.5 21l4 14t2 15q0 26 -17 49.5t-54 36.5q-26 9 -48 4.5t-37.5 -17t-25 -32t-10.5 -41.5z" />
    <glyph glyph-name="Igrave" unicode="&#xcc;" horiz-adv-x="312" 
d="M253 794q-27 18 -63 34t-67 24q-32 9 -47 2.5t-24 -35.5q-11 -47 -23.5 -109.5t-24.5 -132.5t-23.5 -143t-20.5 -139t-15 -121.5t-8 -90.5q-3 -26 4.5 -40.5t30.5 -25.5q22 -11 45.5 -18t49.5 -14q26 -6 34.5 -1t13.5 22q9 45 21 102.5t26.5 122t30 132t31.5 132
t31.5 122.5t29.5 103q7 27 1.5 41t-33.5 33zM-84 1182q30 -20 71.5 -44t89 -48t98 -46.5t99.5 -39.5q21 -9 45.5 -3.5t55.5 22.5q-1 -1 6 4.5t12 15t3.5 21t-19.5 23.5q-41 19 -83 40t-83.5 43.5t-80 47.5t-71.5 51q-19 14 -43 13.5t-60 -20.5q-21 -11 -28.5 -30.5
t-11.5 -49.5z" />
    <glyph glyph-name="Iacute" unicode="&#xcd;" horiz-adv-x="312" 
d="M248 794q-27 18 -63 34t-67 24q-32 9 -47 2.5t-24 -35.5q-11 -47 -23 -109.5t-23.5 -132.5t-22.5 -143t-19.5 -139t-14.5 -121.5t-8 -90.5q-2 -26 5.5 -40.5t30.5 -25.5q22 -11 45.5 -18t49.5 -14q26 -6 34.5 -1t13.5 22q9 45 21 102.5t25.5 122t29 132t31 132
t30.5 122.5t29 103q3 13 4 23t-2.5 18t-11.5 16t-23 17zM472 1154q-3 31 -10.5 50.5t-28.5 29.5q-36 20 -59.5 20.5t-42.5 -13.5q-33 -26 -72 -50.5t-80 -47t-83.5 -43.5t-82.5 -40q-18 -11 -20 -23t3 -21t11.5 -14.5t6.5 -4.5q31 -17 55 -22.5t45 3.5q49 17 100 39t98.5 46
t88.5 47.5t71 43.5z" />
    <glyph glyph-name="Icircumflex" unicode="&#xce;" horiz-adv-x="312" 
d="M252 794q-27 18 -63 34t-67 24q-32 9 -47 2.5t-24 -35.5q-11 -47 -23 -109.5t-24.5 -132.5t-23.5 -143t-20 -139t-15 -121.5t-8 -90.5q-3 -26 4.5 -40.5t30.5 -25.5q22 -11 45.5 -18t49.5 -14q26 -6 34.5 -1t13.5 22q9 45 21 102.5t26.5 122t30 132t31.5 132t31.5 122.5
t29.5 103q7 27 1 41t-34 33zM381 950q17 -2 22 4t1 21q-6 26 -14 60t-16.5 71.5t-16 77t-12.5 75.5q-1 12 -3 20t-5 14t-7 11.5t-9 12.5q-12 11 -26.5 21t-28.5 21q-14 9 -26 8.5t-26 -17.5q-29 -29 -58 -63.5t-55.5 -68.5t-48 -65.5t-35.5 -53.5q-16 -22 2 -50
q11 -16 21 -26.5t21 -21.5q7 -6 11.5 -9t10.5 -3q8 0 17 12q27 35 61 76.5t73 85.5q13 -51 23 -95.5t21 -74.5q14 -29 41 -35q17 -5 32 -6.5t30 -1.5z" />
    <glyph glyph-name="Idieresis" unicode="&#xcf;" horiz-adv-x="312" 
d="M250 794q-27 18 -63 34t-67 24q-32 9 -47 2.5t-24 -35.5q-11 -47 -23 -109.5t-23.5 -132.5t-23 -143t-20 -139t-14.5 -121.5t-8 -90.5q-3 -26 4.5 -40.5t30.5 -25.5q22 -11 45.5 -18t49.5 -14q26 -6 34.5 -1t13.5 22q9 45 21 102.5t26 122t29.5 132t31 132t31 122.5
t29.5 103q3 13 4 23t-2.5 18t-11.5 16t-23 17zM-65 1057q-1 -23 7 -41.5t21.5 -32t31.5 -20t38 -5.5q19 0 35 7.5t27 18.5t18 23t9 21q5 11 5 29q0 26 -17 49.5t-53 36.5q-27 9 -49 4.5t-37.5 -17t-25 -32t-10.5 -41.5zM247 1057q-5 -48 23 -75.5t70 -25.5q20 0 35.5 7.5
t27 18.5t19 23.5t10.5 21.5q2 8 3 14.5t2 15.5q1 24 -15 48t-51 37q-27 8 -49 3.5t-38 -17t-26 -31.5t-11 -40z" />
    <glyph glyph-name="Eth" unicode="&#xd0;" horiz-adv-x="901" 
d="M9 495q-76 -8 -42 -52q23 -34 72 -74q25 -19 49.5 -24.5t59.5 -0.5l-20 -187q-3 -25 -1 -41t8 -27t15 -19.5t19 -17.5q26 -20 47 -33.5t49 -27.5q54 -27 107 -9q101 28 180.5 75t137.5 106t94.5 126t52 134.5t9.5 131.5t-33 118q-33 68 -80.5 109t-103.5 61.5t-116.5 23
t-118.5 -7t-110 -28t-90 -39.5l-30 -285q-37 -2 -74 -5t-81 -7zM320 139q11 57 22.5 112.5t24.5 112.5q25 1 56 1.5t75 2.5q37 1 50.5 8t4.5 27q-8 16 -15.5 35t-24.5 39q-26 36 -98 36h-13q8 36 18 71t20 71q33 10 60.5 10.5t50 -6.5t38 -20.5t24.5 -30.5q8 -17 11.5 -40
t1.5 -55q-3 -44 -22 -95t-55.5 -102t-93 -97.5t-135.5 -79.5z" />
    <glyph glyph-name="Ntilde" unicode="&#xd1;" horiz-adv-x="702" 
d="M392 327q-11 51 -22 106.5t-21 108t-18 97.5t-13 74q-6 38 -19 57.5t-44 32.5q-38 18 -73 29t-72 22q-31 8 -49 0.5t-25 -37.5q-11 -52 -22.5 -119t-22.5 -139t-20.5 -144.5t-17 -136t-12 -113.5t-6.5 -77q-2 -26 5.5 -40.5t29.5 -25.5q23 -14 47.5 -20.5t48.5 -12.5
q26 -7 35 -2.5t13 21.5q5 36 13.5 84.5t19 105t22 118.5t22.5 124q13 -52 28 -103.5t30 -99t29.5 -88.5t28.5 -72q18 -43 62 -60q48 -17 94 -26q54 -12 60 26q16 70 38.5 162.5t47 189.5t49.5 191t48 168q8 26 4.5 44.5t-32.5 36.5q-17 11 -30 18t-24.5 12t-23.5 8t-27 7
q-32 8 -48.5 1t-24.5 -36q-29 -107 -58.5 -234t-49.5 -258zM539 985q54 0 120 50q38 26 56 49t20 42q1 18 -22 33q-20 10 -43 10q-14 0 -26 -5t-26 -15l-13 -13t-19 -18t-19.5 -16t-14.5 -7q-17 1 -33.5 7.5t-32.5 14t-31.5 15t-30.5 12.5q-27 10 -50.5 15t-48.5 5
q-21 0 -51.5 -10.5t-60.5 -26t-54 -33t-33 -32.5q-10 -22 -9 -36q1 -39 56 -39q31 0 53 14q1 0 9.5 7t19.5 15.5t23.5 15.5t22.5 7q12 0 30 -3t36 -7.5t34 -10.5t24 -13q18 -14 47 -20.5t67 -6.5z" />
    <glyph glyph-name="Ograve" unicode="&#xd2;" 
d="M541 790q-34 27 -85.5 46t-108.5 28q-44 7 -92.5 -7t-83.5 -41q-52 -45 -91.5 -101.5t-66.5 -119.5t-41 -129.5t-15 -130.5t11 -122t36 -104q15 -28 41 -50t53 -36q33 -17 73 -25.5t78 -12.5q57 -6 101 4.5t84 41.5q59 52 99.5 127t64 159.5t29.5 170t-5 158.5
q-8 44 -25.5 78.5t-55.5 65.5zM380 690q20 -6 29.5 -41.5t9.5 -85.5q0 -49 -8 -105.5t-21 -103.5q-15 -57 -35.5 -105.5t-43.5 -81.5t-46 -49t-44 -9q-23 7 -35 38t-14 74.5t4 94t20 97.5q14 48 36.5 99.5t48.5 93.5t52 66.5t47 17.5zM98 1152q30 -20 71 -44t88 -48
t97.5 -46t98.5 -39q21 -9 45.5 -3.5t55.5 22.5q0 -1 7 4.5t12 15t3 21t-20 22.5q-40 19 -82 40t-83 43.5t-79 47t-71 50.5q-19 14 -42.5 13.5t-59.5 -20.5q-21 -10 -29 -29.5t-12 -49.5z" />
    <glyph glyph-name="Oacute" unicode="&#xd3;" 
d="M541 790q-34 27 -85.5 46t-108.5 28q-44 7 -92.5 -7t-83.5 -41q-52 -45 -91.5 -101.5t-66.5 -119.5t-41 -129.5t-15 -130.5t11 -122t36 -104q15 -28 41 -50t53 -36q33 -17 73 -25.5t78 -12.5q57 -6 101 4.5t84 41.5q59 52 99.5 127t64 159.5t29.5 170t-5 158.5
q-8 44 -25.5 78.5t-55.5 65.5zM380 690q20 -6 29.5 -41.5t9.5 -85.5q0 -49 -8 -105.5t-21 -103.5q-15 -57 -35.5 -105.5t-43.5 -81.5t-46 -49t-44 -9q-23 7 -35 38t-14 74.5t4 94t20 97.5q14 48 36.5 99.5t48.5 93.5t52 66.5t47 17.5zM582 1152q-2 30 -10 49.5t-28 29.5
q-37 20 -61 20.5t-41 -13.5q-67 -52 -152.5 -97.5t-167.5 -83.5q-17 -11 -18.5 -22.5t3 -21t11.5 -15t6 -4.5q31 -17 55.5 -22.5t45.5 3.5q48 17 98.5 39t98 46t89 48t71.5 44z" />
    <glyph glyph-name="Ocircumflex" unicode="&#xd4;" 
d="M541 790q-34 27 -85.5 46t-108.5 28q-44 7 -92.5 -7t-83.5 -41q-52 -45 -91.5 -101.5t-66.5 -119.5t-41 -129.5t-15 -130.5t11 -122t36 -104q15 -28 41 -50t53 -36q33 -17 73 -25.5t78 -12.5q57 -6 101 4.5t84 41.5q59 52 99.5 127t64 159.5t29.5 170t-5 158.5
q-8 44 -25.5 78.5t-55.5 65.5zM380 690q20 -6 29.5 -41.5t9.5 -85.5q0 -49 -8 -105.5t-21 -103.5q-15 -57 -35.5 -105.5t-43.5 -81.5t-46 -49t-44 -9q-23 7 -35 38t-14 74.5t4 94t20 97.5q14 48 36.5 99.5t48.5 93.5t52 66.5t47 17.5zM586 934q18 -2 23 4t2 21q-6 25 -14 59
t-16 71.5t-15 76.5t-11 75q-1 12 -2.5 20t-4.5 14t-7 11.5t-9 12.5q-13 11 -27 21t-28 21q-14 9 -26 8.5t-26 -17.5q-29 -29 -58.5 -63.5t-56 -68.5t-48.5 -65t-37 -53q-16 -23 3 -49q11 -16 20 -27t20 -21l12 -9t9 -3q10 0 18 12q29 35 62 76t74 85q13 -51 22.5 -95.5
t19.5 -73.5q12 -29 41 -35q17 -5 31.5 -6.5t28.5 -1.5z" />
    <glyph glyph-name="Otilde" unicode="&#xd5;" 
d="M537 790q-35 27 -86.5 46t-108.5 28q-43 7 -92 -7t-83 -41q-52 -45 -91 -101.5t-65.5 -119.5t-40 -129.5t-14.5 -130.5t11 -122t36 -104q15 -28 41.5 -50t53.5 -36q33 -17 73 -25.5t78 -12.5q57 -6 101 4.5t84 41.5q58 52 98.5 127t63.5 159.5t28.5 170t-5.5 158.5
q-8 44 -26 78.5t-56 65.5zM376 690q20 -6 29.5 -41.5t10 -85t-7 -106t-20.5 -103.5q-15 -57 -35 -105.5t-43 -81.5t-46 -49t-44 -9q-23 7 -34.5 38t-14.5 74.5t3 94t20 97.5q13 48 35.5 99.5t48 93.5t51.5 66.5t47 17.5zM536 985q54 0 120 50q38 26 56 49t20 42q0 18 -23 33
q-20 10 -42 10q-26 0 -52 -20l-13 -13t-19.5 -18t-20 -16t-14.5 -7q-17 1 -33 7.5t-32.5 14t-32 15t-30.5 12.5q-27 10 -50.5 15t-47.5 5q-21 0 -51.5 -10.5t-60.5 -26t-54 -33t-33 -32.5q-10 -22 -9 -36q1 -39 56 -39q31 0 53 14q1 0 9.5 7t19.5 15.5t23.5 15.5t22.5 7
q12 0 30 -3t36 -7.5t34 -10.5t24 -13q18 -14 47 -20.5t67 -6.5z" />
    <glyph glyph-name="Odieresis" unicode="&#xd6;" 
d="M541 790q-34 27 -85.5 46t-108.5 28q-44 7 -92.5 -7t-83.5 -41q-52 -45 -91.5 -101.5t-66.5 -119.5t-41 -129.5t-15 -130.5t11 -122t36 -104q15 -28 41 -50t53 -36q33 -17 73 -25.5t78 -12.5q57 -6 101 4.5t84 41.5q59 52 99.5 127t64 159.5t29.5 170t-5 158.5
q-8 44 -25.5 78.5t-55.5 65.5zM380 690q20 -6 29.5 -41.5t9.5 -85.5q0 -49 -8 -105.5t-21 -103.5q-15 -57 -35.5 -105.5t-43.5 -81.5t-46 -49t-44 -9q-23 7 -35 38t-14 74.5t4 94t20 97.5q14 48 36.5 99.5t48.5 93.5t52 66.5t47 17.5zM435 1057q-2 -24 4.5 -43t19.5 -32
t31 -20t38 -6q19 0 35 7.5t28 18.5t19.5 23.5t10.5 21.5q2 8 3.5 14.5t1.5 15.5q2 24 -13.5 48t-50.5 37q-27 8 -49.5 3.5t-39 -17t-26.5 -31.5t-12 -40zM124 1057q-1 -23 7 -41.5t21.5 -32t31.5 -20t38 -5.5q19 0 35 7.5t27 18.5t18 23t9 21l4 14t2 15q0 26 -17 49.5
t-54 36.5q-26 9 -48 4.5t-38 -17t-25.5 -32t-10.5 -41.5z" />
    <glyph glyph-name="multiply" unicode="&#xd7;" horiz-adv-x="655" 
d="M417 197q16 -11 27 -9.5t25 18.5q11 15 22.5 29t21.5 34q21 32 -8 55q-16 12 -38 27.5t-48 33.5q27 14 53.5 24.5t51.5 21.5q26 10 36 19.5t15 31.5q5 19 3 43t-10 44q-6 15 -24 16t-41 -8q-46 -18 -104 -45t-124 -59q-49 29 -97 54t-87 42q-17 7 -36 7.5t-33 -18.5
q-13 -19 -25.5 -45.5t-17.5 -45.5q-3 -22 2.5 -31t26.5 -18q22 -9 44 -19t46 -22q-35 -18 -62.5 -35.5t-49.5 -28.5q-37 -25 -31 -55q5 -19 10 -32.5t11 -29.5q6 -17 15 -18t32 10q45 24 101.5 53.5t118.5 60.5q49 -26 90.5 -52.5t83.5 -52.5z" />
    <glyph glyph-name="Oslash" unicode="&#xd8;" 
d="M634 931q-10 10 -8.5 11.5t4.5 0.5l3 -1q0 1 -12 9q-48 36 -78 -15q-14 -19 -31 -46.5t-38 -62.5q-29 13 -61.5 22t-66.5 15q-43 7 -92 -7t-83 -41q-52 -45 -91.5 -101.5t-66.5 -119.5t-41 -129.5t-15 -130.5t11 -122t36 -104q8 -17 22.5 -32.5t31.5 -27.5
q-10 -18 -16.5 -33t-11.5 -25q-10 -23 -7 -39q3 -17 22 -28q7 -4 3.5 -2.5t-9 4t-8 3.5t8.5 -5q23 -11 35 -7t20 21q7 13 17 30.5t21 38.5q29 -9 58 -14t58 -8q57 -6 101 4.5t84 41.5q59 52 99.5 127t64 159.5t29.5 170t-5 158.5q-6 29 -16 55t-29 49q20 32 36.5 57.5
t29.5 44.5q15 23 15 39q0 17 -24 40zM390 354q-15 -57 -35.5 -105.5t-43.5 -81.5t-46 -49t-44 -9q-7 2 -12 5.5t-9 8.5q46 78 101.5 171t110.5 187q-3 -34 -8.5 -66t-13.5 -61zM380 690q2 -1 6 -2.5t6 -4.5q-28 -49 -56.5 -101.5l-57 -105t-55.5 -104.5t-51 -100
q2 35 7.5 71t16.5 70q14 48 36.5 99.5t48.5 93.5t52 66.5t47 17.5z" />
    <glyph glyph-name="Ugrave" unicode="&#xd9;" horiz-adv-x="676" 
d="M-5 102q16 -28 38 -47t47 -33q58 -32 148 -38q45 -3 80 3.5t70 23.5q49 28 89 90t74 154t64.5 211.5t60.5 262.5q3 13 4 22.5t-2 17.5t-10.5 15.5t-21.5 16.5q-27 16 -59.5 32.5t-61 24t-48.5 1.5t-22 -36q-12 -62 -27 -141t-33.5 -160.5t-40 -158.5t-45 -135.5
t-49.5 -91.5t-53 -26q-22 6 -29.5 37t-5 78t13 106t25.5 121t32.5 122.5t33.5 112.5q17 61 -37 100q-26 19 -53.5 33t-57.5 23q-32 11 -47.5 5t-23.5 -35q-18 -64 -34.5 -131.5t-29.5 -134.5t-21 -132t-8 -123t9.5 -106.5t30.5 -83.5zM96 1152q30 -20 71 -44t88 -48t98 -46
t99 -39q20 -9 44.5 -3.5t55.5 22.5q0 -1 7 4.5t12 15t3 21t-20 22.5q-40 19 -82 40t-83 43.5t-79.5 47t-71.5 50.5q-18 14 -42 13.5t-60 -20.5q-20 -10 -28 -29.5t-12 -49.5z" />
    <glyph glyph-name="Uacute" unicode="&#xda;" horiz-adv-x="676" 
d="M-5 102q16 -28 38 -47t47 -33q58 -32 148 -38q45 -3 80 3.5t70 23.5q49 28 89 90t74 154t64.5 211.5t60.5 262.5q3 13 4 22.5t-2 17.5t-10.5 15.5t-21.5 16.5q-27 16 -59.5 32.5t-61 24t-48.5 1.5t-22 -36q-12 -62 -27 -141t-33.5 -160.5t-40 -158.5t-45 -135.5
t-49.5 -91.5t-53 -26q-22 6 -29.5 37t-5 78t13 106t25.5 121t32.5 122.5t33.5 112.5q17 61 -37 100q-26 19 -53.5 33t-57.5 23q-32 11 -47.5 5t-23.5 -35q-18 -64 -34.5 -131.5t-29.5 -134.5t-21 -132t-8 -123t9.5 -106.5t30.5 -83.5zM580 1152q-3 30 -11 49.5t-28 29.5
q-37 20 -60.5 20.5t-41.5 -13.5q-33 -26 -71.5 -50.5t-80 -47t-84 -43.5t-83.5 -40q-17 -11 -18.5 -22.5t3 -21t11.5 -15t6 -4.5q31 -17 55.5 -22.5t45.5 3.5q48 17 98.5 39t98 46t89 48t71.5 44z" />
    <glyph glyph-name="Ucircumflex" unicode="&#xdb;" horiz-adv-x="676" 
d="M-5 102q16 -28 38 -47t47 -33q58 -32 148 -38q45 -3 80 3.5t70 23.5q49 28 89 90t74 154t64.5 211.5t60.5 262.5q3 13 4 22.5t-2 17.5t-10.5 15.5t-21.5 16.5q-27 16 -59.5 32.5t-61 24t-48.5 1.5t-22 -36q-12 -62 -27 -141t-33.5 -160.5t-40 -158.5t-45 -135.5
t-49.5 -91.5t-53 -26q-22 6 -29.5 37t-5 78t13 106t25.5 121t32.5 122.5t33.5 112.5q17 61 -37 100q-26 19 -53.5 33t-57.5 23q-32 11 -47.5 5t-23.5 -35q-18 -64 -34.5 -131.5t-29.5 -134.5t-21 -132t-8 -123t9.5 -106.5t30.5 -83.5zM526 956q17 -1 22 5t2 21
q-6 26 -14.5 60t-16.5 71.5t-15.5 77t-12.5 75.5q-1 12 -3 20t-5 14t-7 11.5t-9 12.5q-13 11 -27 21t-28 21q-14 9 -26 8.5t-26 -17.5q-29 -29 -58.5 -63.5t-55.5 -68.5t-48 -65.5t-36 -53.5q-17 -23 3 -50q11 -16 20.5 -26.5t20.5 -21.5l12 -9t9 -3q10 0 18 12
q29 35 62 76.5t73 85.5q13 -51 23 -96t21 -74q12 -28 41 -36q17 -5 32 -6.5t29 -1.5z" />
    <glyph glyph-name="Udieresis" unicode="&#xdc;" horiz-adv-x="676" 
d="M-5 102q16 -28 38 -47t47 -33q58 -32 148 -38q45 -3 80 3.5t70 23.5q49 28 89 90t74 154t64.5 211.5t60.5 262.5q3 13 4 22.5t-2 17.5t-10.5 15.5t-21.5 16.5q-27 16 -59.5 32.5t-61 24t-48.5 1.5t-22 -36q-12 -62 -27 -141t-33.5 -160.5t-40 -158.5t-45 -135.5
t-49.5 -91.5t-53 -26q-22 6 -29.5 37t-5 78t13 106t25.5 121t32.5 122.5t33.5 112.5q17 61 -37 100q-26 19 -53.5 33t-57.5 23q-32 11 -47.5 5t-23.5 -35q-18 -64 -34.5 -131.5t-29.5 -134.5t-21 -132t-8 -123t9.5 -106.5t30.5 -83.5zM113 1057q-1 -23 7 -41.5t21.5 -32
t31 -20t37.5 -5.5q20 0 35.5 7.5t27 18.5t18.5 23t9 21q5 11 5 29q0 26 -16.5 49.5t-52.5 36.5q-27 9 -49 4.5t-38 -17t-25.5 -32t-10.5 -41.5zM425 1057q-5 -48 23 -75.5t70 -25.5q19 0 35 7.5t27.5 18.5t19 23.5t10.5 21.5q2 8 3 14.5t2 15.5q1 24 -14.5 48t-50.5 37
q-27 8 -49 3.5t-38.5 -17t-26 -31.5t-11.5 -40z" />
    <glyph glyph-name="Yacute" unicode="&#xdd;" horiz-adv-x="651" 
d="M644 714q7 16 11 27.5t3.5 21.5t-5.5 19.5t-14 20.5q-16 15 -38.5 34t-45.5 30.5t-43 10t-29 -26.5q-52 -93 -104 -183t-106 -176q-27 86 -52 163t-48 137q-16 32 -29.5 47.5t-43.5 22.5t-58.5 5.5t-59.5 -3.5q-26 -5 -31.5 -14.5t5.5 -36.5q18 -56 40.5 -120.5
t46.5 -132t48 -134.5t45 -127q-12 -69 -18 -125.5t-13 -99.5q-2 -26 5 -39.5t29 -27.5q22 -9 48 -17.5t50 -14.5q26 -6 35 -2t14 24q11 54 23 111.5t29 124.5q44 63 91 132t89 134t75.5 121t50.5 94zM578 1152q-2 30 -10 49.5t-28 29.5q-37 20 -61 20.5t-41 -13.5
q-33 -26 -72 -50.5t-80 -47t-84 -43.5t-83 -40q-18 -11 -19.5 -22.5t3.5 -21t11.5 -15t5.5 -4.5q32 -17 56.5 -22.5t45.5 3.5q48 17 98.5 39t98 46t89 48t70.5 44z" />
    <glyph glyph-name="Thorn" unicode="&#xde;" horiz-adv-x="657" 
d="M236 794q-28 18 -64 34t-67 24q-32 9 -47 2.5t-23 -35.5q-10 -47 -21 -109.5t-21.5 -132.5t-20.5 -143t-18 -139t-13 -121.5t-6 -90.5q-2 -26 6 -40.5t31 -25.5q22 -11 46 -18t50 -14q26 -6 34 -1t13 22q3 17 6 35t7 37q58 15 117 37t113.5 48.5t101 57t79.5 62.5
q20 20 37.5 41t28.5 44t14.5 48.5t-3.5 54.5q-15 60 -43 101.5t-62 77.5q-22 20 -50.5 31t-61 14t-68.5 -0.5t-73 -11.5q2 9 6 18.5t6 18.5q6 27 0.5 41t-34.5 33zM168 257q15 60 29 115.5t29 107.5q36 15 71 22.5t63 8t46 -5t21 -17.5q7 -21 -6.5 -51.5t-46.5 -63
t-85 -63.5t-121 -53z" />
    <glyph glyph-name="germandbls" unicode="&#xdf;" horiz-adv-x="1023" 
d="M116 439q28 22 57 49.5t55 56.5t47.5 58t35.5 55q12 22 20.5 43.5t11 42.5t-3 42.5t-20.5 44.5q-11 16 -29.5 32t-42.5 28t-52 17.5t-59 -0.5q-52 -10 -94.5 -45t-69.5 -86q-16 -32 -11.5 -45.5t21.5 -19.5q29 -10 62 -9.5t57 19.5q15 16 30.5 30.5t30 24t26 13
t19.5 -2.5q9 -5 1 -25.5t-27.5 -50.5t-48.5 -66.5t-62.5 -74t-69.5 -72.5t-70 -62q-14 -13 -9.5 -26t13.5 -24q11 -13 28 -28t30 -23q8 -8 19 -11.5t40 2.5q19 4 47.5 9t60 9t63 7.5t55.5 4.5q14 2 17.5 6.5t-1.5 16.5q-3 11 -11.5 24t-16.5 24q-9 12 -19.5 17.5t-25.5 3.5
q-20 -1 -49 -2.5t-55 -6.5zM954 780q-6 11 -8 13.5t-4 2.5q-1 0 -4.5 1.5t-11.5 11.5q-32 42 -80 3q-43 -34 -105 -89t-131.5 -120.5t-141.5 -135.5t-136.5 -134t-115 -115t-77.5 -79q-21 -21 -24 -37q-1 -8 1 -16t10 -16q6 -6 6 -5v4t2 2t10 -7q17 -14 30 -13.5t30 17.5
q35 33 91.5 83.5t123.5 110t140.5 124t142.5 124t129 110.5t101 84q23 19 29.5 34t-7.5 42zM869 236q29 12 53.5 25t41.5 28q15 12 25.5 29.5t13 39t-4.5 45.5t-27 48q-19 22 -39 33.5t-39 15.5t-37 2.5t-34 -4.5q-43 -8 -80.5 -32t-59.5 -48q-15 -19 4 -36q10 -8 25 -14
t31.5 -7.5t32 1t27.5 11.5q17 9 37 18.5t34 9.5q9 0 14 -7q6 -8 -2 -21t-32 -29.5t-65 -35t-100 -36.5q-14 -4 -15.5 -12t5.5 -20q17 -28 43 -42t54 -10q22 2 35 1t24 -10q11 -10 10.5 -32.5t-25.5 -46.5q-26 -23 -58.5 -26t-83.5 22q-18 8 -41 10t-43 -9
q-11 -6 -11.5 -16.5t25.5 -30.5q40 -35 81.5 -48t79.5 -13q50 0 92 14.5t76 52.5q30 34 30 76t-43 79q-11 10 -24.5 15.5t-29.5 9.5z" />
    <glyph glyph-name="agrave" unicode="&#xe0;" horiz-adv-x="718" 
d="M417 189q3 -41 6 -75.5t7 -63.5q4 -28 13.5 -39t33.5 -18q23 -8 45 -9.5t48 -1.5t33.5 7t7.5 25q-1 86 -0.5 186.5t2.5 200.5t6 192t10 163q3 29 -5.5 47t-39.5 29q-23 6 -45.5 13t-49 13t-58.5 10.5t-73 6.5q-47 4 -71 -13t-39 -44q-42 -75 -88.5 -171.5t-91 -195.5
t-83 -192t-62.5 -162q-6 -21 -5.5 -33.5t5.5 -20.5t14 -13.5t21 -13.5q16 -8 31.5 -14.5t28.5 -11.5q23 -8 34.5 -5t19.5 20q14 32 29 65.5t35 72.5q57 15 131.5 25.5t149.5 20.5zM182 1159q29 -20 70 -44t88 -48t97 -46t98 -39q20 -9 44.5 -3.5t55.5 22.5q0 -1 7 4.5
t12 14.5t4 21t-19 23q-80 38 -164 83.5t-149 98.5q-19 14 -42.5 13t-60.5 -21q-21 -10 -29 -29.5t-12 -49.5zM226 329q47 95 93.5 183.5t86.5 161.5q-2 -80 -1 -161.5t3 -163.5q-46 -3 -91.5 -8t-90.5 -12z" />
    <glyph glyph-name="aacute" unicode="&#xe1;" horiz-adv-x="718" 
d="M417 189q2 -41 5.5 -75.5t7.5 -63.5q4 -28 13.5 -39t33.5 -18q23 -8 45 -9.5t48 -1.5t33.5 7t7.5 25q-1 86 -0.5 186.5t2.5 200.5t5.5 192t9.5 163q3 29 -5 47t-40 29q-23 6 -45.5 13t-48.5 13t-58 10.5t-73 6.5q-24 2 -41 -1.5t-30 -11.5t-22.5 -19.5t-17.5 -24.5
q-28 -50 -58 -110.5t-60.5 -125t-60.5 -131.5t-56.5 -130t-49.5 -120.5t-39 -103.5q-6 -21 -5.5 -33.5t5.5 -20.5t14 -13.5t21 -13.5q16 -8 31.5 -14.5t28.5 -11.5q23 -8 34.5 -5t19.5 20q13 32 28 65.5t36 72.5q57 15 131.5 25.5t149.5 20.5zM692 1152q-3 30 -10 49.5
t-28 29.5q-35 20 -58.5 20.5t-43.5 -13.5q-33 -26 -72.5 -50.5t-81 -47t-84.5 -43.5t-83 -40q-18 -11 -20.5 -22.5t2.5 -21t11.5 -15t6.5 -4.5q30 -17 54.5 -22.5t45.5 3.5q49 17 100 39t99 46t90 48t72 44zM226 329q46 95 93 183.5t86 161.5q-2 -80 -0.5 -161.5t3.5 -163.5
q-47 -3 -92 -8t-90 -12z" />
    <glyph glyph-name="acircumflex" unicode="&#xe2;" horiz-adv-x="718" 
d="M417 189q3 -41 6 -75.5t7 -63.5q4 -28 13.5 -39t33.5 -18q23 -8 45 -9.5t48 -1.5t33.5 7t7.5 25q-1 86 -0.5 186.5t2.5 200.5t6 192t10 163q3 29 -5.5 47t-39.5 29q-23 6 -45.5 13t-49 13t-58.5 10.5t-73 6.5q-47 4 -71 -13t-39 -44q-42 -75 -88.5 -171.5t-91 -195.5
t-83 -192t-62.5 -162q-6 -21 -5.5 -33.5t5.5 -20.5t14 -13.5t21 -13.5q16 -8 31.5 -14.5t28.5 -11.5q23 -8 34.5 -5t19.5 20q14 32 29 65.5t35 72.5q57 15 131.5 25.5t149.5 20.5zM628 960q17 -1 22.5 5t1.5 21q-6 26 -13 60t-14.5 71.5t-14.5 77t-11 76.5q-1 12 -2.5 20
t-4.5 14t-7 11.5t-9 12.5q-12 11 -26 21t-28 21q-14 9 -26 8.5t-27 -17.5q-30 -29 -59.5 -63.5t-56 -69t-49 -65.5t-37.5 -53q-17 -24 1 -51q11 -16 21 -26.5t21 -21.5q12 -12 21 -12t17 12q29 35 63 76.5t75 85.5q11 -51 20.5 -95.5t19.5 -74.5q14 -29 41 -35q17 -5 32 -7
t29 -2zM226 329q47 95 93.5 183.5t86.5 161.5q-2 -80 -1 -161.5t3 -163.5q-46 -3 -91.5 -8t-90.5 -12z" />
    <glyph glyph-name="atilde" unicode="&#xe3;" horiz-adv-x="718" 
d="M416 189q3 -41 6.5 -75.5t7.5 -63.5q4 -28 13.5 -39t33.5 -18q23 -8 45 -9.5t48 -1.5t33.5 7t7.5 25q-2 86 -1.5 186.5t2 200.5t5 192t8.5 163q3 29 -5 47t-40 29q-23 6 -45.5 13t-49 13t-58.5 10.5t-73 6.5q-47 4 -71 -13t-39 -44q-27 -50 -57 -110.5t-60.5 -125
t-60 -131.5t-56 -130t-49 -120.5t-38.5 -103.5q-6 -21 -5.5 -33.5t5.5 -20.5t14 -13.5t21 -13.5q16 -8 31.5 -14.5t28.5 -11.5q23 -8 34.5 -5t19.5 20q13 32 28 65.5t35 72.5q57 15 131.5 25.5t149.5 20.5zM541 985q54 0 120 50q38 26 56 49t20 42q0 19 -22 33
q-20 10 -43 10q-14 0 -26 -5t-26 -15l-13 -13t-19.5 -18t-20 -16t-14.5 -7q-17 1 -33 7.5t-32.5 14t-32 15t-30.5 12.5q-26 10 -50 15t-48 5q-21 0 -51.5 -10.5t-60.5 -26t-54 -33t-33 -32.5q-10 -19 -10 -36q1 -39 57 -39q30 0 52 14q2 0 10.5 7t19.5 15.5t23.5 15.5
t22.5 7q12 0 29.5 -3t35.5 -7.5t34 -10.5t24 -13q36 -27 115 -27zM224 329q47 95 93 183.5t86 161.5q-2 -80 0 -161.5t4 -163.5q-47 -3 -92 -8t-91 -12z" />
    <glyph glyph-name="adieresis" unicode="&#xe4;" horiz-adv-x="718" 
d="M417 189q2 -41 5.5 -75.5t7.5 -63.5q4 -28 13.5 -39t33.5 -18q23 -8 45 -9.5t48 -1.5t33.5 7t7.5 25q-1 86 -0.5 186.5t2.5 200.5t5.5 192t8.5 163q4 29 -4.5 47t-40.5 29q-23 6 -45.5 13t-48.5 13t-58 10.5t-73 6.5q-47 4 -71 -13t-40 -44q-28 -50 -58 -110.5
t-60.5 -125t-60.5 -131.5t-56.5 -130t-49 -120.5t-38.5 -103.5q-6 -21 -5.5 -33.5t5.5 -20.5t14 -13.5t21 -13.5q16 -8 31.5 -14.5t28.5 -11.5q23 -8 34.5 -5t19.5 20q13 32 28 65.5t36 72.5q57 15 131.5 25.5t149.5 20.5zM225 329q47 95 93.5 183.5t86.5 161.5
q-2 -80 -0.5 -161.5t3.5 -163.5q-47 -3 -92 -8t-91 -12zM505 1064q-2 -24 4.5 -43t19 -32.5t30.5 -20t38 -5.5q19 0 35 7.5t28 18.5t20 23.5t11 21.5q2 8 3.5 14.5t2.5 15.5q2 24 -13.5 48t-50.5 37q-27 9 -49.5 4.5t-39 -17.5t-27 -32t-12.5 -40zM194 1064q-1 -23 6.5 -42
t21 -32t31 -20t37.5 -6q20 0 36 7.5t27 19t18 23.5t9 21q5 12 7 29q0 26 -16.5 49.5t-53.5 36.5q-26 9 -48 4.5t-38 -17t-26 -32t-11 -41.5z" />
    <glyph glyph-name="aring" unicode="&#xe5;" horiz-adv-x="718" 
d="M417 189q3 -41 6 -75.5t7 -63.5q4 -28 13.5 -39t33.5 -18q23 -8 45 -9.5t48 -1.5t33.5 7t7.5 25q-1 86 -0.5 186.5t2.5 200.5t5.5 192t9.5 163q4 29 -4.5 47t-40.5 29q-23 6 -45.5 13t-48.5 13t-58 10.5t-73 6.5q-47 4 -71 -13t-40 -44q-28 -50 -58 -110.5t-60.5 -125
t-60.5 -131.5t-56.5 -130t-49.5 -120.5t-39 -103.5q-6 -21 -5.5 -33.5t5.5 -20.5t14 -13.5t21 -13.5q16 -8 31.5 -14.5t28.5 -11.5q23 -8 34.5 -5t19.5 20q14 32 28.5 65.5t35.5 72.5q57 15 131.5 25.5t149.5 20.5zM632 1244q-20 9 -49.5 16t-62.5 11q-25 2 -54 -3t-49 -15
q-48 -25 -80 -60t-47.5 -73t-14 -74.5t22.5 -64.5q8 -13 24 -22.5t32 -14.5q21 -8 46.5 -11t48.5 -5q37 -3 65 1.5t54 17.5q37 22 62 52.5t39 64t17 67t-4 61.5q-6 16 -16.5 28.5t-33.5 23.5zM226 329q46 95 93 183.5t87 161.5q-2 -80 -1 -161.5t3 -163.5q-47 -3 -92 -8
t-90 -12zM537 1208q12 -2 17.5 -15.5t5.5 -32.5t-4.5 -40.5t-13.5 -39.5q-10 -24 -23.5 -43.5t-28 -33t-29.5 -20t-28 -2.5q-14 2 -20.5 14.5t-7 30t4.5 38t14 38.5q9 19 23.5 38.5t30 35t31.5 25t28 7.5z" />
    <glyph glyph-name="ae" unicode="&#xe6;" horiz-adv-x="1056" 
d="M739 834q-21 6 -42 13t-46.5 13t-57 10.5t-71.5 6.5q-44 4 -72.5 -13t-48.5 -45q-37 -50 -79 -110.5t-85 -125t-86 -131.5t-82 -130t-72.5 -120.5t-58.5 -103.5q-11 -21 -13 -33.5t1.5 -20.5t11.5 -13.5t18 -13.5q14 -8 29 -14.5t26 -11.5q23 -8 34.5 -5t23.5 20
q19 32 39.5 65.5t49.5 72.5q59 15 136 25t152 20q-5 -33 -10 -55t-9 -37t-6 -25.5t-2 -21.5q-2 -28 14 -38.5t39 -17.5q7 -4 27.5 -5.5t44.5 -1.5q25 0 47.5 1t32.5 3q60 11 126.5 24t131.5 25q26 5 31.5 12.5t1.5 27.5q-7 18 -13 35.5t-17 37.5q-9 18 -25 24t-43 4
q-51 -3 -93.5 -8t-88.5 -13q0 4 1.5 7t1.5 8q8 23 15.5 48.5t15.5 53.5q58 12 120.5 22t124.5 21q28 6 35 14t0 31q-5 20 -10.5 39.5t-17.5 39.5q-9 20 -24.5 26t-44.5 5q-33 -1 -63 -3t-61 -6q19 53 34 101.5t31 93.5q71 10 135.5 17t124.5 14q30 4 38.5 13t5.5 35
q-5 23 -8.5 42.5t-16.5 43.5q-12 46 -69 44q-78 -3 -139 -13.5t-118 -25.5q-1 1 -3 1t-4 2zM283 330q66 95 129.5 183.5t119.5 162.5q-17 -81 -32.5 -162.5t-27.5 -163.5q-48 -3 -94 -8t-95 -12z" />
    <glyph glyph-name="ccedilla" unicode="&#xe7;" horiz-adv-x="642" 
d="M149 -193q12 12 26 31t28.5 40.5t26.5 44t19 41.5q0 2 0.5 4.5t0.5 4.5q42 0 81.5 10.5t64.5 27.5q28 20 56 50t46 66q17 31 15.5 52t-39.5 31q-95 27 -154 -33q-82 -84 -122 -71q-21 6 -32 34t-13 68.5t4.5 90t19.5 99.5q14 48 38.5 104t52.5 102.5t55 75.5t47 23
q20 -8 24 -34t3 -58q0 -18 3 -39q4 -25 13 -44t24 -33.5t38 -25t55 -16.5q17 -3 27 -2t15.5 5t8.5 11t6 15q6 18 11 40.5t8 47t4.5 49.5t0.5 48q-1 20 -4 37.5t-10.5 33.5t-20 31.5t-31.5 31.5q-20 13 -45 25.5t-53 23t-58 18t-58 10.5q-38 3 -81 -8t-85 -47
q-52 -45 -92.5 -104.5t-69.5 -126.5t-45.5 -137.5t-19.5 -137t7.5 -125t36.5 -101.5q15 -28 42 -49t54 -32q3 -2 7 -3t9 -3l-25 -50t-25.5 -50.5t-23.5 -46t-19 -37.5q-16 -29 26 -36q18 -2 34 -3.5t33 0.5q33 2 55 26z" />
    <glyph glyph-name="egrave" unicode="&#xe8;" horiz-adv-x="577" 
d="M41 798l-95 -665q-2 -27 7.5 -46t26.5 -33q21 -18 36.5 -29.5t32.5 -22.5q15 -10 35.5 -15.5t60.5 4.5q60 11 126 24t130 25q27 5 32 12.5t0 27.5q-8 18 -14.5 35.5t-18.5 37.5q-11 18 -26.5 24t-43.5 4q-50 -3 -92.5 -8t-89.5 -13q8 28 15 56.5t15 60.5q58 12 120.5 22
t122.5 21q28 6 34.5 14t-1.5 31q-5 20 -11.5 39.5t-18.5 39.5q-11 20 -27 26t-44 5q-34 -1 -64 -3t-60 -6q16 53 29 101.5t28 93.5q71 10 135 17t124 14q29 4 37 13t4 35q-5 23 -10 42.5t-18 43.5q-16 45 -73 44q-60 -2 -120.5 -9.5t-118 -17.5t-110 -22t-95.5 -23z
M105 1152q30 -20 71 -44t88 -48t97.5 -46t98.5 -39q20 -9 44.5 -3.5t55.5 22.5q0 -1 7 4.5t12 15t3.5 21t-19.5 22.5q-80 38 -164.5 83.5t-149.5 97.5q-19 14 -42.5 13.5t-60.5 -20.5q-20 -10 -28 -29.5t-13 -49.5z" />
    <glyph glyph-name="eacute" unicode="&#xe9;" horiz-adv-x="577" 
d="M41 798l-95 -665q-2 -27 7.5 -46t26.5 -33q21 -18 36.5 -29.5t32.5 -22.5q15 -10 35.5 -15.5t60.5 4.5q60 11 126 24t130 25q27 5 32 12.5t0 27.5q-8 18 -14.5 35.5t-18.5 37.5q-11 18 -26.5 24t-43.5 4q-50 -3 -92.5 -8t-89.5 -13q8 28 15 56.5t15 60.5q58 12 120.5 22
t122.5 21q28 6 34.5 14t-1.5 31q-5 20 -11.5 39.5t-18.5 39.5q-11 20 -27 26t-44 5q-34 -1 -64 -3t-60 -6q16 53 29 101.5t28 93.5q71 10 135 17t124 14q29 4 37 13t4 35q-5 23 -10 42.5t-18 43.5q-16 45 -73 44q-60 -2 -120.5 -9.5t-118 -17.5t-110 -22t-95.5 -23z
M589 1152q-2 30 -9.5 49.5t-27.5 29.5q-37 20 -61 20.5t-41 -13.5q-67 -52 -153 -97.5t-168 -83.5q-18 -11 -19.5 -22.5t3 -21t11.5 -15t6 -4.5q31 -17 55.5 -22.5t45.5 3.5q48 17 99 39t98.5 46t89 48t71.5 44z" />
    <glyph glyph-name="ecircumflex" unicode="&#xea;" horiz-adv-x="577" 
d="M41 798l-95 -665q-2 -27 7.5 -46t26.5 -33q21 -18 36.5 -29.5t32.5 -22.5q15 -10 35.5 -15.5t60.5 4.5q60 11 126 24t130 25q27 5 32 12.5t0 27.5q-8 18 -14.5 35.5t-18.5 37.5q-11 18 -26.5 24t-43.5 4q-50 -3 -92.5 -8t-89.5 -13q8 28 15 56.5t15 60.5q58 12 120.5 22
t122.5 21q28 6 34.5 14t-1.5 31q-5 20 -11.5 39.5t-18.5 39.5q-11 20 -27 26t-44 5q-34 -1 -64 -3t-60 -6q16 53 29 101.5t28 93.5q71 10 135 17t124 14q29 4 37 13t4 35q-5 23 -10 42.5t-18 43.5q-16 45 -73 44q-60 -2 -120.5 -9.5t-118 -17.5t-110 -22t-95.5 -23zM534 956
q17 -1 22 5t2 21q-6 26 -14 60t-16 71.5t-15 77t-11 75.5q-1 12 -3 20t-5 14t-7 11.5t-9 12.5q-13 11 -27 21t-28 21q-14 9 -26 8.5t-26 -17.5q-29 -29 -58.5 -63.5t-56 -68.5t-48.5 -65.5t-37 -53.5q-17 -23 3 -50q11 -16 20 -26.5t20 -21.5q8 -6 12.5 -9t9.5 -3
q11 0 17 12q29 35 62.5 76.5t74.5 85.5q12 -51 22 -96t20 -74q12 -28 41 -36q17 -5 32 -6.5t29 -1.5z" />
    <glyph glyph-name="edieresis" unicode="&#xeb;" horiz-adv-x="577" 
d="M41 798l-95 -665q-2 -27 7.5 -46t26.5 -33q21 -18 36.5 -29.5t32.5 -22.5q15 -10 35.5 -15.5t60.5 4.5q60 11 126 24t130 25q27 5 32 12.5t0 27.5q-8 18 -14.5 35.5t-18.5 37.5q-11 18 -26.5 24t-43.5 4q-50 -3 -92.5 -8t-89.5 -13q8 28 15 56.5t15 60.5q58 12 120.5 22
t122.5 21q28 6 34.5 14t-1.5 31q-5 20 -11.5 39.5t-18.5 39.5q-11 20 -27 26t-44 5q-34 -1 -64 -3t-60 -6q16 53 29 101.5t28 93.5q71 10 135 17t124 14q29 4 37 13t4 35q-5 23 -10 42.5t-18 43.5q-16 45 -73 44q-60 -2 -120.5 -9.5t-118 -17.5t-110 -22t-95.5 -23z
M382 1057q-2 -24 4.5 -43t19 -32t30.5 -20t38 -6q20 0 36 7.5t27.5 18.5t19.5 23.5t11 21.5q1 8 2.5 14.5t2.5 15.5q1 24 -14.5 48t-50.5 37q-27 8 -49.5 3.5t-39 -17t-26.5 -31.5t-11 -40zM71 1057q-1 -23 6.5 -41.5t21 -32t31.5 -20t38 -5.5q20 0 35.5 7.5t27 18.5t18 23
t8.5 21l4 14t2 15q0 26 -17 49.5t-54 36.5q-26 9 -48 4.5t-37.5 -17t-25 -32t-10.5 -41.5z" />
    <glyph glyph-name="igrave" unicode="&#xec;" horiz-adv-x="312" 
d="M253 794q-27 18 -63 34t-67 24q-32 9 -47 2.5t-24 -35.5q-11 -47 -23.5 -109.5t-24.5 -132.5t-23.5 -143t-20.5 -139t-15 -121.5t-8 -90.5q-3 -26 4.5 -40.5t30.5 -25.5q22 -11 45.5 -18t49.5 -14q26 -6 34.5 -1t13.5 22q9 45 21 102.5t26.5 122t30 132t31.5 132
t31.5 122.5t29.5 103q7 27 1.5 41t-33.5 33zM-84 1182q30 -20 71.5 -44t89 -48t98 -46.5t99.5 -39.5q21 -9 45.5 -3.5t55.5 22.5q-1 -1 6 4.5t12 15t3.5 21t-19.5 23.5q-41 19 -83 40t-83.5 43.5t-80 47.5t-71.5 51q-19 14 -43 13.5t-60 -20.5q-21 -11 -28.5 -30.5
t-11.5 -49.5z" />
    <glyph glyph-name="iacute" unicode="&#xed;" horiz-adv-x="312" 
d="M248 794q-27 18 -63 34t-67 24q-32 9 -47 2.5t-24 -35.5q-11 -47 -23 -109.5t-23.5 -132.5t-22.5 -143t-19.5 -139t-14.5 -121.5t-8 -90.5q-2 -26 5.5 -40.5t30.5 -25.5q22 -11 45.5 -18t49.5 -14q26 -6 34.5 -1t13.5 22q9 45 21 102.5t25.5 122t29 132t31 132
t30.5 122.5t29 103q3 13 4 23t-2.5 18t-11.5 16t-23 17zM472 1154q-3 31 -10.5 50.5t-28.5 29.5q-36 20 -59.5 20.5t-42.5 -13.5q-33 -26 -72 -50.5t-80 -47t-83.5 -43.5t-82.5 -40q-18 -11 -20 -23t3 -21t11.5 -14.5t6.5 -4.5q31 -17 55 -22.5t45 3.5q49 17 100 39t98.5 46
t88.5 47.5t71 43.5z" />
    <glyph glyph-name="icircumflex" unicode="&#xee;" horiz-adv-x="312" 
d="M252 794q-27 18 -63 34t-67 24q-32 9 -47 2.5t-24 -35.5q-11 -47 -23 -109.5t-24.5 -132.5t-23.5 -143t-20 -139t-15 -121.5t-8 -90.5q-3 -26 4.5 -40.5t30.5 -25.5q22 -11 45.5 -18t49.5 -14q26 -6 34.5 -1t13.5 22q9 45 21 102.5t26.5 122t30 132t31.5 132t31.5 122.5
t29.5 103q7 27 1 41t-34 33zM381 950q17 -2 22 4t1 21q-6 26 -14 60t-16.5 71.5t-16 77t-12.5 75.5q-1 12 -3 20t-5 14t-7 11.5t-9 12.5q-12 11 -26.5 21t-28.5 21q-14 9 -26 8.5t-26 -17.5q-29 -29 -58 -63.5t-55.5 -68.5t-48 -65.5t-35.5 -53.5q-16 -22 2 -50
q11 -16 21 -26.5t21 -21.5q7 -6 11.5 -9t10.5 -3q8 0 17 12q27 35 61 76.5t73 85.5q13 -51 23 -95.5t21 -74.5q14 -29 41 -35q17 -5 32 -6.5t30 -1.5z" />
    <glyph glyph-name="idieresis" unicode="&#xef;" horiz-adv-x="312" 
d="M250 794q-27 18 -63 34t-67 24q-32 9 -47 2.5t-24 -35.5q-11 -47 -23 -109.5t-23.5 -132.5t-23 -143t-20 -139t-14.5 -121.5t-8 -90.5q-3 -26 4.5 -40.5t30.5 -25.5q22 -11 45.5 -18t49.5 -14q26 -6 34.5 -1t13.5 22q9 45 21 102.5t26 122t29.5 132t31 132t31 122.5
t29.5 103q3 13 4 23t-2.5 18t-11.5 16t-23 17zM-65 1057q-1 -23 7 -41.5t21.5 -32t31.5 -20t38 -5.5q19 0 35 7.5t27 18.5t18 23t9 21q5 11 5 29q0 26 -17 49.5t-53 36.5q-27 9 -49 4.5t-37.5 -17t-25 -32t-10.5 -41.5zM247 1057q-5 -48 23 -75.5t70 -25.5q20 0 35.5 7.5
t27 18.5t19 23.5t10.5 21.5q2 8 3 14.5t2 15.5q1 24 -15 48t-51 37q-27 8 -49 3.5t-38 -17t-26 -31.5t-11 -40z" />
    <glyph glyph-name="eth" unicode="&#xf0;" horiz-adv-x="612" 
d="M159 703q-50 -9 -15 -67q7 -12 10 -15t6.5 -4.5t8.5 -5t16 -15.5q22 -25 41 -32t39 -1q5 1 11 2.5t12 3.5q2 -22 3.5 -43.5t1.5 -42.5q-26 9 -52 12.5t-55 1.5q-46 -2 -80.5 -10.5t-60 -23t-44.5 -33.5t-35 -42q-32 -44 -47.5 -89.5t-17.5 -87.5t6.5 -78t25.5 -60
q11 -15 27.5 -28.5t41.5 -23.5t61 -15t87 -5q49 3 88.5 13t72 27.5t58.5 43t50 58.5q24 34 48 82.5t42 107.5t27.5 128t4.5 144q20 2 40 3t40 3q26 1 33 10t-2 35q-5 11 -6.5 13.5t-2 4t-3 5.5t-9.5 18q-31 46 -75 46h-20t-20 -1q-6 31 -18 62q-5 13 -9.5 21.5t-11 14
t-16.5 9t-27 5.5q-17 1 -38 2.5t-42 2t-40.5 0t-32.5 -2.5q-34 -7 -47.5 -19t-2.5 -41q16 -39 26 -76q-28 -5 -53 -8.5t-45 -8.5zM268 260q-20 -65 -44 -103t-55 -42q-37 -5 -54.5 28t-8.5 93q3 26 10 48.5t17.5 39.5t24 27.5t30.5 11.5q16 1 31 -6.5t25.5 -21t17 -33
t6.5 -42.5z" />
    <glyph glyph-name="ntilde" unicode="&#xf1;" horiz-adv-x="702" 
d="M392 327q-11 51 -22 106.5t-21 108t-18 97.5t-13 74q-6 38 -19 57.5t-44 32.5q-38 18 -73 29t-72 22q-31 8 -49 0.5t-25 -37.5q-11 -52 -22.5 -119t-22.5 -139t-20.5 -144.5t-17 -136t-12 -113.5t-6.5 -77q-2 -26 5.5 -40.5t29.5 -25.5q23 -14 47.5 -20.5t48.5 -12.5
q26 -7 35 -2.5t13 21.5q5 36 13.5 84.5t19 105t22 118.5t22.5 124q13 -52 28 -103.5t30 -99t29.5 -88.5t28.5 -72q18 -43 62 -60q48 -17 94 -26q54 -12 60 26q16 70 38.5 162.5t47 189.5t49.5 191t48 168q8 26 4.5 44.5t-32.5 36.5q-17 11 -30 18t-24.5 12t-23.5 8t-27 7
q-32 8 -48.5 1t-24.5 -36q-29 -107 -58.5 -234t-49.5 -258zM539 985q54 0 120 50q38 26 56 49t20 42q1 18 -22 33q-20 10 -43 10q-14 0 -26 -5t-26 -15l-13 -13t-19 -18t-19.5 -16t-14.5 -7q-17 1 -33.5 7.5t-32.5 14t-31.5 15t-30.5 12.5q-27 10 -50.5 15t-48.5 5
q-21 0 -51.5 -10.5t-60.5 -26t-54 -33t-33 -32.5q-10 -22 -9 -36q1 -39 56 -39q31 0 53 14q1 0 9.5 7t19.5 15.5t23.5 15.5t22.5 7q12 0 30 -3t36 -7.5t34 -10.5t24 -13q18 -14 47 -20.5t67 -6.5z" />
    <glyph glyph-name="ograve" unicode="&#xf2;" 
d="M541 790q-34 27 -85.5 46t-108.5 28q-44 7 -92.5 -7t-83.5 -41q-52 -45 -91.5 -101.5t-66.5 -119.5t-41 -129.5t-15 -130.5t11 -122t36 -104q15 -28 41 -50t53 -36q33 -17 73 -25.5t78 -12.5q57 -6 101 4.5t84 41.5q59 52 99.5 127t64 159.5t29.5 170t-5 158.5
q-8 44 -25.5 78.5t-55.5 65.5zM380 690q20 -6 29.5 -41.5t9.5 -85.5q0 -49 -8 -105.5t-21 -103.5q-15 -57 -35.5 -105.5t-43.5 -81.5t-46 -49t-44 -9q-23 7 -35 38t-14 74.5t4 94t20 97.5q14 48 36.5 99.5t48.5 93.5t52 66.5t47 17.5zM98 1152q30 -20 71 -44t88 -48
t97.5 -46t98.5 -39q21 -9 45.5 -3.5t55.5 22.5q0 -1 7 4.5t12 15t3 21t-20 22.5q-40 19 -82 40t-83 43.5t-79 47t-71 50.5q-19 14 -42.5 13.5t-59.5 -20.5q-21 -10 -29 -29.5t-12 -49.5z" />
    <glyph glyph-name="oacute" unicode="&#xf3;" 
d="M541 790q-34 27 -85.5 46t-108.5 28q-44 7 -92.5 -7t-83.5 -41q-52 -45 -91.5 -101.5t-66.5 -119.5t-41 -129.5t-15 -130.5t11 -122t36 -104q15 -28 41 -50t53 -36q33 -17 73 -25.5t78 -12.5q57 -6 101 4.5t84 41.5q59 52 99.5 127t64 159.5t29.5 170t-5 158.5
q-8 44 -25.5 78.5t-55.5 65.5zM380 690q20 -6 29.5 -41.5t9.5 -85.5q0 -49 -8 -105.5t-21 -103.5q-15 -57 -35.5 -105.5t-43.5 -81.5t-46 -49t-44 -9q-23 7 -35 38t-14 74.5t4 94t20 97.5q14 48 36.5 99.5t48.5 93.5t52 66.5t47 17.5zM582 1152q-2 30 -10 49.5t-28 29.5
q-37 20 -61 20.5t-41 -13.5q-67 -52 -152.5 -97.5t-167.5 -83.5q-17 -11 -18.5 -22.5t3 -21t11.5 -15t6 -4.5q31 -17 55.5 -22.5t45.5 3.5q48 17 98.5 39t98 46t89 48t71.5 44z" />
    <glyph glyph-name="ocircumflex" unicode="&#xf4;" 
d="M541 790q-34 27 -85.5 46t-108.5 28q-44 7 -92.5 -7t-83.5 -41q-52 -45 -91.5 -101.5t-66.5 -119.5t-41 -129.5t-15 -130.5t11 -122t36 -104q15 -28 41 -50t53 -36q33 -17 73 -25.5t78 -12.5q57 -6 101 4.5t84 41.5q59 52 99.5 127t64 159.5t29.5 170t-5 158.5
q-8 44 -25.5 78.5t-55.5 65.5zM380 690q20 -6 29.5 -41.5t9.5 -85.5q0 -49 -8 -105.5t-21 -103.5q-15 -57 -35.5 -105.5t-43.5 -81.5t-46 -49t-44 -9q-23 7 -35 38t-14 74.5t4 94t20 97.5q14 48 36.5 99.5t48.5 93.5t52 66.5t47 17.5zM586 934q18 -2 23 4t2 21q-6 25 -14 59
t-16 71.5t-15 76.5t-11 75q-1 12 -2.5 20t-4.5 14t-7 11.5t-9 12.5q-13 11 -27 21t-28 21q-14 9 -26 8.5t-26 -17.5q-29 -29 -58.5 -63.5t-56 -68.5t-48.5 -65t-37 -53q-16 -23 3 -49q11 -16 20 -27t20 -21l12 -9t9 -3q10 0 18 12q29 35 62 76t74 85q13 -51 22.5 -95.5
t19.5 -73.5q12 -29 41 -35q17 -5 31.5 -6.5t28.5 -1.5z" />
    <glyph glyph-name="otilde" unicode="&#xf5;" 
d="M537 790q-35 27 -86.5 46t-108.5 28q-43 7 -92 -7t-83 -41q-52 -45 -91 -101.5t-65.5 -119.5t-40 -129.5t-14.5 -130.5t11 -122t36 -104q15 -28 41.5 -50t53.5 -36q33 -17 73 -25.5t78 -12.5q57 -6 101 4.5t84 41.5q58 52 98.5 127t63.5 159.5t28.5 170t-5.5 158.5
q-8 44 -26 78.5t-56 65.5zM376 690q20 -6 29.5 -41.5t10 -85t-7 -106t-20.5 -103.5q-15 -57 -35 -105.5t-43 -81.5t-46 -49t-44 -9q-23 7 -34.5 38t-14.5 74.5t3 94t20 97.5q13 48 35.5 99.5t48 93.5t51.5 66.5t47 17.5zM536 985q54 0 120 50q38 26 56 49t20 42q0 18 -23 33
q-20 10 -42 10q-26 0 -52 -20l-13 -13t-19.5 -18t-20 -16t-14.5 -7q-17 1 -33 7.5t-32.5 14t-32 15t-30.5 12.5q-27 10 -50.5 15t-47.5 5q-21 0 -51.5 -10.5t-60.5 -26t-54 -33t-33 -32.5q-10 -22 -9 -36q1 -39 56 -39q31 0 53 14q1 0 9.5 7t19.5 15.5t23.5 15.5t22.5 7
q12 0 30 -3t36 -7.5t34 -10.5t24 -13q18 -14 47 -20.5t67 -6.5z" />
    <glyph glyph-name="odieresis" unicode="&#xf6;" 
d="M541 790q-34 27 -85.5 46t-108.5 28q-44 7 -92.5 -7t-83.5 -41q-52 -45 -91.5 -101.5t-66.5 -119.5t-41 -129.5t-15 -130.5t11 -122t36 -104q15 -28 41 -50t53 -36q33 -17 73 -25.5t78 -12.5q57 -6 101 4.5t84 41.5q59 52 99.5 127t64 159.5t29.5 170t-5 158.5
q-8 44 -25.5 78.5t-55.5 65.5zM380 690q20 -6 29.5 -41.5t9.5 -85.5q0 -49 -8 -105.5t-21 -103.5q-15 -57 -35.5 -105.5t-43.5 -81.5t-46 -49t-44 -9q-23 7 -35 38t-14 74.5t4 94t20 97.5q14 48 36.5 99.5t48.5 93.5t52 66.5t47 17.5zM435 1057q-2 -24 4.5 -43t19.5 -32
t31 -20t38 -6q19 0 35 7.5t28 18.5t19.5 23.5t10.5 21.5q2 8 3.5 14.5t1.5 15.5q2 24 -13.5 48t-50.5 37q-27 8 -49.5 3.5t-39 -17t-26.5 -31.5t-12 -40zM124 1057q-1 -23 7 -41.5t21.5 -32t31.5 -20t38 -5.5q19 0 35 7.5t27 18.5t18 23t9 21l4 14t2 15q0 26 -17 49.5
t-54 36.5q-26 9 -48 4.5t-38 -17t-25.5 -32t-10.5 -41.5z" />
    <glyph glyph-name="divide" unicode="&#xf7;" horiz-adv-x="732" 
d="M626 334q22 0 29 6.5t-1 26.5q-8 17 -13.5 33t-18.5 36q-20 34 -63 34q-73 -1 -122 -2t-86.5 -3.5t-68 -6t-65 -9t-78.5 -13t-108 -17.5q-19 -3 -32 -12t-4 -29q10 -19 27 -43.5t34 -40.5q18 -17 30.5 -20.5t36.5 1.5q68 12 109.5 20.5t70 15t52.5 10.5t57.5 6.5t83 4
t130.5 2.5zM251 645q-1 -28 8 -50t25.5 -37.5t39 -23.5t47.5 -7q24 0 44 9t34 21.5t23 27t12 25.5q5 15 7 35q1 29 -19.5 57t-65.5 43q-33 10 -61 5t-48 -20t-32 -37.5t-14 -47.5zM216 166q-2 -24 6.5 -43t24 -32t36 -19.5t44.5 -5.5q23 0 41 7.5t31 18t21 23t11 21.5
q5 11 5 30q1 25 -18 49t-60 37q-31 9 -56.5 4.5t-44.5 -17.5t-29.5 -32.5t-11.5 -40.5z" />
    <glyph glyph-name="oslash" unicode="&#xf8;" 
d="M634 931q-10 10 -8.5 11.5t4.5 0.5l3 -1q0 1 -12 9q-48 36 -78 -15q-14 -19 -31 -46.5t-38 -62.5q-29 13 -61.5 22t-66.5 15q-43 7 -92 -7t-83 -41q-52 -45 -91.5 -101.5t-66.5 -119.5t-41 -129.5t-15 -130.5t11 -122t36 -104q8 -17 22.5 -32.5t31.5 -27.5
q-10 -18 -16.5 -33t-11.5 -25q-10 -23 -7 -39q3 -17 22 -28q7 -4 3.5 -2.5t-9 4t-8 3.5t8.5 -5q23 -11 35 -7t20 21q7 13 17 30.5t21 38.5q29 -9 58 -14t58 -8q57 -6 101 4.5t84 41.5q59 52 99.5 127t64 159.5t29.5 170t-5 158.5q-6 29 -16 55t-29 49q20 32 36.5 57.5
t29.5 44.5q15 23 15 39q0 17 -24 40zM390 354q-15 -57 -35.5 -105.5t-43.5 -81.5t-46 -49t-44 -9q-7 2 -12 5.5t-9 8.5q46 78 101.5 171t110.5 187q-3 -34 -8.5 -66t-13.5 -61zM380 690q2 -1 6 -2.5t6 -4.5q-28 -49 -56.5 -101.5l-57 -105t-55.5 -104.5t-51 -100
q2 35 7.5 71t16.5 70q14 48 36.5 99.5t48.5 93.5t52 66.5t47 17.5z" />
    <glyph glyph-name="ugrave" unicode="&#xf9;" horiz-adv-x="676" 
d="M-5 102q16 -28 38 -47t47 -33q58 -32 148 -38q45 -3 80 3.5t70 23.5q49 28 89 90t74 154t64.5 211.5t60.5 262.5q3 13 4 22.5t-2 17.5t-10.5 15.5t-21.5 16.5q-27 16 -59.5 32.5t-61 24t-48.5 1.5t-22 -36q-12 -62 -27 -141t-33.5 -160.5t-40 -158.5t-45 -135.5
t-49.5 -91.5t-53 -26q-22 6 -29.5 37t-5 78t13 106t25.5 121t32.5 122.5t33.5 112.5q17 61 -37 100q-26 19 -53.5 33t-57.5 23q-32 11 -47.5 5t-23.5 -35q-18 -64 -34.5 -131.5t-29.5 -134.5t-21 -132t-8 -123t9.5 -106.5t30.5 -83.5zM96 1152q30 -20 71 -44t88 -48t98 -46
t99 -39q20 -9 44.5 -3.5t55.5 22.5q0 -1 7 4.5t12 15t3 21t-20 22.5q-40 19 -82 40t-83 43.5t-79.5 47t-71.5 50.5q-18 14 -42 13.5t-60 -20.5q-20 -10 -28 -29.5t-12 -49.5z" />
    <glyph glyph-name="uacute" unicode="&#xfa;" horiz-adv-x="676" 
d="M-5 102q16 -28 38 -47t47 -33q58 -32 148 -38q45 -3 80 3.5t70 23.5q49 28 89 90t74 154t64.5 211.5t60.5 262.5q3 13 4 22.5t-2 17.5t-10.5 15.5t-21.5 16.5q-27 16 -59.5 32.5t-61 24t-48.5 1.5t-22 -36q-12 -62 -27 -141t-33.5 -160.5t-40 -158.5t-45 -135.5
t-49.5 -91.5t-53 -26q-22 6 -29.5 37t-5 78t13 106t25.5 121t32.5 122.5t33.5 112.5q17 61 -37 100q-26 19 -53.5 33t-57.5 23q-32 11 -47.5 5t-23.5 -35q-18 -64 -34.5 -131.5t-29.5 -134.5t-21 -132t-8 -123t9.5 -106.5t30.5 -83.5zM580 1152q-3 30 -11 49.5t-28 29.5
q-37 20 -60.5 20.5t-41.5 -13.5q-33 -26 -71.5 -50.5t-80 -47t-84 -43.5t-83.5 -40q-17 -11 -18.5 -22.5t3 -21t11.5 -15t6 -4.5q31 -17 55.5 -22.5t45.5 3.5q48 17 98.5 39t98 46t89 48t71.5 44z" />
    <glyph glyph-name="ucircumflex" unicode="&#xfb;" horiz-adv-x="676" 
d="M-5 102q16 -28 38 -47t47 -33q58 -32 148 -38q45 -3 80 3.5t70 23.5q49 28 89 90t74 154t64.5 211.5t60.5 262.5q3 13 4 22.5t-2 17.5t-10.5 15.5t-21.5 16.5q-27 16 -59.5 32.5t-61 24t-48.5 1.5t-22 -36q-12 -62 -27 -141t-33.5 -160.5t-40 -158.5t-45 -135.5
t-49.5 -91.5t-53 -26q-22 6 -29.5 37t-5 78t13 106t25.5 121t32.5 122.5t33.5 112.5q17 61 -37 100q-26 19 -53.5 33t-57.5 23q-32 11 -47.5 5t-23.5 -35q-18 -64 -34.5 -131.5t-29.5 -134.5t-21 -132t-8 -123t9.5 -106.5t30.5 -83.5zM526 956q17 -1 22 5t2 21
q-6 26 -14.5 60t-16.5 71.5t-15.5 77t-12.5 75.5q-1 12 -3 20t-5 14t-7 11.5t-9 12.5q-13 11 -27 21t-28 21q-14 9 -26 8.5t-26 -17.5q-29 -29 -58.5 -63.5t-55.5 -68.5t-48 -65.5t-36 -53.5q-17 -23 3 -50q11 -16 20.5 -26.5t20.5 -21.5l12 -9t9 -3q10 0 18 12
q29 35 62 76.5t73 85.5q13 -51 23 -96t21 -74q12 -28 41 -36q17 -5 32 -6.5t29 -1.5z" />
    <glyph glyph-name="udieresis" unicode="&#xfc;" horiz-adv-x="676" 
d="M-5 102q16 -28 38 -47t47 -33q58 -32 148 -38q45 -3 80 3.5t70 23.5q49 28 89 90t74 154t64.5 211.5t60.5 262.5q3 13 4 22.5t-2 17.5t-10.5 15.5t-21.5 16.5q-27 16 -59.5 32.5t-61 24t-48.5 1.5t-22 -36q-12 -62 -27 -141t-33.5 -160.5t-40 -158.5t-45 -135.5
t-49.5 -91.5t-53 -26q-22 6 -29.5 37t-5 78t13 106t25.5 121t32.5 122.5t33.5 112.5q17 61 -37 100q-26 19 -53.5 33t-57.5 23q-32 11 -47.5 5t-23.5 -35q-18 -64 -34.5 -131.5t-29.5 -134.5t-21 -132t-8 -123t9.5 -106.5t30.5 -83.5zM113 1057q-1 -23 7 -41.5t21.5 -32
t31 -20t37.5 -5.5q20 0 35.5 7.5t27 18.5t18.5 23t9 21q5 11 5 29q0 26 -16.5 49.5t-52.5 36.5q-27 9 -49 4.5t-38 -17t-25.5 -32t-10.5 -41.5zM425 1057q-5 -48 23 -75.5t70 -25.5q19 0 35 7.5t27.5 18.5t19 23.5t10.5 21.5q2 8 3 14.5t2 15.5q1 24 -14.5 48t-50.5 37
q-27 8 -49 3.5t-38.5 -17t-26 -31.5t-11.5 -40z" />
    <glyph glyph-name="yacute" unicode="&#xfd;" horiz-adv-x="651" 
d="M644 714q7 16 11 27.5t3.5 21.5t-5.5 19.5t-14 20.5q-16 15 -38.5 34t-45.5 30.5t-43 10t-29 -26.5q-52 -93 -104 -183t-106 -176q-27 86 -52 163t-48 137q-16 32 -29.5 47.5t-43.5 22.5t-58.5 5.5t-59.5 -3.5q-26 -5 -31.5 -14.5t5.5 -36.5q18 -56 40.5 -120.5
t46.5 -132t48 -134.5t45 -127q-12 -69 -18 -125.5t-13 -99.5q-2 -26 5 -39.5t29 -27.5q22 -9 48 -17.5t50 -14.5q26 -6 35 -2t14 24q11 54 23 111.5t29 124.5q44 63 91 132t89 134t75.5 121t50.5 94zM578 1152q-2 30 -10 49.5t-28 29.5q-37 20 -61 20.5t-41 -13.5
q-33 -26 -72 -50.5t-80 -47t-84 -43.5t-83 -40q-18 -11 -19.5 -22.5t3.5 -21t11.5 -15t5.5 -4.5q32 -17 56.5 -22.5t45.5 3.5q48 17 98.5 39t98 46t89 48t70.5 44z" />
    <glyph glyph-name="thorn" unicode="&#xfe;" horiz-adv-x="657" 
d="M236 794q-28 18 -64 34t-67 24q-32 9 -47 2.5t-23 -35.5q-10 -47 -21 -109.5t-21.5 -132.5t-20.5 -143t-18 -139t-13 -121.5t-6 -90.5q-2 -26 6 -40.5t31 -25.5q22 -11 46 -18t50 -14q26 -6 34 -1t13 22q3 17 6 35t7 37q58 15 117 37t113.5 48.5t101 57t79.5 62.5
q20 20 37.5 41t28.5 44t14.5 48.5t-3.5 54.5q-15 60 -43 101.5t-62 77.5q-22 20 -50.5 31t-61 14t-68.5 -0.5t-73 -11.5q2 9 6 18.5t6 18.5q6 27 0.5 41t-34.5 33zM168 257q15 60 29 115.5t29 107.5q36 15 71 22.5t63 8t46 -5t21 -17.5q7 -21 -6.5 -51.5t-46.5 -63
t-85 -63.5t-121 -53z" />
    <glyph glyph-name="ydieresis" unicode="&#xff;" horiz-adv-x="651" 
d="M644 714q7 16 11 27.5t3.5 21.5t-5.5 19.5t-14 20.5q-16 15 -38.5 34t-45.5 30.5t-43 10t-29 -26.5q-52 -93 -104 -183t-106 -176q-27 86 -52 163t-48 137q-16 32 -29.5 47.5t-43.5 22.5t-58.5 5.5t-59.5 -3.5q-26 -5 -31.5 -14.5t5.5 -36.5q18 -56 40.5 -120.5
t46.5 -132t48 -134.5t45 -127q-12 -69 -18 -125.5t-13 -99.5q-2 -26 5 -39.5t29 -27.5q22 -9 48 -17.5t50 -14.5q26 -6 35 -2t14 24q11 54 23 111.5t29 124.5q44 63 91 132t89 134t75.5 121t50.5 94zM371 1057q-2 -24 5 -43t20 -32t31 -20t38 -6q20 0 36 7.5t27.5 18.5
t19 23.5t10.5 21.5q1 8 2.5 14.5t1.5 15.5q2 24 -14 48t-51 37q-27 8 -49 3.5t-38.5 -17t-26.5 -31.5t-12 -40zM61 1057q-1 -23 7 -41.5t21.5 -32t31.5 -20t38 -5.5q19 0 35 7.5t27 18.5t17.5 23t8.5 21q6 13 6 29q0 26 -17 49.5t-55 36.5q-26 9 -48 4.5t-37.5 -17
t-24.5 -32t-10 -41.5z" />
    <glyph glyph-name="OE" unicode="&#x152;" horiz-adv-x="964" 
d="M321 864q-22 3 -45.5 1t-46.5 -8.5t-44.5 -17t-37.5 -23.5q-51 -45 -89 -101.5t-63 -119.5t-37 -129.5t-11 -130.5t14 -122t39 -104q17 -28 43.5 -50t54.5 -36q33 -17 73.5 -25.5t78.5 -12.5q52 -5 92 3t78 33q5 -4 10 -7t11 -7q7 -5 15.5 -9t19.5 -6t26 -1.5t35 5.5
q60 11 126.5 24t131.5 25q26 5 31.5 12.5t0.5 27.5q-7 18 -13 35.5t-18 37.5q-9 18 -25 24t-42 4q-51 -3 -93.5 -7.5t-89.5 -13.5q8 28 15.5 56.5t17.5 60.5q58 13 120.5 23t124.5 21q27 6 34 13.5t1 30.5q-5 20 -11 39.5t-19 40.5q-9 20 -24.5 26t-44.5 5q-33 -1 -63 -3
t-61 -7q18 54 32.5 102.5t29.5 93.5q72 11 136.5 17.5t124.5 13.5q30 4 38 13.5t5 35.5q-5 23 -9 42t-17 43q-13 46 -70 45q-56 -3 -112.5 -9.5t-110.5 -15.5t-104.5 -20t-94.5 -22q-33 20 -75.5 33t-87.5 21zM359 690q15 -5 25 -27t14 -55.5t3.5 -74.5t-6.5 -83l-15 -86
q0 -3 -0.5 -5.5t-0.5 -4.5q-13 -57 -32 -105.5t-41 -81.5t-45 -49t-44 -9q-23 7 -35.5 38t-16.5 74.5t1 94t17 97.5q13 48 34 99.5t46 93.5t50 66.5t46 17.5z" />
    <glyph glyph-name="oe" unicode="&#x153;" horiz-adv-x="964" 
d="M321 864q-22 3 -45.5 1t-46.5 -8.5t-44.5 -17t-37.5 -23.5q-51 -45 -89 -101.5t-63 -119.5t-37 -129.5t-11 -130.5t14 -122t39 -104q17 -28 43.5 -50t54.5 -36q33 -17 73.5 -25.5t78.5 -12.5q52 -5 92 3t78 33q5 -4 10 -7t11 -7q7 -5 15.5 -9t19.5 -6t26 -1.5t35 5.5
q60 11 126.5 24t131.5 25q26 5 31.5 12.5t0.5 27.5q-7 18 -13 35.5t-18 37.5q-9 18 -25 24t-42 4q-51 -3 -93.5 -7.5t-89.5 -13.5q8 28 15.5 56.5t17.5 60.5q58 13 120.5 23t124.5 21q27 6 34 13.5t1 30.5q-5 20 -11 39.5t-19 40.5q-9 20 -24.5 26t-44.5 5q-33 -1 -63 -3
t-61 -7q18 54 32.5 102.5t29.5 93.5q72 11 136.5 17.5t124.5 13.5q30 4 38 13.5t5 35.5q-5 23 -9 42t-17 43q-13 46 -70 45q-56 -3 -112.5 -9.5t-110.5 -15.5t-104.5 -20t-94.5 -22q-33 20 -75.5 33t-87.5 21zM359 690q15 -5 25 -27t14 -55.5t3.5 -74.5t-6.5 -83l-15 -86
q0 -3 -0.5 -5.5t-0.5 -4.5q-13 -57 -32 -105.5t-41 -81.5t-45 -49t-44 -9q-23 7 -35.5 38t-16.5 74.5t1 94t17 97.5q13 48 34 99.5t46 93.5t50 66.5t46 17.5z" />
    <glyph glyph-name="Scaron" unicode="&#x160;" horiz-adv-x="601" 
d="M-83 199q-19 -11 -19 -30q2 -18 45 -55q81 -75 157 -105.5t156 -28.5q60 1 103 15t73 34.5t48 44.5t28 45q16 29 10.5 54.5t-26 49t-52 45.5t-67 44.5t-71 46.5t-64.5 51q-23 20 -29 46t-1 53t19.5 54t33 50t38.5 41t36 27q19 13 27 11t9.5 -15t-2.5 -33.5t-9.5 -43
l-11 -45t-6.5 -39.5q-10 -83 126 -131q23 -9 36 -4t24 25q11 22 22 52t20 62.5t16 64.5t10 59q0 15 -0.5 31.5t-5 34.5t-15 36.5t-30.5 36.5q-30 29 -75 52t-90 39q-30 9 -57.5 10.5t-51 -2.5t-42.5 -12.5t-32 -17.5q-36 -22 -71 -54t-64 -69t-50.5 -76t-30.5 -73
q-13 -40 -12 -77t13 -69.5t33.5 -60t48.5 -49.5q25 -21 55.5 -41t61 -39t58 -36.5t46 -32t25 -26.5t-4.5 -19q-28 -22 -90.5 -7t-146.5 66q-15 10 -33.5 15.5t-39 7t-40.5 -2t-38 -10.5zM191 1374q-18 1 -23.5 -5.5t-0.5 -23.5q8 -28 17.5 -63.5t19.5 -74t19 -78t15 -74.5
q2 -22 7.5 -32t16.5 -22q12 -11 25.5 -19t27.5 -19q13 -8 24 -7.5t25 15.5q28 27 57.5 59.5t56.5 65.5t50 63t39 53q17 25 1 53q-11 17 -20.5 29t-20.5 23q-12 13 -21 13q-10 0 -19 -13q-30 -38 -65.5 -81.5t-75.5 -88.5q-13 52 -23.5 99t-21.5 80q-15 31 -44 39
q-19 5 -34.5 7t-31.5 2z" />
    <glyph glyph-name="scaron" unicode="&#x161;" horiz-adv-x="601" 
d="M-83 199q-19 -11 -19 -30q2 -18 45 -55q81 -75 157 -105.5t156 -28.5q60 1 103 15t73 34.5t48 44.5t28 45q16 29 10.5 54.5t-26 49t-52 45.5t-67 44.5t-71 46.5t-64.5 51q-23 20 -29 46t-1 53t19.5 54t33 50t38.5 41t36 27q19 13 27 11t9.5 -15t-2.5 -33.5t-9.5 -43
l-11 -45t-6.5 -39.5q-10 -83 126 -131q23 -9 36 -4t24 25q11 22 22 52t20 62.5t16 64.5t10 59q0 15 -0.5 31.5t-5 34.5t-15 36.5t-30.5 36.5q-30 29 -75 52t-90 39q-30 9 -57.5 10.5t-51 -2.5t-42.5 -12.5t-32 -17.5q-36 -22 -71 -54t-64 -69t-50.5 -76t-30.5 -73
q-13 -40 -12 -77t13 -69.5t33.5 -60t48.5 -49.5q25 -21 55.5 -41t61 -39t58 -36.5t46 -32t25 -26.5t-4.5 -19q-28 -22 -90.5 -7t-146.5 66q-15 10 -33.5 15.5t-39 7t-40.5 -2t-38 -10.5zM191 1374q-18 1 -23.5 -5.5t-0.5 -23.5q8 -28 17.5 -63.5t19.5 -74t19 -78t15 -74.5
q2 -22 7.5 -32t16.5 -22q12 -11 25.5 -19t27.5 -19q13 -8 24 -7.5t25 15.5q28 27 57.5 59.5t56.5 65.5t50 63t39 53q17 25 1 53q-11 17 -20.5 29t-20.5 23q-12 13 -21 13q-10 0 -19 -13q-30 -38 -65.5 -81.5t-75.5 -88.5q-13 52 -23.5 99t-21.5 80q-15 31 -44 39
q-19 5 -34.5 7t-31.5 2z" />
    <glyph glyph-name="Ydieresis" unicode="&#x178;" horiz-adv-x="651" 
d="M644 714q7 16 11 27.5t3.5 21.5t-5.5 19.5t-14 20.5q-16 15 -38.5 34t-45.5 30.5t-43 10t-29 -26.5q-52 -93 -104 -183t-106 -176q-27 86 -52 163t-48 137q-16 32 -29.5 47.5t-43.5 22.5t-58.5 5.5t-59.5 -3.5q-26 -5 -31.5 -14.5t5.5 -36.5q18 -56 40.5 -120.5
t46.5 -132t48 -134.5t45 -127q-12 -69 -18 -125.5t-13 -99.5q-2 -26 5 -39.5t29 -27.5q22 -9 48 -17.5t50 -14.5q26 -6 35 -2t14 24q11 54 23 111.5t29 124.5q44 63 91 132t89 134t75.5 121t50.5 94zM371 1057q-2 -24 5 -43t20 -32t31 -20t38 -6q20 0 36 7.5t27.5 18.5
t19 23.5t10.5 21.5q1 8 2.5 14.5t1.5 15.5q2 24 -14 48t-51 37q-27 8 -49 3.5t-38.5 -17t-26.5 -31.5t-12 -40zM61 1057q-1 -23 7 -41.5t21.5 -32t31.5 -20t38 -5.5q19 0 35 7.5t27 18.5t17.5 23t8.5 21q6 13 6 29q0 26 -17 49.5t-55 36.5q-26 9 -48 4.5t-37.5 -17
t-24.5 -32t-10 -41.5z" />
    <glyph glyph-name="florin" unicode="&#x192;" horiz-adv-x="934" 
d="M77 467q-78 -8 -42 -52q22 -34 71 -72q25 -20 48.5 -25t58.5 -1q20 2 40 4.5t41 4.5q-2 -17 -4 -34.5t-4 -36.5q-1 -3 -5 -22.5t-9 -42t-9 -42t-4 -21.5q-23 -65 -48 -106t-48 -40q-24 3 -30.5 24.5t-12.5 69.5q-4 75 -121 120q-17 7 -29 6.5t-19.5 -7.5t-12 -20
t-7.5 -30q-5 -44 -1.5 -77.5t20.5 -65.5q10 -22 24.5 -42t35.5 -37.5t49.5 -30.5t67.5 -22q37 -8 66.5 -9.5t54 2t44.5 11.5t37 18q38 24 66 59.5t50 88.5t40.5 128t38.5 178q54 2 107 4.5t105 4.5q37 1 51 7.5t6 26.5q-8 17 -14.5 35.5t-23.5 38.5q-24 36 -96 36h-53
q-26 0 -54 -1q3 17 6.5 35.5t6 34.5t4.5 26.5t2 12.5q15 40 30.5 74t30.5 58.5t29.5 38t27.5 13.5q14 -2 21.5 -9.5t11 -21.5t4 -35.5t1.5 -51.5q-3 -90 114 -140q34 -17 52 1t29 56q14 52 16.5 93t-9.5 82q-8 29 -20.5 56t-34 50.5t-53 42t-76.5 30.5q-43 12 -78.5 14
t-64.5 -3.5t-53.5 -16.5t-45.5 -25q-38 -28 -67 -65.5t-51.5 -89t-39.5 -118.5t-30 -152q-69 -5 -130.5 -10t-107.5 -10z" />
    <glyph glyph-name="circumflex" unicode="&#x2c6;" horiz-adv-x="670" 
d="M518 956q17 -1 22 5t2 21q-7 26 -15.5 60t-17 71.5t-16 77t-12.5 75.5q-2 12 -4 20t-5 14t-7 11.5t-9 12.5q-13 11 -27 21t-28 21q-14 9 -26.5 8.5t-26.5 -17.5q-29 -29 -58 -63.5t-55 -68.5t-47.5 -65.5t-35.5 -53.5q-15 -23 4 -50q11 -16 21 -26.5t21 -21.5
q13 -12 21 -12q11 0 17 12q29 35 61.5 76.5t72.5 85.5q14 -51 24.5 -96t20.5 -74q12 -29 42 -36q17 -5 32 -6.5t29 -1.5z" />
    <glyph glyph-name="tilde" unicode="&#x2dc;" horiz-adv-x="742" 
d="M521 985q54 0 120 50q37 26 54.5 49t18.5 42q1 18 -22 33q-20 10 -43 10q-25 0 -51 -20l-13 -13t-19 -18t-19.5 -16t-14.5 -7q-17 1 -33.5 7.5t-33 14t-32 15t-30.5 12.5q-27 10 -50.5 15t-48.5 5q-21 0 -51.5 -10.5t-60 -26t-53.5 -33t-32 -32.5q-9 -20 -9 -36
q1 -20 16 -29.5t41 -9.5q31 0 53 14q1 0 9.5 7t19.5 15.5t23 15.5t22 7q12 0 30 -3t36 -7.5t34 -10.5t24 -13q36 -27 115 -27z" />
    <glyph glyph-name="afii10023" unicode="&#x401;" horiz-adv-x="577" 
d="M41 798l-95 -665q-2 -27 7.5 -46t26.5 -33q21 -18 36.5 -29.5t32.5 -22.5q15 -10 35.5 -15.5t60.5 4.5q60 11 126 24t130 25q27 5 32 12.5t0 27.5q-8 18 -14.5 35.5t-18.5 37.5q-11 18 -26.5 24t-43.5 4q-50 -3 -92.5 -8t-89.5 -13q8 28 15 56.5t15 60.5q58 12 120.5 22
t122.5 21q28 6 34.5 14t-1.5 31q-5 20 -11.5 39.5t-18.5 39.5q-11 20 -27 26t-44 5q-34 -1 -64 -3t-60 -6q16 53 29 101.5t28 93.5q71 10 135 17t124 14q29 4 37 13t4 35q-5 23 -10 42.5t-18 43.5q-16 45 -73 44q-60 -2 -120.5 -9.5t-118 -17.5t-110 -22t-95.5 -23z
M362 1037q-2 -24 4.5 -43t19 -32t30.5 -20t38 -6q20 0 36 7.5t27.5 18.5t19.5 23.5t11 21.5q1 8 2.5 14.5t2.5 15.5q1 24 -14.5 48t-50.5 37q-27 8 -49.5 3.5t-39 -17t-26.5 -31.5t-11 -40zM91 1017q-1 -23 6.5 -41.5t21 -32t31.5 -20t38 -5.5q20 0 35.5 7.5t27 18.5t18 23
t8.5 21l4 14t2 15q0 26 -17 49.5t-54 36.5q-26 9 -48 4.5t-37.5 -17t-25 -32t-10.5 -41.5z" />
    <glyph glyph-name="afii10053" unicode="&#x404;" horiz-adv-x="642" 
d="M259 299q62 10 122 21q28 6 34.5 14t-1.5 31q-5 20 -11.5 39.5t-18.5 39.5q-11 20 -27 26t-44 5q-34 -1 -64 -3l-48 -4q7 16 15 34q24 56 52 102.5t55 75.5t47 23q20 -8 24 -34t3 -38q0 -18 3 -39q4 -25 13 -34t24 -23.5t38 -25t55 -16.5q17 -3 27 -2t15.5 5t8.5 11t6 15
q6 18 11 40.5t8 37t4.5 29.5t0.5 38q-1 20 -4 37.5t-10.5 33.5t-20 31.5t-31.5 31.5q-20 13 -45 25.5t-53 23t-58 18t-58 10.5q-38 3 -81 -8t-85 -47q-52 -45 -92.5 -104.5t-69.5 -126.5t-45.5 -137.5t-19.5 -137t7.5 -125t36.5 -101.5q15 -28 42 -49t54 -32
q30 -10 68 -21.5t85 -14.5q22 -2 45.5 0t45 7t41 13t33.5 17q28 20 56 50t46 66q17 31 15.5 52t-39.5 31q-95 27 -154 -33q-82 -84 -122 -71q-21 6 -32 34t-13 69q-2 33 2 71q50 10 104 19z" />
    <glyph glyph-name="afii10055" unicode="&#x406;" horiz-adv-x="312" 
d="M259 794q-27 18 -63 34t-67 24q-31 9 -46.5 2.5t-24.5 -35.5q-11 -47 -24 -109.5t-25.5 -132.5t-24.5 -143t-21.5 -139t-16 -121.5t-8.5 -90.5q-3 -26 4.5 -40.5t30.5 -25.5q21 -11 44.5 -18t49.5 -14q26 -6 34.5 -1t13.5 22q9 45 21.5 102.5t27.5 122t31 132t32.5 132
t33 122.5t30.5 103q7 27 1.5 41t-33.5 33z" />
    <glyph glyph-name="afii10056" unicode="&#x407;" horiz-adv-x="312" 
d="M250 794q-27 18 -63 34t-67 24q-32 9 -47 2.5t-24 -35.5q-11 -47 -23 -109.5t-23.5 -132.5t-23 -143t-20 -139t-14.5 -121.5t-8 -90.5q-3 -26 4.5 -40.5t30.5 -25.5q22 -11 45.5 -18t49.5 -14q26 -6 34.5 -1t13.5 22q9 45 21 102.5t26 122t29.5 132t31 132t31 122.5
t29.5 103q3 13 4 23t-2.5 18t-11.5 16t-23 17zM-25 1017q-1 -23 7 -41.5t21.5 -32t31.5 -20t38 -5.5q19 0 35 7.5t27 18.5t18 23t9 21q5 11 5 29q0 26 -17 49.5t-53 36.5q-27 9 -49 4.5t-37.5 -17t-25 -32t-10.5 -41.5zM247 1017q-5 -48 23 -75.5t70 -25.5q20 0 35.5 7.5
t27 18.5t19 23.5t10.5 21.5q2 8 3 14.5t2 15.5q1 24 -15 48t-51 37q-27 8 -49 3.5t-38 -17t-26 -31.5t-11 -40z" />
    <glyph glyph-name="afii10062" unicode="&#x40e;" horiz-adv-x="686" 
d="M322 235q-21 -60 -41 -96t-41 -35q-24 3 -30 25.5t-10 42.5q-3 38 -122 79q-36 12 -52 2t-21 -40q-3 -14 0 -34.5t19 -53.5q10 -23 24 -44t35 -39t49.5 -32t67.5 -23q75 -17 123.5 -7.5t83.5 30.5q44 28 82 90t70.5 154t60.5 213t53 268q3 13 3.5 22.5t-3 17.5
t-11.5 15.5t-23 17.5q-29 18 -65.5 32t-66.5 22q-31 8 -47.5 1.5t-22.5 -36.5q-9 -63 -21.5 -141t-27.5 -158q-9 -50 -19 -99q-39 -27 -108 -31q-52 -1 -32 62q9 49 26.5 126t33.5 134q3 13 4 23t-2.5 18t-12 16t-23.5 17q-27 18 -63.5 33.5t-68.5 24.5q-29 11 -44 5
t-23 -38q-12 -84 -23.5 -183.5t-18.5 -189.5t56 -132.5t159 -41.5q78 5 111 20q-7 -28 -18 -57zM353 875q54 -4 123 49q40 28 59.5 53.5t22.5 48.5q2 21 -20 40q-19 14 -42 16q-14 1 -26.5 -4t-25.5 -13t-29.5 -22.5t-31.5 -20t-31 -4t-32 8.5t-48.5 25t-54.5 10.5
t-28.5 -41.5t7 -57t24 -33.5t24.5 -21.5t42.5 -21t66.5 -13z" />
    <glyph glyph-name="afii10017" unicode="&#x410;" horiz-adv-x="718" 
d="M417 189q3 -41 6 -75.5t7 -63.5q4 -28 13.5 -39t33.5 -18q23 -8 45 -9.5t48 -1.5t33.5 7t7.5 25q-1 86 -0.5 186.5t2.5 200.5t6 192t10 163q3 29 -5.5 47t-39.5 29q-23 6 -45.5 13t-49 13t-58.5 10.5t-73 6.5q-47 4 -71 -13t-39 -44q-42 -75 -88.5 -171.5t-91 -195.5
t-83 -192t-62.5 -162q-6 -21 -5.5 -33.5t5.5 -20.5t14 -13.5t21 -13.5q16 -8 31.5 -14.5t28.5 -11.5q23 -8 34.5 -5t19.5 20q14 32 29 65.5t35 72.5q57 15 131.5 25.5t149.5 20.5zM226 329q47 95 93.5 183.5t86.5 161.5q-2 -80 -1 -161.5t3 -163.5q-46 -3 -91.5 -8
t-90.5 -12z" />
    <glyph glyph-name="afii10018" unicode="&#x411;" 
d="M178 288q40 13 73 17.5t58 1.5t40 -11t20 -18q4 -17 -10.5 -37.5t-44.5 -41t-73 -39t-95 -31.5q7 40 15.5 78.5t16.5 80.5zM564 177q8 15 11 34q13 38 8 82q-5 38 -31 74.5t-65 57.5q-98 60 -269 38q8 30 15 58q21 98 35 139q71 10 135.5 17t124.5 15q30 4 37 12.5
t3 34.5q-4 43 -31 88q-9 14 -17 22.5t-16.5 13t-19 6t-25.5 1.5q-60 -2 -121.5 -7t-120.5 -12.5t-112.5 -17t-70 -16.5t-18.5 -35q-2 -77 -9.5 -162.5t-17 -170t-17.5 -163t-11 -140.5q-2 -19 0 -31t7 -21.5t13.5 -18t19.5 -20.5q30 -23 52.5 -37.5t52.5 -27.5q16 -9 28 -13
t24.5 -5t26 1t32.5 7q36 9 76 22.5t79.5 30.5t75 38t61.5 44q38 30 55 62z" />
    <glyph glyph-name="afii10019" unicode="&#x412;" 
d="M480 383q34 17 59 35.5t49 36.5q22 19 41 40.5t32 46.5t18.5 52t0.5 56q-11 53 -34.5 93t-58.5 75q-27 26 -69 39.5t-92.5 16.5t-106.5 -3t-110.5 -19t-104.5 -31t-88 -39q-2 -77 -9.5 -162.5t-17 -170t-17.5 -163t-11 -140.5q-2 -19 0 -31t7 -21.5t13.5 -18t19.5 -20.5
q30 -23 52.5 -37.5t52.5 -27.5q16 -9 28 -13t24.5 -5t26 1t32.5 7q36 9 76 22.5t79.5 30.5t75 38t61.5 44q38 30 55 61.5t12 76.5q-8 38 -32.5 74t-63.5 56zM216 454q14 53 24 100t24 90q43 20 80 30t65.5 11.5t46.5 -5t22 -19.5q4 -16 -12 -42.5t-50.5 -56t-85 -58.5
t-114.5 -50zM178 288q40 13 73 17.5t58 1.5t40 -11t20 -18q4 -17 -10.5 -37.5t-44.5 -41t-73 -39t-95 -31.5q7 40 15.5 78.5t16.5 80.5z" />
    <glyph glyph-name="afii10020" unicode="&#x413;" horiz-adv-x="570" 
d="M543 692q30 4 37 12.5t3 34.5q-4 43 -31 88q-9 14 -17 22.5t-16.5 13t-19 6t-25.5 1.5q-60 -2 -121.5 -7t-120.5 -12.5t-112.5 -17t-96.5 -21.5q3 -49 -1 -114t-12.5 -136.5t-19.5 -144.5t-21 -137.5t-17.5 -116t-8.5 -79.5q0 -26 5 -40t30 -26q19 -8 44.5 -17
t48.5 -12.5t39 0t17 21.5q12 54 26.5 123.5t33.5 146.5q61 241 71.5 290t24.5 90q71 10 135.5 17t124.5 15z" />
    <glyph glyph-name="afii10021" unicode="&#x414;" horiz-adv-x="709" 
d="M-136 63q-10 -37 -13 -71.5t-3 -52.5q-2 -41 2 -58t19 -31q29 -15 75 -2.5t63.5 24.5t29.5 42q6 27 9.5 37t8.5 33q81 7 200.5 11t167.5 2q-7 -31 -13 -57.5t-9 -52.5q6 -19 14 -27t47 -8t80 18q31 17 43.5 34.5t25.5 58.5q12 38 21.5 70.5t14.5 70.5q12 76 -82 75h-1
q0 7 1 15q5 106 12 206.5t16 192.5t15 163q3 29 -5.5 47t-39.5 29q-23 6 -45.5 13t-49 13t-58.5 10.5t-73 6.5q-47 4 -71 -13t-39 -44q-42 -75 -83.5 -171.5t-77.5 -195.5t-69 -192q-20 -63 -33 -115q-86 -8 -100 -81zM285 449q60 152 100 225q-12 -150 -16 -226.5
t-7 -187.5q-1 -52 -1 -87q-85 -5 -172 -12q48 173 96 288z" />
    <glyph glyph-name="afii10022" unicode="&#x415;" horiz-adv-x="577" 
d="M41 798l-95 -665q-2 -27 7.5 -46t26.5 -33q21 -18 36.5 -29.5t32.5 -22.5q15 -10 35.5 -15.5t60.5 4.5q60 11 126 24t130 25q27 5 32 12.5t0 27.5q-8 18 -14.5 35.5t-18.5 37.5q-11 18 -26.5 24t-43.5 4q-50 -3 -92.5 -8t-89.5 -13q8 28 15 56.5t15 60.5q58 12 120.5 22
t122.5 21q28 6 34.5 14t-1.5 31q-5 20 -11.5 39.5t-18.5 39.5q-11 20 -27 26t-44 5q-34 -1 -64 -3t-60 -6q16 53 29 101.5t28 93.5q71 10 135 17t124 14q29 4 37 13t4 35q-5 23 -10 42.5t-18 43.5q-16 45 -73 44q-60 -2 -120.5 -9.5t-118 -17.5t-110 -22t-95.5 -23z" />
    <glyph glyph-name="afii10024" unicode="&#x416;" horiz-adv-x="966" 
d="M256 599q-16 27 -45 78t-84 175q-10 22 -25 22q-17 0 -44 -18q-28 -19 -35.5 -27t-29.5 -35q-16 -22 -20.5 -43t3.5 -52q11 -38 33.5 -79.5t51.5 -90t61.5 -96.5t62.5 -90q-31 -33 -81.5 -87.5t-79.5 -86.5t-54 -59t-47 -45q-18 -16 -18 -26.5t14 -21.5q10 -7 26 -12
t52 -9q24 -5 47 -1t60 33q15 12 36.5 33t48 46.5t61.5 57.5q16 15 31 32q-8 -86 -9 -114q-2 -37 18 -55t65 -30q22 -6 40.5 -11.5t31.5 -6t20 5t7 20.5q8 45 18 101t24 132q21 -30 45 -66.5t46.5 -63.5t41.5 -48t30 -33q27 -29 54 -33t53 3q17 2 34.5 7t30.5 12
q22 10 25.5 21.5t-13.5 31.5q-16 18 -49 61.5t-70 96t-60 100.5q46 41 89 86.5t77 84t69 84t58 83.5q19 31 21.5 53.5t-5.5 44.5q-13 27 -30 50t-39 42q-25 18 -42 18q-15 0 -32 -22q-23 -34 -47 -70.5t-61.5 -86.5t-85 -106t-89.5 -89q17 55 32 119.5t30 115.5q4 13 5 22.5
t-3 17.5t-13 15.5t-24 17.5q-27 18 -63.5 34t-68.5 24q-29 9 -45 2.5t-24 -34.5q-10 -47 -21 -111t-22 -135q-6 -41 -12 -83q-50 71 -62 94z" />
    <glyph glyph-name="afii10025" unicode="&#x417;" horiz-adv-x="649" 
d="M64 383q43 -63 86.5 -72t86.5 -8t58.5 -7t21.5 -18q12 -27 -0.5 -47.5t-36 -41t-62.5 -34t-71.5 -10t-95 30t-110.5 -29.5q-3 -17 6.5 -30t15.5 -22.5t15 -18t22 -20.5q32 -23 55.5 -37.5t47.5 -25.5t57.5 -14t83.5 8.5t98 34.5t82 47t58.5 50.5t39 58t9.5 76.5
q-6 38 -39 74t-73 56q32 17 55.5 35.5t45.5 36.5q20 19 37 40.5t28 46.5t14 52t-5 56q-16 53 -43 93t-65 75q-29 26 -72.5 39.5t-94 16.5t-100.5 -13t-83 -34t-70.5 -51t-49.5 -62t66.5 -69.5t123 -10.5t65.5 40t49.5 11.5t47 -5t23.5 -19.5q6 -16 -7.5 -42.5t-45.5 -56
t-81 -57t-135 -50.5q-101 -9 -58 -72z" />
    <glyph glyph-name="afii10026" unicode="&#x418;" horiz-adv-x="711" 
d="M482 828q-35 -43 -57 -82q-20 -31 -46.5 -77t-58.5 -106t-67 -122t-98 -164l8 39l28 124l72 279q23 71 -8 84q-38 18 -73 29t-72 22q-31 8 -49 0.5t-25 -37.5q-11 -52 -22.5 -119t-22.5 -139t-20.5 -144.5t-17 -136t-12 -113.5t-6.5 -77q-2 -26 5.5 -40.5t29.5 -25.5
q23 -14 47.5 -20.5t48.5 -12.5q26 -7 35 -2l4 2q21 9 49 44q28 32 77 97t79 114t67 103q5 8 15 23q-6 -25 -10 -43q-67 -293 -23 -310q48 -17 94 -26q54 -12 60 26q16 70 38.5 162.5t47 189.5t49.5 191t48 168q8 26 4.5 44.5t-32.5 36.5q-17 11 -30 18t-24.5 12t-23.5 8
t-27 7q-32 8 -48 1q-6 -2 -10 -6q-11 -8 -23 -21z" />
    <glyph glyph-name="afii10027" unicode="&#x419;" horiz-adv-x="711" 
d="M482 828q-35 -43 -57 -82q-20 -31 -46.5 -77t-58.5 -106t-67 -122t-98 -164l8 39l28 124l72 279q23 71 -8 84q-38 18 -73 29t-72 22q-31 8 -49 0.5t-25 -37.5q-11 -52 -22.5 -119t-22.5 -139t-20.5 -144.5t-17 -136t-12 -113.5t-6.5 -77q-2 -26 5.5 -40.5t29.5 -25.5
q23 -14 47.5 -20.5t48.5 -12.5q26 -7 35 -2l4 2q21 9 49 44q28 32 77 97t79 114t67 103q5 8 15 23q-6 -25 -10 -43q-67 -293 -23 -310q48 -17 94 -26q54 -12 60 26q16 70 38.5 162.5t47 189.5t49.5 191t48 168q8 26 4.5 44.5t-32.5 36.5q-17 11 -30 18t-24.5 12t-23.5 8
t-27 7q-32 8 -48 1q-6 -2 -10 -6q-11 -8 -23 -21zM383 865q54 -4 123 49q40 28 59.5 53.5t22.5 48.5q2 21 -20 40q-19 14 -42 16q-14 1 -26.5 -4t-25.5 -13t-29.5 -22.5t-31.5 -20t-31 -4t-32 8.5t-48.5 25t-54.5 10.5t-28.5 -41.5t7 -57t24 -33.5t24.5 -21.5t42.5 -21
t66.5 -13z" />
    <glyph glyph-name="afii10028" unicode="&#x41a;" horiz-adv-x="664" 
d="M332 303q44 42 93 90t94.5 96.5t84 95t61.5 84.5q19 31 21.5 52t-5.5 43q-13 27 -27.5 50t-36.5 42q-21 18 -38 18q-15 0 -32 -22q-26 -32 -66.5 -78t-87 -97t-95.5 -103.5t-91 -98.5q17 78 32 143.5t30 116.5q4 13 5 22.5t-3 17.5t-13 15.5t-24 17.5q-27 18 -63.5 34
t-68.5 24q-29 9 -45 2.5t-24 -34.5q-10 -47 -21 -111t-22 -135.5t-21 -146t-18 -142.5t-13 -124.5t-6 -91.5q-2 -37 18 -55t65 -30q22 -6 40.5 -11.5t31.5 -6t20 5t7 20.5q8 45 18 100t23 121q21 -30 45.5 -60.5t47 -57.5t41.5 -48t30 -33q27 -29 54 -33t53 3q17 2 34.5 7
t30.5 12q22 10 25.5 20.5t-13.5 27.5q-16 18 -37 45t-44 59t-46.5 66.5t-43.5 67.5z" />
    <glyph glyph-name="afii10029" unicode="&#x41b;" horiz-adv-x="701" 
d="M383 113.5q3 -34.5 7 -63.5q4 -28 13.5 -39t33.5 -18q33 -8 55 -9.5t48 -1.5t33.5 7t7.5 25q-1 86 4.5 186t12.5 200.5t16 192.5t15 163q3 29 -5.5 47t-39.5 29q-23 6 -45.5 13t-49 13t-58.5 10.5t-73 6.5q-47 4 -71 -13t-39 -44q-42 -75 -88.5 -171.5t-91 -195.5
t-83 -192t-62.5 -162q-6 -21 -5.5 -33.5t5.5 -20.5t14 -13.5t21 -13.5q16 -8 31.5 -14.5t28.5 -11.5q23 -8 34.5 -5t19.5 20q14 32 29 65.5t35 72.5l90 186q47 95 93.5 183.5t86.5 161.5q-12 -150 -16 -226.5t-7 -188t0 -146z" />
    <glyph glyph-name="afii10030" unicode="&#x41c;" horiz-adv-x="924" 
d="M187 489q15 -100 33.5 -194t38.5 -166q5 -17 9.5 -28t10.5 -18.5t14 -12t19 -8.5q30 -10 70 -18q13 -3 21 -2.5t13 3.5t8.5 9.5t8.5 17.5q16 35 42.5 87.5t58 111.5t65 120t63.5 113q-17 -59 -31.5 -122t-26.5 -120.5t-21 -105t-13 -77.5q-5 -25 2.5 -40t30.5 -26
q18 -10 42 -17t47 -12q26 -6 35 2t16 26q8 35 22 88t31.5 116t37 132t39 136t38.5 128t34 108q11 33 3.5 51.5t-36.5 32.5q-44 20 -89.5 35t-86.5 26q-35 10 -57.5 8t-40.5 -17.5t-35 -45t-40 -75.5q-23 -40 -47.5 -85t-47.5 -90t-44.5 -88t-37.5 -79q-16 103 -25 162
t-13.5 91t-6 44.5t-1.5 21.5q-4 19 -7.5 34t-11.5 27.5t-22 23t-38 19.5q-38 14 -75.5 24t-91.5 18q-35 5 -51.5 -3.5t-25.5 -42.5q-9 -47 -18.5 -108.5t-19 -130.5t-17.5 -140t-14.5 -137t-10 -122.5t-3.5 -95.5q-2 -26 7 -40t34 -26q20 -10 43.5 -17.5t46.5 -12.5
q24 -5 33 0.5t13 23.5q4 43 11.5 98t17.5 118t22 131t25 136z" />
    <glyph glyph-name="afii10031" unicode="&#x41d;" horiz-adv-x="678" 
d="M687 739q8 26 2.5 40t-31.5 33q-28 18 -59 32.5t-60 22.5q-31 9 -47.5 4.5t-25.5 -36.5q-23 -85 -46.5 -189.5t-48.5 -210.5q-38 -3 -78.5 -6t-82.5 -8l37.5 165t33.5 134q3 13 4 23t-2.5 18t-12 16t-23.5 17q-27 18 -63.5 33.5t-68.5 24.5q-29 11 -44 5t-23 -38
q-12 -84 -23.5 -183.5t-23.5 -199.5t-25 -192t-28 -161q-6 -26 4 -40.5t33 -25.5q19 -11 45.5 -18t51.5 -14q26 -6 34.5 -1t12.5 22q8 48 18 108.5t26 129.5q42 7 82.5 12.5t82.5 11.5q-11 -58 -19 -105t-12 -83q-9 -36 14 -53.5t64 -29.5q20 -5 37.5 -9.5t30.5 -5t20.5 4
t7.5 18.5q20 83 45.5 180t53 195t55.5 191t52 168z" />
    <glyph glyph-name="afii10032" unicode="&#x41e;" 
d="M541 790q-34 27 -85.5 46t-108.5 28q-44 7 -92.5 -7t-83.5 -41q-52 -45 -91.5 -101.5t-66.5 -119.5t-41 -129.5t-15 -130.5t11 -122t36 -104q15 -28 41 -50t53 -36q33 -17 73 -25.5t78 -12.5q57 -6 101 4.5t84 41.5q59 52 99.5 127t64 159.5t29.5 170t-5 158.5
q-8 44 -25.5 78.5t-55.5 65.5zM380 690q20 -6 29.5 -41.5t9.5 -85.5q0 -49 -8 -105.5t-21 -103.5q-15 -57 -35.5 -105.5t-43.5 -81.5t-46 -49t-44 -9q-23 7 -35 38t-14 74.5t4 94t20 97.5q14 48 36.5 99.5t48.5 93.5t52 66.5t47 17.5z" />
    <glyph glyph-name="afii10033" unicode="&#x41f;" horiz-adv-x="678" 
d="M427 677q-4 -16 -7 -31q-24 -105 -49 -211l-33 -167q-11 -58 -19 -105t-12 -83q-9 -36 14 -53.5t64 -29.5q20 -5 37.5 -9.5t30.5 -5t20.5 4t7.5 18.5q20 83 45.5 180t53 195t55.5 191t52 168q8 26 2.5 40t-31.5 33q-28 18 -59 32.5t-60 22.5q-31 9 -55 6
q-60 -2 -121.5 -7t-120.5 -12q-46 -6 -89 -14q-40 -6 -68.5 -15t-36.5 -41q-12 -54 -23.5 -151t-23.5 -197t-25 -192t-28 -161q-6 -26 4 -40.5t33 -25.5q19 -11 45.5 -18t51.5 -14q26 -6 34.5 -1t12.5 22q8 48 18 108.5t26 129.5l37 177q20 88 38 165q8 37 16 69
q110 16 163 22z" />
    <glyph glyph-name="afii10034" unicode="&#x420;" horiz-adv-x="708" 
d="M185 215q60 16 121.5 38.5t117.5 50.5t103.5 60t81.5 66q21 21 38.5 43t29 46t15 51t-3.5 58q-16 63 -44.5 106.5t-62.5 81.5q-29 28 -68.5 39.5t-85.5 10.5t-95.5 -12.5t-98.5 -29t-95 -39t-84 -41.5q-10 -5 -17.5 -49.5t-13.5 -110.5t-12 -144t-12 -150.5t-13.5 -129.5
t-16.5 -81q-6 -26 3.5 -42t28.5 -26.5t43.5 -17t50.5 -13.5q26 -5 35 0t14 21q8 51 18.5 104t22.5 110zM228 403q15 63 29.5 121t30.5 112q37 16 72.5 24t64 9t47 -5.5t21.5 -18.5q8 -22 -6 -54t-48 -66.5t-87 -67t-124 -54.5z" />
    <glyph glyph-name="afii10035" unicode="&#x421;" horiz-adv-x="642" 
d="M474 210q-95 27 -154 -33q-82 -84 -122 -71q-21 6 -32 34t-13 68.5t4.5 90t19.5 99.5q14 48 38.5 104t52.5 102.5t55 75.5t47 23q20 -8 24 -34t3 -58q0 -18 3 -39q4 -25 13 -44t24 -33.5t38 -25t55 -16.5q17 -3 27 -2t15.5 5t8.5 11t6 15q6 18 11 40.5t8 47t4.5 49.5
t0.5 48q-1 20 -4 37.5t-10.5 33.5t-20 31.5t-31.5 31.5q-20 13 -45 25.5t-53 23t-58 18t-58 10.5q-38 3 -81 -8t-85 -47q-52 -45 -92.5 -104.5t-69.5 -126.5t-45.5 -137.5t-19.5 -137t7.5 -125t36.5 -101.5q15 -28 42 -49t54 -32q30 -10 68 -21.5t85 -14.5q22 -2 45.5 0
t45 7t41 13t33.5 17q28 20 56 50t46 66q17 31 15.5 52t-39.5 31z" />
    <glyph glyph-name="afii10036" unicode="&#x422;" horiz-adv-x="664" 
d="M642 702q31 2 36.5 10.5t-0.5 31.5q-7 26 -20 53t-33 50q-10 13 -23.5 18.5t-44.5 5.5q-59 -2 -133.5 -7.5t-152 -13.5t-152 -18t-133.5 -22q-19 -5 -25 -12.5t6 -30.5q11 -22 28.5 -54t38.5 -53q20 -21 36 -25.5t41 1.5q18 5 45 8.5t56 8.5q-15 -68 -30 -147.5
t-27.5 -157.5t-21.5 -148t-12 -118q-4 -19 1 -32.5t16.5 -23.5t28.5 -17t38 -13t38 -11t30 -5.5t20.5 4t9.5 18.5q14 73 32.5 157t39.5 172.5t43.5 178.5l43.5 174q49 5 95 9.5t85 8.5z" />
    <glyph glyph-name="afii10037" unicode="&#x423;" horiz-adv-x="686" 
d="M323 232q-21 -58 -41.5 -93.5t-41.5 -34.5q-24 3 -29 19t-9 36q-3 38 -120 76q-36 12 -52 2t-21 -40q-3 -14 -1 -33t16 -39q10 -23 24 -44t35 -39t49.5 -32t67.5 -23q75 -17 123.5 -7.5t83.5 30.5q44 28 82 90t70.5 154t60.5 213t53 268q3 13 3.5 22.5t-3 17.5
t-11.5 15.5t-23 17.5q-29 18 -65.5 32t-66.5 22q-31 8 -47.5 1.5t-22.5 -36.5q-9 -63 -21.5 -141t-27.5 -158q-9 -50 -19 -99q-39 -27 -108 -31q-52 -1 -32 62q9 49 26.5 126t33.5 134q3 13 4 23t-2.5 18t-12 16t-23.5 17q-27 18 -63.5 33.5t-68.5 24.5q-29 11 -44 5
t-23 -38q-12 -84 -23.5 -183.5t-18.5 -189.5t56 -134t159 -41q68 3 111 19q-7 -26 -17 -58z" />
    <glyph glyph-name="afii10038" unicode="&#x424;" horiz-adv-x="970" 
d="M561 552q23 5 43 8q34 4 61.5 2t45.5 -10t21 -20q8 -21 -5 -54t-45.5 -61t-83.5 -52q-37 -18 -85 -30q4 14 7 28q16 67 28 127q7 35 13 62zM296 332q-18 -3 -35 -4q-36 -2 -63.5 1.5t-45.5 12.5t-21 20q-8 21 5 53.5t45.5 59.5t83.5 49q29 13 66 21q-11 -67 -20 -122
q-8 -46 -15 -91zM310 718q-60 -15 -115.5 -35t-95.5 -42.5t-73 -50.5q-20 -17 -36.5 -35.5t-27.5 -39.5t-14 -60.5t4 -68.5q6 -34 34 -82t62 -86q28 -29 66.5 -44t83.5 -18q34 -3 74 -1q-7 -42 -9 -72q-3 -26 4.5 -40.5t30.5 -25.5q21 -11 44.5 -18t49.5 -14q26 -6 34.5 -1
t13.5 22q9 45 22 103q5 26 12 54q41 7 83 18q59 14 113 34t99.5 45t78.5 52q20 18 36.5 36.5t27.5 39t14 45t-4 54.5q-16 59 -44.5 107.5t-61.5 86.5q-29 29 -67.5 43.5t-82.5 18.5q-29 3 -70 1q6 24 1 37q-6 14 -59 38.5t-84 32.5q-31 9 -46.5 2.5t-24.5 -35.5
q-8 -33 -19 -88q-27 -7 -54 -13z" />
    <glyph glyph-name="afii10039" unicode="&#x425;" horiz-adv-x="708" 
d="M303 593q-21 51 -40.5 97.5t-35.5 87.5q-14 29 -33 46.5t-54 22.5q-17 1 -33 1.5t-31 0.5h-29h-15t-15 -1q-29 -4 -35 -15.5t6 -43.5q13 -32 31.5 -74t40 -90t45.5 -99.5t48 -102.5q-71 -90 -129.5 -171.5t-93.5 -137.5q-8 -12 -10.5 -21t-2.5 -16q1 -9 11 -22
t24.5 -26.5t30.5 -25.5t30 -20q39 -25 63 5q35 42 78.5 99.5t97.5 122.5q32 -68 55.5 -114.5t35.5 -63.5q17 -24 32 -34.5t42 -13.5q54 -5 104 0q44 6 21 41q-29 67 -65.5 153.5t-78.5 186.5q75 88 144.5 168.5t123.5 143.5q18 21 23 44t-12 50q-14 22 -36 47.5t-45 43.5
q-11 7 -22 11t-22 4q-21 0 -41 -23q-42 -47 -94.5 -114t-113.5 -147z" />
    <glyph glyph-name="afii10040" unicode="&#x426;" horiz-adv-x="729" 
d="M141 159q16 69 34.5 146.5t39 153.5t41 148t40.5 132q9 26 2.5 40t-32.5 33q-27 18 -63 32.5t-67 22.5q-31 9 -46.5 3.5t-25.5 -34.5q-14 -51 -28.5 -112t-28.5 -127t-26 -132.5t-22 -128.5t-17 -115.5t-10 -92.5q-4 -25 5 -42.5t26 -31.5q23 -18 37 -29.5t31 -22.5
q7 -5 14.5 -9t18.5 -6.5t26 -1.5q32 0 48 1q94 7 156.5 12t117.5 10q-7 -31 -13.5 -61.5t-6.5 -55.5q-1 -16 7.5 -23.5t47.5 -7.5t77 15q31 17 43.5 34.5t25.5 57.5q12 38 21.5 72t14.5 72q12 75 -92 74h-10q12 46 46 169.5t62 216.5t52 168q8 26 2.5 40t-31.5 33
q-28 18 -59 32.5t-60 22.5q-31 9 -47.5 4.5t-25.5 -36.5q-23 -85 -46.5 -189.5t-81.5 -381.5q-10 -49 -17 -87q-124 -13 -180 -18z" />
    <glyph glyph-name="afii10041" unicode="&#x427;" horiz-adv-x="668" 
d="M677 739q8 26 2.5 40t-31.5 33q-28 18 -59 32.5t-60 22.5q-31 9 -47.5 4.5t-25.5 -36.5q-23 -85 -46.5 -189.5t-53.5 -225.5q-48 -16 -99.5 -19t-42.5 50q14 58 32.5 135t34.5 134q3 13 4 23t-2.5 18t-12 16t-23.5 17q-27 18 -63.5 33.5t-68.5 24.5q-29 11 -44 5t-23 -38
q-12 -84 -26 -186t-23.5 -245t195.5 -135q75 7 134 23q-11 -56 -19 -108t-12 -88q-9 -36 14 -53.5t64 -29.5q20 -5 37.5 -9.5t30.5 -5t20.5 4t7.5 18.5q20 83 45.5 180t53 195t55.5 191t52 168z" />
    <glyph glyph-name="afii10042" unicode="&#x428;" horiz-adv-x="1021" 
d="M140 153q16 69 34.5 146.5t39 153.5t41 148t40.5 132q9 26 2.5 40t-32.5 33q-27 18 -63 32.5t-67 22.5q-31 9 -46.5 3.5t-25.5 -34.5q-14 -51 -28.5 -112t-28.5 -127t-26 -132.5t-22 -128.5t-17 -115.5t-10 -92.5q-4 -25 5 -42.5t26 -31.5q23 -18 37 -29.5t31 -22.5
q7 -5 14.5 -9t18.5 -6.5t26 -1.5q32 0 48 1q550 20 612 26q47 -2 64 49q45 176 79 299.5t62 216.5t52 168q8 26 2.5 40t-31.5 33q-28 18 -59 32.5t-60 22.5q-31 9 -47.5 4.5t-25.5 -36.5q-23 -85 -46.5 -189.5t-81.5 -381.5q-9 -48 -15 -86q-66 -5 -142 -10q15 68 33.5 145
t39.5 153.5t41.5 148.5t40.5 132q9 26 2.5 40t-32.5 33q-27 18 -63 32.5t-67 22.5q-31 9 -46.5 3.5t-25.5 -34.5q-14 -51 -28.5 -112t-28.5 -127t-26 -132.5t-22 -130t-16 -108t-9 -70.5q-71 -5 -153 -11z" />
    <glyph glyph-name="afii10043" unicode="&#x429;" horiz-adv-x="1060" 
d="M140 153q16 69 34.5 146.5t39 153.5t41 148t40.5 132q9 26 2.5 40t-32.5 33q-27 18 -63 32.5t-67 22.5q-31 9 -46.5 3.5t-25.5 -34.5q-14 -51 -28.5 -112t-28.5 -127t-26 -132.5t-22 -128.5t-17 -115.5t-10 -92.5q-4 -25 5 -42.5t26 -31.5q23 -18 37 -29.5t31 -22.5
q7 -5 14.5 -9t18.5 -6.5t26 -1.5q32 0 48 1q547 19 589 23q-7 -21 -13 -53.5t-7 -58.5q2 -19 10 -27t47 -8t80 18q31 17 43.5 34.5t25.5 58.5q12 38 21.5 72t14.5 72q12 75 -92 74h-10q12 46 46 169.5t62 216.5t52 168q8 26 2.5 40t-31.5 33q-28 18 -59 32.5t-60 22.5
q-31 9 -47.5 4.5t-25.5 -36.5q-23 -85 -46.5 -189.5t-81.5 -381.5q-9 -48 -17 -86q-64 -5 -140 -10q15 68 33.5 145t39.5 153.5t41.5 148.5t40.5 132q9 26 2.5 40t-32.5 33q-27 18 -63 32.5t-67 22.5q-31 9 -46.5 3.5t-25.5 -34.5q-14 -51 -28.5 -112t-28.5 -127t-26 -132.5
t-22 -130t-16 -108t-9 -70.5q-71 -5 -153 -11z" />
    <glyph glyph-name="afii10044" unicode="&#x42a;" horiz-adv-x="770" 
d="M297 288q40 13 73 17.5t58 1.5t40 -11t20 -18q4 -17 -10.5 -37.5t-44.5 -41t-73 -39t-95 -31.5q7 40 15.5 78.5t16.5 80.5zM683 177q8 15 11 34q13 38 8 82q-5 38 -31 74.5t-65 57.5q-99 61 -271 38q16 83 26 128q20 95 38 172q5 26 -1.5 40.5t-33.5 31.5q-27 16 -78 15
q-6 2 -36.5 -0.5t-68 -8.5t-61.5 -9q-75 -10 -134 -22q-19 -5 -25 -12.5t6 -30.5q11 -22 28.5 -54t38.5 -53q20 -21 36 -25.5t41 1.5q12 3 28 6q-11 -83 -25 -188q-15 -109 -23 -177.5t-11 -130.5q-2 -19 0 -31t7 -21.5t13.5 -18t19.5 -20.5q30 -23 52.5 -37.5t52.5 -27.5
q16 -9 28 -13t24.5 -5t26 1t32.5 7q36 9 76 22.5t79.5 30.5t75 38t61.5 44q38 30 55 62z" />
    <glyph glyph-name="afii10045" unicode="&#x42b;" horiz-adv-x="949" 
d="M178 288q40 13 73 17.5t58 1.5t40 -11t20 -18q4 -17 -10.5 -37.5t-44.5 -41t-73 -39t-95 -31.5q7 40 15.5 78.5t16.5 80.5zM905 794q-27 18 -63 34t-67 24q-31 9 -46.5 2.5t-24.5 -35.5q-11 -47 -24 -109.5t-25.5 -132.5t-24.5 -143t-21.5 -139t-16 -121.5t-8.5 -90.5
q-3 -26 4.5 -40.5t30.5 -25.5q21 -11 44.5 -18t49.5 -14q26 -6 34.5 -1t13.5 22q9 45 21.5 102.5t27.5 122t31 132t32.5 132t33 122.5t30.5 103q7 27 1.5 41t-33.5 33zM242 591q20 95 38 172q5 26 -1.5 39.5t-33.5 30.5q-30 16 -62 28t-61 17q-32 7 -48 1t-23 -39
q-16 -86 -30 -192q-12 -85 -26.5 -194t-22.5 -177.5t-11 -130.5q-2 -19 0 -31t7 -21.5t13.5 -18t19.5 -20.5q30 -23 52.5 -37.5t52.5 -27.5q16 -9 28 -13t24.5 -5t26 1t32.5 7q36 9 76 22.5t79.5 30.5t75 38t61.5 44q38 30 59 76.5t15 101.5q-5 38 -31 74.5t-65 57.5
q-99 61 -272 38q16 81 27 128z" />
    <glyph glyph-name="afii10046" unicode="&#x42c;" horiz-adv-x="649" 
d="M178 288q40 13 73 17.5t58 1.5t40 -11t20 -18q4 -17 -10.5 -37.5t-44.5 -41t-73 -39t-95 -31.5q7 40 15.5 78.5t16.5 80.5zM242 591q20 95 38 172q5 26 -1.5 39.5t-33.5 30.5q-30 16 -62 28t-61 17q-32 7 -48 1t-23 -39q-16 -86 -30 -192q-12 -85 -26.5 -194
t-22.5 -177.5t-11 -130.5q-2 -19 0 -31t7 -21.5t13.5 -18t19.5 -20.5q30 -23 52.5 -37.5t52.5 -27.5q16 -9 28 -13t24.5 -5t26 1t32.5 7q36 9 76 22.5t79.5 30.5t75 38t61.5 44q38 30 59 76.5t15 101.5q-5 38 -31 74.5t-65 57.5q-99 61 -272 38q16 81 27 128z" />
    <glyph glyph-name="afii10047" unicode="&#x42d;" horiz-adv-x="642" 
d="M281 254q-24 -43 -50 -76q-27 -24 -44.5 -31.5t-29.5 -4.5q-48 12 -93 52q-57 48 -106 -2q-7 -16 -6 -29t7.5 -25t13 -23t13.5 -23q4 -6 9 -12q28 -36 68.5 -67t126.5 -40q26 -2 55 2q33 5 61 19q47 22 90.5 65t79 101.5t61.5 127t38 141t10 146t-24 139.5
q-6 21 -18.5 40t-28.5 34t-33 27t-33 20q-23 13 -49 23t-52.5 17.5t-57 10t-53.5 1.5q-43 -2 -73 -20t-58 -48q-13 -16 -19 -25.5t-13 -24t-15.5 -31.5t-23.5 -51q-4 -22 0 -33t25 -24q60 -32 104.5 -26t60.5 20q8 7 11 10.5t23 28.5q24 33 39.5 41.5t25.5 5.5
q20 -7 29 -41.5t8 -84.5q-1 -48 -10 -102q-48 -6 -94 -10.5t-86 -10.5t-61.5 -13.5t-24.5 -31.5t15 -51t37 -47q17 -17 38 -21t56 -0.5t73 6.5q-10 -25 -22 -49z" />
    <glyph glyph-name="afii10048" unicode="&#x42e;" horiz-adv-x="1011" 
d="M700 690q20 -6 29.5 -41.5t9.5 -85.5q0 -49 -8 -105.5t-21 -103.5q-15 -57 -35.5 -105.5t-43.5 -81.5t-46 -49t-44 -9q-23 7 -35 38t-14 74.5t4 94t20 97.5q14 48 36.5 99.5t48.5 93.5t52 66.5t47 17.5zM291 201q6 -49 34 -94q15 -28 40 -50.5t52 -36.5q33 -17 73 -25.5
t78 -12.5q58 -3 102 7.5t84 41.5q59 52 99.5 127t64 159.5t29.5 170t-5 158.5q-8 44 -25.5 78.5t-55.5 65.5q-34 27 -85.5 46t-108.5 28q-44 7 -90.5 -6.5t-81.5 -40.5q-52 -45 -86.5 -96.5t-62.5 -120.5q-25 -64 -39 -126q-43 -3 -84 -8q20 88 31 142.5t27 111.5q3 13 4 23
t-2.5 18t-12 16t-23.5 17q-27 18 -63.5 33.5t-68.5 24.5q-29 11 -44 5t-23 -38q-12 -84 -23.5 -183.5t-23.5 -199.5t-25 -192t-28 -161q-6 -26 4 -40.5t33 -25.5q19 -11 45.5 -18t51.5 -14q26 -6 34.5 -1t12.5 22q8 48 24.5 131t34.5 162q42 7 82 11q7 0 14 2q-2 -70 7 -111
z" />
    <glyph glyph-name="afii10049" unicode="&#x42f;" horiz-adv-x="688" 
d="M388 454q-49 -19 -84 -24.5t-64 -5.5q-59 0 -71 28q-6 17 10 48t52 65.5t89.5 68t120.5 54.5q-18 -74 -29.5 -127t-23.5 -107zM347 259q-6 -42 -15 -96q-8 -47 -12 -83q-9 -36 14 -53.5t64 -29.5q20 -5 37.5 -9.5t30.5 -5t20.5 4t7.5 18.5q20 83 44.5 178t51 196
t53.5 194.5t42 166.5q8 26 2.5 40t-31.5 33q-28 18 -58.5 32t-59.5 22q-20 6 -34 6q-5 0 -9 -1q-71 -5 -199 -58q-112 -50 -192.5 -108t-115.5 -127q-23 -43 -10 -110q17 -65 35.5 -93.5t52.5 -64.5q22 -21 49 -30q-19 -37 -38 -62q-62 -88 -80.5 -115t-34.5 -47
q-9 -19 -5.5 -29t18.5 -21q17 -10 29.5 -14t30.5 -8q20 -1 34 1.5t40 24.5q21 20 50 51t105 120q19 21 67 75z" />
    <glyph glyph-name="afii10065" unicode="&#x430;" horiz-adv-x="718" 
d="M417 189q3 -41 6 -75.5t7 -63.5q4 -28 13.5 -39t33.5 -18q23 -8 45 -9.5t48 -1.5t33.5 7t7.5 25q-1 86 -0.5 186.5t2.5 200.5t6 192t10 163q3 29 -5.5 47t-39.5 29q-23 6 -45.5 13t-49 13t-58.5 10.5t-73 6.5q-47 4 -71 -13t-39 -44q-42 -75 -88.5 -171.5t-91 -195.5
t-83 -192t-62.5 -162q-6 -21 -5.5 -33.5t5.5 -20.5t14 -13.5t21 -13.5q16 -8 31.5 -14.5t28.5 -11.5q23 -8 34.5 -5t19.5 20q14 32 29 65.5t35 72.5q57 15 131.5 25.5t149.5 20.5zM226 329q47 95 93.5 183.5t86.5 161.5q-2 -80 -1 -161.5t3 -163.5q-46 -3 -91.5 -8
t-90.5 -12z" />
    <glyph glyph-name="afii10066" unicode="&#x431;" 
d="M178 288q40 13 73 17.5t58 1.5t40 -11t20 -18q4 -17 -10.5 -37.5t-44.5 -41t-73 -39t-95 -31.5q7 40 15.5 78.5t16.5 80.5zM564 177q8 15 11 34q13 38 8 82q-5 38 -31 74.5t-65 57.5q-98 60 -269 38q8 30 15 58q21 98 35 139q71 10 135.5 17t124.5 15q30 4 37 12.5
t3 34.5q-4 43 -31 88q-9 14 -17 22.5t-16.5 13t-19 6t-25.5 1.5q-60 -2 -121.5 -7t-120.5 -12.5t-112.5 -17t-70 -16.5t-18.5 -35q-2 -77 -9.5 -162.5t-17 -170t-17.5 -163t-11 -140.5q-2 -19 0 -31t7 -21.5t13.5 -18t19.5 -20.5q30 -23 52.5 -37.5t52.5 -27.5q16 -9 28 -13
t24.5 -5t26 1t32.5 7q36 9 76 22.5t79.5 30.5t75 38t61.5 44q38 30 55 62z" />
    <glyph glyph-name="afii10067" unicode="&#x432;" 
d="M480 383q34 17 59 35.5t49 36.5q22 19 41 40.5t32 46.5t18.5 52t0.5 56q-11 53 -34.5 93t-58.5 75q-27 26 -69 39.5t-92.5 16.5t-106.5 -3t-110.5 -19t-104.5 -31t-88 -39q-2 -77 -9.5 -162.5t-17 -170t-17.5 -163t-11 -140.5q-2 -19 0 -31t7 -21.5t13.5 -18t19.5 -20.5
q30 -23 52.5 -37.5t52.5 -27.5q16 -9 28 -13t24.5 -5t26 1t32.5 7q36 9 76 22.5t79.5 30.5t75 38t61.5 44q38 30 55 61.5t12 76.5q-8 38 -32.5 74t-63.5 56zM216 454q14 53 24 100t24 90q43 20 80 30t65.5 11.5t46.5 -5t22 -19.5q4 -16 -12 -42.5t-50.5 -56t-85 -58.5
t-114.5 -50zM178 288q40 13 73 17.5t58 1.5t40 -11t20 -18q4 -17 -10.5 -37.5t-44.5 -41t-73 -39t-95 -31.5q7 40 15.5 78.5t16.5 80.5z" />
    <glyph glyph-name="afii10068" unicode="&#x433;" horiz-adv-x="570" 
d="M543 692q30 4 37 12.5t3 34.5q-4 43 -31 88q-9 14 -17 22.5t-16.5 13t-19 6t-25.5 1.5q-60 -2 -121.5 -7t-120.5 -12.5t-112.5 -17t-96.5 -21.5q3 -49 -1 -114t-12.5 -136.5t-19.5 -144.5t-21 -137.5t-17.5 -116t-8.5 -79.5q0 -26 5 -40t30 -26q19 -8 44.5 -17
t48.5 -12.5t39 0t17 21.5q12 54 26.5 123.5t33.5 146.5q61 241 71.5 290t24.5 90q71 10 135.5 17t124.5 15z" />
    <glyph glyph-name="afii10069" unicode="&#x434;" horiz-adv-x="709" 
d="M-136 63q-10 -37 -13 -71.5t-3 -52.5q-2 -41 2 -58t19 -31q29 -15 75 -2.5t63.5 24.5t29.5 42q6 27 9.5 37t8.5 33q81 7 200.5 11t167.5 2q-7 -31 -13 -57.5t-9 -52.5q6 -19 14 -27t47 -8t80 18q31 17 43.5 34.5t25.5 58.5q12 38 21.5 70.5t14.5 70.5q12 76 -82 75h-1
q0 7 1 15q5 106 12 206.5t16 192.5t15 163q3 29 -5.5 47t-39.5 29q-23 6 -45.5 13t-49 13t-58.5 10.5t-73 6.5q-47 4 -71 -13t-39 -44q-42 -75 -83.5 -171.5t-77.5 -195.5t-69 -192q-20 -63 -33 -115q-86 -8 -100 -81zM285 449q60 152 100 225q-12 -150 -16 -226.5
t-7 -187.5q-1 -52 -1 -87q-85 -5 -172 -12q48 173 96 288z" />
    <glyph glyph-name="afii10070" unicode="&#x435;" horiz-adv-x="577" 
d="M41 798l-95 -665q-2 -27 7.5 -46t26.5 -33q21 -18 36.5 -29.5t32.5 -22.5q15 -10 35.5 -15.5t60.5 4.5q60 11 126 24t130 25q27 5 32 12.5t0 27.5q-8 18 -14.5 35.5t-18.5 37.5q-11 18 -26.5 24t-43.5 4q-50 -3 -92.5 -8t-89.5 -13q8 28 15 56.5t15 60.5q58 12 120.5 22
t122.5 21q28 6 34.5 14t-1.5 31q-5 20 -11.5 39.5t-18.5 39.5q-11 20 -27 26t-44 5q-34 -1 -64 -3t-60 -6q16 53 29 101.5t28 93.5q71 10 135 17t124 14q29 4 37 13t4 35q-5 23 -10 42.5t-18 43.5q-16 45 -73 44q-60 -2 -120.5 -9.5t-118 -17.5t-110 -22t-95.5 -23z" />
    <glyph glyph-name="afii10072" unicode="&#x436;" horiz-adv-x="966" 
d="M256 599q-16 27 -45 78t-84 175q-10 22 -25 22q-17 0 -44 -18q-28 -19 -35.5 -27t-29.5 -35q-16 -22 -20.5 -43t3.5 -52q11 -38 33.5 -79.5t51.5 -90t61.5 -96.5t62.5 -90q-31 -33 -81.5 -87.5t-79.5 -86.5t-54 -59t-47 -45q-18 -16 -18 -26.5t14 -21.5q10 -7 26 -12
t52 -9q24 -5 47 -1t60 33q15 12 36.5 33t48 46.5t61.5 57.5q16 15 31 32q-8 -86 -9 -114q-2 -37 18 -55t65 -30q22 -6 40.5 -11.5t31.5 -6t20 5t7 20.5q8 45 18 101t24 132q21 -30 45 -66.5t46.5 -63.5t41.5 -48t30 -33q27 -29 54 -33t53 3q17 2 34.5 7t30.5 12
q22 10 25.5 21.5t-13.5 31.5q-16 18 -49 61.5t-70 96t-60 100.5q46 41 89 86.5t77 84t69 84t58 83.5q19 31 21.5 53.5t-5.5 44.5q-13 27 -30 50t-39 42q-25 18 -42 18q-15 0 -32 -22q-23 -34 -47 -70.5t-61.5 -86.5t-85 -106t-89.5 -89q17 55 32 119.5t30 115.5q4 13 5 22.5
t-3 17.5t-13 15.5t-24 17.5q-27 18 -63.5 34t-68.5 24q-29 9 -45 2.5t-24 -34.5q-10 -47 -21 -111t-22 -135q-6 -41 -12 -83q-50 71 -62 94z" />
    <glyph glyph-name="afii10073" unicode="&#x437;" horiz-adv-x="649" 
d="M64 383q43 -63 86.5 -72t86.5 -8t58.5 -7t21.5 -18q12 -27 -0.5 -47.5t-36 -41t-62.5 -34t-71.5 -10t-95 30t-110.5 -29.5q-3 -17 6.5 -30t15.5 -22.5t15 -18t22 -20.5q32 -23 55.5 -37.5t47.5 -25.5t57.5 -14t83.5 8.5t98 34.5t82 47t58.5 50.5t39 58t9.5 76.5
q-6 38 -39 74t-73 56q32 17 55.5 35.5t45.5 36.5q20 19 37 40.5t28 46.5t14 52t-5 56q-16 53 -43 93t-65 75q-29 26 -72.5 39.5t-94 16.5t-100.5 -13t-83 -34t-70.5 -51t-49.5 -62t66.5 -69.5t123 -10.5t65.5 40t49.5 11.5t47 -5t23.5 -19.5q6 -16 -7.5 -42.5t-45.5 -56
t-81 -57t-135 -50.5q-101 -9 -58 -72z" />
    <glyph glyph-name="afii10074" unicode="&#x438;" horiz-adv-x="711" 
d="M482 828q-35 -43 -57 -82q-20 -31 -46.5 -77t-58.5 -106t-67 -122t-98 -164l8 39l28 124l72 279q23 71 -8 84q-38 18 -73 29t-72 22q-31 8 -49 0.5t-25 -37.5q-11 -52 -22.5 -119t-22.5 -139t-20.5 -144.5t-17 -136t-12 -113.5t-6.5 -77q-2 -26 5.5 -40.5t29.5 -25.5
q23 -14 47.5 -20.5t48.5 -12.5q26 -7 35 -2l4 2q21 9 49 44q28 32 77 97t79 114t67 103q5 8 15 23q-6 -25 -10 -43q-67 -293 -23 -310q48 -17 94 -26q54 -12 60 26q16 70 38.5 162.5t47 189.5t49.5 191t48 168q8 26 4.5 44.5t-32.5 36.5q-17 11 -30 18t-24.5 12t-23.5 8
t-27 7q-32 8 -48 1q-6 -2 -10 -6q-11 -8 -23 -21z" />
    <glyph glyph-name="afii10075" unicode="&#x439;" horiz-adv-x="711" 
d="M482 828q-35 -43 -57 -82q-20 -31 -46.5 -77t-58.5 -106t-67 -122t-98 -164l8 39l28 124l72 279q23 71 -8 84q-38 18 -73 29t-72 22q-31 8 -49 0.5t-25 -37.5q-11 -52 -22.5 -119t-22.5 -139t-20.5 -144.5t-17 -136t-12 -113.5t-6.5 -77q-2 -26 5.5 -40.5t29.5 -25.5
q23 -14 47.5 -20.5t48.5 -12.5q26 -7 35 -2l4 2q21 9 49 44q28 32 77 97t79 114t67 103q5 8 15 23q-6 -25 -10 -43q-67 -293 -23 -310q48 -17 94 -26q54 -12 60 26q16 70 38.5 162.5t47 189.5t49.5 191t48 168q8 26 4.5 44.5t-32.5 36.5q-17 11 -30 18t-24.5 12t-23.5 8
t-27 7q-32 8 -48 1q-6 -2 -10 -6q-11 -8 -23 -21zM383 865q54 -4 123 49q40 28 59.5 53.5t22.5 48.5q2 21 -20 40q-19 14 -42 16q-14 1 -26.5 -4t-25.5 -13t-29.5 -22.5t-31.5 -20t-31 -4t-32 8.5t-48.5 25t-54.5 10.5t-28.5 -41.5t7 -57t24 -33.5t24.5 -21.5t42.5 -21
t66.5 -13z" />
    <glyph glyph-name="afii10076" unicode="&#x43a;" horiz-adv-x="664" 
d="M332 303q44 42 93 90t94.5 96.5t84 95t61.5 84.5q19 31 21.5 52t-5.5 43q-13 27 -27.5 50t-36.5 42q-21 18 -38 18q-15 0 -32 -22q-26 -32 -66.5 -78t-87 -97t-95.5 -103.5t-91 -98.5q17 78 32 143.5t30 116.5q4 13 5 22.5t-3 17.5t-13 15.5t-24 17.5q-27 18 -63.5 34
t-68.5 24q-29 9 -45 2.5t-24 -34.5q-10 -47 -21 -111t-22 -135.5t-21 -146t-18 -142.5t-13 -124.5t-6 -91.5q-2 -37 18 -55t65 -30q22 -6 40.5 -11.5t31.5 -6t20 5t7 20.5q8 45 18 100t23 121q21 -30 45.5 -60.5t47 -57.5t41.5 -48t30 -33q27 -29 54 -33t53 3q17 2 34.5 7
t30.5 12q22 10 25.5 20.5t-13.5 27.5q-16 18 -37 45t-44 59t-46.5 66.5t-43.5 67.5z" />
    <glyph glyph-name="afii10077" unicode="&#x43b;" horiz-adv-x="701" 
d="M383 113.5q3 -34.5 7 -63.5q4 -28 13.5 -39t33.5 -18q33 -8 55 -9.5t48 -1.5t33.5 7t7.5 25q-1 86 4.5 186t12.5 200.5t16 192.5t15 163q3 29 -5.5 47t-39.5 29q-23 6 -45.5 13t-49 13t-58.5 10.5t-73 6.5q-47 4 -71 -13t-39 -44q-42 -75 -88.5 -171.5t-91 -195.5
t-83 -192t-62.5 -162q-6 -21 -5.5 -33.5t5.5 -20.5t14 -13.5t21 -13.5q16 -8 31.5 -14.5t28.5 -11.5q23 -8 34.5 -5t19.5 20q14 32 29 65.5t35 72.5l90 186q47 95 93.5 183.5t86.5 161.5q-12 -150 -16 -226.5t-7 -188t0 -146z" />
    <glyph glyph-name="afii10078" unicode="&#x43c;" horiz-adv-x="924" 
d="M187 489q15 -100 33.5 -194t38.5 -166q5 -17 9.5 -28t10.5 -18.5t14 -12t19 -8.5q30 -10 70 -18q13 -3 21 -2.5t13 3.5t8.5 9.5t8.5 17.5q16 35 42.5 87.5t58 111.5t65 120t63.5 113q-17 -59 -31.5 -122t-26.5 -120.5t-21 -105t-13 -77.5q-5 -25 2.5 -40t30.5 -26
q18 -10 42 -17t47 -12q26 -6 35 2t16 26q8 35 22 88t31.5 116t37 132t39 136t38.5 128t34 108q11 33 3.5 51.5t-36.5 32.5q-44 20 -89.5 35t-86.5 26q-35 10 -57.5 8t-40.5 -17.5t-35 -45t-40 -75.5q-23 -40 -47.5 -85t-47.5 -90t-44.5 -88t-37.5 -79q-16 103 -25 162
t-13.5 91t-6 44.5t-1.5 21.5q-4 19 -7.5 34t-11.5 27.5t-22 23t-38 19.5q-38 14 -75.5 24t-91.5 18q-35 5 -51.5 -3.5t-25.5 -42.5q-9 -47 -18.5 -108.5t-19 -130.5t-17.5 -140t-14.5 -137t-10 -122.5t-3.5 -95.5q-2 -26 7 -40t34 -26q20 -10 43.5 -17.5t46.5 -12.5
q24 -5 33 0.5t13 23.5q4 43 11.5 98t17.5 118t22 131t25 136z" />
    <glyph glyph-name="afii10079" unicode="&#x43d;" horiz-adv-x="678" 
d="M687 739q8 26 2.5 40t-31.5 33q-28 18 -59 32.5t-60 22.5q-31 9 -47.5 4.5t-25.5 -36.5q-23 -85 -46.5 -189.5t-48.5 -210.5q-38 -3 -78.5 -6t-82.5 -8l37.5 165t33.5 134q3 13 4 23t-2.5 18t-12 16t-23.5 17q-27 18 -63.5 33.5t-68.5 24.5q-29 11 -44 5t-23 -38
q-12 -84 -23.5 -183.5t-23.5 -199.5t-25 -192t-28 -161q-6 -26 4 -40.5t33 -25.5q19 -11 45.5 -18t51.5 -14q26 -6 34.5 -1t12.5 22q8 48 18 108.5t26 129.5q42 7 82.5 12.5t82.5 11.5q-11 -58 -19 -105t-12 -83q-9 -36 14 -53.5t64 -29.5q20 -5 37.5 -9.5t30.5 -5t20.5 4
t7.5 18.5q20 83 45.5 180t53 195t55.5 191t52 168z" />
    <glyph glyph-name="afii10080" unicode="&#x43e;" 
d="M541 790q-34 27 -85.5 46t-108.5 28q-44 7 -92.5 -7t-83.5 -41q-52 -45 -91.5 -101.5t-66.5 -119.5t-41 -129.5t-15 -130.5t11 -122t36 -104q15 -28 41 -50t53 -36q33 -17 73 -25.5t78 -12.5q57 -6 101 4.5t84 41.5q59 52 99.5 127t64 159.5t29.5 170t-5 158.5
q-8 44 -25.5 78.5t-55.5 65.5zM380 690q20 -6 29.5 -41.5t9.5 -85.5q0 -49 -8 -105.5t-21 -103.5q-15 -57 -35.5 -105.5t-43.5 -81.5t-46 -49t-44 -9q-23 7 -35 38t-14 74.5t4 94t20 97.5q14 48 36.5 99.5t48.5 93.5t52 66.5t47 17.5z" />
    <glyph glyph-name="afii10081" unicode="&#x43f;" horiz-adv-x="678" 
d="M427 677q-4 -16 -7 -31q-24 -105 -49 -211l-33 -167q-11 -58 -19 -105t-12 -83q-9 -36 14 -53.5t64 -29.5q20 -5 37.5 -9.5t30.5 -5t20.5 4t7.5 18.5q20 83 45.5 180t53 195t55.5 191t52 168q8 26 2.5 40t-31.5 33q-28 18 -59 32.5t-60 22.5q-31 9 -55 6
q-60 -2 -121.5 -7t-120.5 -12q-46 -6 -89 -14q-40 -6 -68.5 -15t-36.5 -41q-12 -54 -23.5 -151t-23.5 -197t-25 -192t-28 -161q-6 -26 4 -40.5t33 -25.5q19 -11 45.5 -18t51.5 -14q26 -6 34.5 -1t12.5 22q8 48 18 108.5t26 129.5l37 177q20 88 38 165q8 37 16 69
q110 16 163 22z" />
    <glyph glyph-name="afii10082" unicode="&#x440;" horiz-adv-x="708" 
d="M185 215q60 16 121.5 38.5t117.5 50.5t103.5 60t81.5 66q21 21 38.5 43t29 46t15 51t-3.5 58q-16 63 -44.5 106.5t-62.5 81.5q-29 28 -68.5 39.5t-85.5 10.5t-95.5 -12.5t-98.5 -29t-95 -39t-84 -41.5q-10 -5 -17.5 -49.5t-13.5 -110.5t-12 -144t-12 -150.5t-13.5 -129.5
t-16.5 -81q-6 -26 3.5 -42t28.5 -26.5t43.5 -17t50.5 -13.5q26 -5 35 0t14 21q8 51 18.5 104t22.5 110zM228 403q15 63 29.5 121t30.5 112q37 16 72.5 24t64 9t47 -5.5t21.5 -18.5q8 -22 -6 -54t-48 -66.5t-87 -67t-124 -54.5z" />
    <glyph glyph-name="afii10083" unicode="&#x441;" horiz-adv-x="642" 
d="M474 210q-95 27 -154 -33q-82 -84 -122 -71q-21 6 -32 34t-13 68.5t4.5 90t19.5 99.5q14 48 38.5 104t52.5 102.5t55 75.5t47 23q20 -8 24 -34t3 -58q0 -18 3 -39q4 -25 13 -44t24 -33.5t38 -25t55 -16.5q17 -3 27 -2t15.5 5t8.5 11t6 15q6 18 11 40.5t8 47t4.5 49.5
t0.5 48q-1 20 -4 37.5t-10.5 33.5t-20 31.5t-31.5 31.5q-20 13 -45 25.5t-53 23t-58 18t-58 10.5q-38 3 -81 -8t-85 -47q-52 -45 -92.5 -104.5t-69.5 -126.5t-45.5 -137.5t-19.5 -137t7.5 -125t36.5 -101.5q15 -28 42 -49t54 -32q30 -10 68 -21.5t85 -14.5q22 -2 45.5 0
t45 7t41 13t33.5 17q28 20 56 50t46 66q17 31 15.5 52t-39.5 31z" />
    <glyph glyph-name="afii10084" unicode="&#x442;" horiz-adv-x="664" 
d="M642 702q31 2 36.5 10.5t-0.5 31.5q-7 26 -20 53t-33 50q-10 13 -23.5 18.5t-44.5 5.5q-59 -2 -133.5 -7.5t-152 -13.5t-152 -18t-133.5 -22q-19 -5 -25 -12.5t6 -30.5q11 -22 28.5 -54t38.5 -53q20 -21 36 -25.5t41 1.5q18 5 45 8.5t56 8.5q-15 -68 -30 -147.5
t-27.5 -157.5t-21.5 -148t-12 -118q-4 -19 1 -32.5t16.5 -23.5t28.5 -17t38 -13t38 -11t30 -5.5t20.5 4t9.5 18.5q14 73 32.5 157t39.5 172.5t43.5 178.5l43.5 174q49 5 95 9.5t85 8.5z" />
    <glyph glyph-name="afii10085" unicode="&#x443;" horiz-adv-x="686" 
d="M323 232q-21 -58 -41.5 -93.5t-41.5 -34.5q-24 3 -29 19t-9 36q-3 38 -120 76q-36 12 -52 2t-21 -40q-3 -14 -1 -33t16 -39q10 -23 24 -44t35 -39t49.5 -32t67.5 -23q75 -17 123.5 -7.5t83.5 30.5q44 28 82 90t70.5 154t60.5 213t53 268q3 13 3.5 22.5t-3 17.5
t-11.5 15.5t-23 17.5q-29 18 -65.5 32t-66.5 22q-31 8 -47.5 1.5t-22.5 -36.5q-9 -63 -21.5 -141t-27.5 -158q-9 -50 -19 -99q-39 -27 -108 -31q-52 -1 -32 62q9 49 26.5 126t33.5 134q3 13 4 23t-2.5 18t-12 16t-23.5 17q-27 18 -63.5 33.5t-68.5 24.5q-29 11 -44 5
t-23 -38q-12 -84 -23.5 -183.5t-18.5 -189.5t56 -134t159 -41q68 3 111 19q-7 -26 -17 -58z" />
    <glyph glyph-name="afii10086" unicode="&#x444;" horiz-adv-x="970" 
d="M561 552q23 5 43 8q34 4 61.5 2t45.5 -10t21 -20q8 -21 -5 -54t-45.5 -61t-83.5 -52q-37 -18 -85 -30q4 14 7 28q16 67 28 127q7 35 13 62zM296 332q-18 -3 -35 -4q-36 -2 -63.5 1.5t-45.5 12.5t-21 20q-8 21 5 53.5t45.5 59.5t83.5 49q29 13 66 21q-11 -67 -20 -122
q-8 -46 -15 -91zM310 718q-60 -15 -115.5 -35t-95.5 -42.5t-73 -50.5q-20 -17 -36.5 -35.5t-27.5 -39.5t-14 -60.5t4 -68.5q6 -34 34 -82t62 -86q28 -29 66.5 -44t83.5 -18q34 -3 74 -1q-7 -42 -9 -72q-3 -26 4.5 -40.5t30.5 -25.5q21 -11 44.5 -18t49.5 -14q26 -6 34.5 -1
t13.5 22q9 45 22 103q5 26 12 54q41 7 83 18q59 14 113 34t99.5 45t78.5 52q20 18 36.5 36.5t27.5 39t14 45t-4 54.5q-16 59 -44.5 107.5t-61.5 86.5q-29 29 -67.5 43.5t-82.5 18.5q-29 3 -70 1q6 24 1 37q-6 14 -59 38.5t-84 32.5q-31 9 -46.5 2.5t-24.5 -35.5
q-8 -33 -19 -88q-27 -7 -54 -13z" />
    <glyph glyph-name="afii10087" unicode="&#x445;" horiz-adv-x="708" 
d="M303 593q-21 51 -40.5 97.5t-35.5 87.5q-14 29 -33 46.5t-54 22.5q-17 1 -33 1.5t-31 0.5h-29h-15t-15 -1q-29 -4 -35 -15.5t6 -43.5q13 -32 31.5 -74t40 -90t45.5 -99.5t48 -102.5q-71 -90 -129.5 -171.5t-93.5 -137.5q-8 -12 -10.5 -21t-2.5 -16q1 -9 11 -22
t24.5 -26.5t30.5 -25.5t30 -20q39 -25 63 5q35 42 78.5 99.5t97.5 122.5q32 -68 55.5 -114.5t35.5 -63.5q17 -24 32 -34.5t42 -13.5q54 -5 104 0q44 6 21 41q-29 67 -65.5 153.5t-78.5 186.5q75 88 144.5 168.5t123.5 143.5q18 21 23 44t-12 50q-14 22 -36 47.5t-45 43.5
q-11 7 -22 11t-22 4q-21 0 -41 -23q-42 -47 -94.5 -114t-113.5 -147z" />
    <glyph glyph-name="afii10088" unicode="&#x446;" horiz-adv-x="729" 
d="M141 159q16 69 34.5 146.5t39 153.5t41 148t40.5 132q9 26 2.5 40t-32.5 33q-27 18 -63 32.5t-67 22.5q-31 9 -46.5 3.5t-25.5 -34.5q-14 -51 -28.5 -112t-28.5 -127t-26 -132.5t-22 -128.5t-17 -115.5t-10 -92.5q-4 -25 5 -42.5t26 -31.5q23 -18 37 -29.5t31 -22.5
q7 -5 14.5 -9t18.5 -6.5t26 -1.5q32 0 48 1q94 7 156.5 12t117.5 10q-7 -31 -13.5 -61.5t-6.5 -55.5q-1 -16 7.5 -23.5t47.5 -7.5t77 15q31 17 43.5 34.5t25.5 57.5q12 38 21.5 72t14.5 72q12 75 -92 74h-10q12 46 46 169.5t62 216.5t52 168q8 26 2.5 40t-31.5 33
q-28 18 -59 32.5t-60 22.5q-31 9 -47.5 4.5t-25.5 -36.5q-23 -85 -46.5 -189.5t-81.5 -381.5q-10 -49 -17 -87q-124 -13 -180 -18z" />
    <glyph glyph-name="afii10089" unicode="&#x447;" horiz-adv-x="668" 
d="M677 739q8 26 2.5 40t-31.5 33q-28 18 -59 32.5t-60 22.5q-31 9 -47.5 4.5t-25.5 -36.5q-23 -85 -46.5 -189.5t-53.5 -225.5q-48 -16 -99.5 -19t-42.5 50q14 58 32.5 135t34.5 134q3 13 4 23t-2.5 18t-12 16t-23.5 17q-27 18 -63.5 33.5t-68.5 24.5q-29 11 -44 5t-23 -38
q-12 -84 -26 -186t-23.5 -245t195.5 -135q75 7 134 23q-11 -56 -19 -108t-12 -88q-9 -36 14 -53.5t64 -29.5q20 -5 37.5 -9.5t30.5 -5t20.5 4t7.5 18.5q20 83 45.5 180t53 195t55.5 191t52 168z" />
    <glyph glyph-name="afii10090" unicode="&#x448;" horiz-adv-x="1021" 
d="M140 153q16 69 34.5 146.5t39 153.5t41 148t40.5 132q9 26 2.5 40t-32.5 33q-27 18 -63 32.5t-67 22.5q-31 9 -46.5 3.5t-25.5 -34.5q-14 -51 -28.5 -112t-28.5 -127t-26 -132.5t-22 -128.5t-17 -115.5t-10 -92.5q-4 -25 5 -42.5t26 -31.5q23 -18 37 -29.5t31 -22.5
q7 -5 14.5 -9t18.5 -6.5t26 -1.5q32 0 48 1q550 20 612 26q47 -2 64 49q45 176 79 299.5t62 216.5t52 168q8 26 2.5 40t-31.5 33q-28 18 -59 32.5t-60 22.5q-31 9 -47.5 4.5t-25.5 -36.5q-23 -85 -46.5 -189.5t-81.5 -381.5q-9 -48 -15 -86q-66 -5 -142 -10q15 68 33.5 145
t39.5 153.5t41.5 148.5t40.5 132q9 26 2.5 40t-32.5 33q-27 18 -63 32.5t-67 22.5q-31 9 -46.5 3.5t-25.5 -34.5q-14 -51 -28.5 -112t-28.5 -127t-26 -132.5t-22 -130t-16 -108t-9 -70.5q-71 -5 -153 -11z" />
    <glyph glyph-name="afii10091" unicode="&#x449;" horiz-adv-x="1060" 
d="M140 153q16 69 34.5 146.5t39 153.5t41 148t40.5 132q9 26 2.5 40t-32.5 33q-27 18 -63 32.5t-67 22.5q-31 9 -46.5 3.5t-25.5 -34.5q-14 -51 -28.5 -112t-28.5 -127t-26 -132.5t-22 -128.5t-17 -115.5t-10 -92.5q-4 -25 5 -42.5t26 -31.5q23 -18 37 -29.5t31 -22.5
q7 -5 14.5 -9t18.5 -6.5t26 -1.5q32 0 48 1q547 19 589 23q-7 -21 -13 -53.5t-7 -58.5q2 -19 10 -27t47 -8t80 18q31 17 43.5 34.5t25.5 58.5q12 38 21.5 72t14.5 72q12 75 -92 74h-10q12 46 46 169.5t62 216.5t52 168q8 26 2.5 40t-31.5 33q-28 18 -59 32.5t-60 22.5
q-31 9 -47.5 4.5t-25.5 -36.5q-23 -85 -46.5 -189.5t-81.5 -381.5q-9 -48 -17 -86q-64 -5 -140 -10q15 68 33.5 145t39.5 153.5t41.5 148.5t40.5 132q9 26 2.5 40t-32.5 33q-27 18 -63 32.5t-67 22.5q-31 9 -46.5 3.5t-25.5 -34.5q-14 -51 -28.5 -112t-28.5 -127t-26 -132.5
t-22 -130t-16 -108t-9 -70.5q-71 -5 -153 -11z" />
    <glyph glyph-name="afii10092" unicode="&#x44a;" horiz-adv-x="770" 
d="M297 288q40 13 73 17.5t58 1.5t40 -11t20 -18q4 -17 -10.5 -37.5t-44.5 -41t-73 -39t-95 -31.5q7 40 15.5 78.5t16.5 80.5zM683 177q8 15 11 34q13 38 8 82q-5 38 -31 74.5t-65 57.5q-99 61 -271 38q16 83 26 128q20 95 38 172q5 26 -1.5 40.5t-33.5 31.5q-27 16 -78 15
q-6 2 -36.5 -0.5t-68 -8.5t-61.5 -9q-75 -10 -134 -22q-19 -5 -25 -12.5t6 -30.5q11 -22 28.5 -54t38.5 -53q20 -21 36 -25.5t41 1.5q12 3 28 6q-11 -83 -25 -188q-15 -109 -23 -177.5t-11 -130.5q-2 -19 0 -31t7 -21.5t13.5 -18t19.5 -20.5q30 -23 52.5 -37.5t52.5 -27.5
q16 -9 28 -13t24.5 -5t26 1t32.5 7q36 9 76 22.5t79.5 30.5t75 38t61.5 44q38 30 55 62z" />
    <glyph glyph-name="afii10093" unicode="&#x44b;" horiz-adv-x="949" 
d="M178 288q40 13 73 17.5t58 1.5t40 -11t20 -18q4 -17 -10.5 -37.5t-44.5 -41t-73 -39t-95 -31.5q7 40 15.5 78.5t16.5 80.5zM905 794q-27 18 -63 34t-67 24q-31 9 -46.5 2.5t-24.5 -35.5q-11 -47 -24 -109.5t-25.5 -132.5t-24.5 -143t-21.5 -139t-16 -121.5t-8.5 -90.5
q-3 -26 4.5 -40.5t30.5 -25.5q21 -11 44.5 -18t49.5 -14q26 -6 34.5 -1t13.5 22q9 45 21.5 102.5t27.5 122t31 132t32.5 132t33 122.5t30.5 103q7 27 1.5 41t-33.5 33zM242 591q20 95 38 172q5 26 -1.5 39.5t-33.5 30.5q-30 16 -62 28t-61 17q-32 7 -48 1t-23 -39
q-16 -86 -30 -192q-12 -85 -26.5 -194t-22.5 -177.5t-11 -130.5q-2 -19 0 -31t7 -21.5t13.5 -18t19.5 -20.5q30 -23 52.5 -37.5t52.5 -27.5q16 -9 28 -13t24.5 -5t26 1t32.5 7q36 9 76 22.5t79.5 30.5t75 38t61.5 44q38 30 59 76.5t15 101.5q-5 38 -31 74.5t-65 57.5
q-99 61 -272 38q16 81 27 128z" />
    <glyph glyph-name="afii10094" unicode="&#x44c;" horiz-adv-x="670" 
d="M178 288q40 13 73 17.5t58 1.5t40 -11t20 -18q4 -17 -10.5 -37.5t-44.5 -41t-73 -39t-95 -31.5q7 40 15.5 78.5t16.5 80.5zM242 591q20 95 38 172q5 26 -1.5 39.5t-33.5 30.5q-30 16 -62 28t-61 17q-32 7 -48 1t-23 -39q-16 -86 -30 -192q-12 -85 -26.5 -194
t-22.5 -177.5t-11 -130.5q-2 -19 0 -31t7 -21.5t13.5 -18t19.5 -20.5q30 -23 52.5 -37.5t52.5 -27.5q16 -9 28 -13t24.5 -5t26 1t32.5 7q36 9 76 22.5t79.5 30.5t75 38t61.5 44q38 30 59 76.5t15 101.5q-5 38 -31 74.5t-65 57.5q-99 61 -272 38q16 81 27 128z" />
    <glyph glyph-name="afii10095" unicode="&#x44d;" horiz-adv-x="642" 
d="M281 254q-24 -43 -50 -76q-27 -24 -44.5 -31.5t-29.5 -4.5q-48 12 -93 52q-57 48 -106 -2q-7 -16 -6 -29t7.5 -25t13 -23t13.5 -23q4 -6 9 -12q28 -36 68.5 -67t126.5 -40q26 -2 55 2q33 5 61 19q47 22 90.5 65t79 101.5t61.5 127t38 141t10 146t-24 139.5
q-6 21 -18.5 40t-28.5 34t-33 27t-33 20q-23 13 -49 23t-52.5 17.5t-57 10t-53.5 1.5q-43 -2 -73 -20t-58 -48q-13 -16 -19 -25.5t-13 -24t-15.5 -31.5t-23.5 -51q-4 -22 0 -33t25 -24q60 -32 104.5 -26t60.5 20q8 7 11 10.5t23 28.5q24 33 39.5 41.5t25.5 5.5
q20 -7 29 -41.5t8 -84.5q-1 -48 -10 -102q-48 -6 -94 -10.5t-86 -10.5t-61.5 -13.5t-24.5 -31.5t15 -51t37 -47q17 -17 38 -21t56 -0.5t73 6.5q-10 -25 -22 -49z" />
    <glyph glyph-name="afii10096" unicode="&#x44e;" horiz-adv-x="1011" 
d="M700 690q20 -6 29.5 -41.5t9.5 -85.5q0 -49 -8 -105.5t-21 -103.5q-15 -57 -35.5 -105.5t-43.5 -81.5t-46 -49t-44 -9q-23 7 -35 38t-14 74.5t4 94t20 97.5q14 48 36.5 99.5t48.5 93.5t52 66.5t47 17.5zM291 201q6 -49 34 -94q15 -28 40 -50.5t52 -36.5q33 -17 73 -25.5
t78 -12.5q58 -3 102 7.5t84 41.5q59 52 99.5 127t64 159.5t29.5 170t-5 158.5q-8 44 -25.5 78.5t-55.5 65.5q-34 27 -85.5 46t-108.5 28q-44 7 -90.5 -6.5t-81.5 -40.5q-52 -45 -86.5 -96.5t-62.5 -120.5q-25 -64 -39 -126q-43 -3 -84 -8q20 88 31 142.5t27 111.5q3 13 4 23
t-2.5 18t-12 16t-23.5 17q-27 18 -63.5 33.5t-68.5 24.5q-29 11 -44 5t-23 -38q-12 -84 -23.5 -183.5t-23.5 -199.5t-25 -192t-28 -161q-6 -26 4 -40.5t33 -25.5q19 -11 45.5 -18t51.5 -14q26 -6 34.5 -1t12.5 22q8 48 24.5 131t34.5 162q42 7 82 11q7 0 14 2q-2 -70 7 -111
z" />
    <glyph glyph-name="afii10097" unicode="&#x44f;" horiz-adv-x="688" 
d="M388 454q-49 -19 -84 -24.5t-64 -5.5q-59 0 -71 28q-6 17 10 48t52 65.5t89.5 68t120.5 54.5q-18 -74 -29.5 -127t-23.5 -107zM347 259q-6 -42 -15 -96q-8 -47 -12 -83q-9 -36 14 -53.5t64 -29.5q20 -5 37.5 -9.5t30.5 -5t20.5 4t7.5 18.5q20 83 44.5 178t51 196
t53.5 194.5t42 166.5q8 26 2.5 40t-31.5 33q-28 18 -58.5 32t-59.5 22q-20 6 -34 6q-5 0 -9 -1q-71 -5 -199 -58q-112 -50 -192.5 -108t-115.5 -127q-23 -43 -10 -110q17 -65 35.5 -93.5t52.5 -64.5q22 -21 49 -30q-19 -37 -38 -62q-62 -88 -80.5 -115t-34.5 -47
q-9 -19 -5.5 -29t18.5 -21q17 -10 29.5 -14t30.5 -8q20 -1 34 1.5t40 24.5q21 20 50 51t105 120q19 21 67 75z" />
    <glyph glyph-name="afii10071" unicode="&#x451;" horiz-adv-x="577" 
d="M41 798l-95 -665q-2 -27 7.5 -46t26.5 -33q21 -18 36.5 -29.5t32.5 -22.5q15 -10 35.5 -15.5t60.5 4.5q60 11 126 24t130 25q27 5 32 12.5t0 27.5q-8 18 -14.5 35.5t-18.5 37.5q-11 18 -26.5 24t-43.5 4q-50 -3 -92.5 -8t-89.5 -13q8 28 15 56.5t15 60.5q58 12 120.5 22
t122.5 21q28 6 34.5 14t-1.5 31q-5 20 -11.5 39.5t-18.5 39.5q-11 20 -27 26t-44 5q-34 -1 -64 -3t-60 -6q16 53 29 101.5t28 93.5q71 10 135 17t124 14q29 4 37 13t4 35q-5 23 -10 42.5t-18 43.5q-16 45 -73 44q-60 -2 -120.5 -9.5t-118 -17.5t-110 -22t-95.5 -23z
M362 1037q-2 -24 4.5 -43t19 -32t30.5 -20t38 -6q20 0 36 7.5t27.5 18.5t19.5 23.5t11 21.5q1 8 2.5 14.5t2.5 15.5q1 24 -14.5 48t-50.5 37q-27 8 -49.5 3.5t-39 -17t-26.5 -31.5t-11 -40zM91 1017q-1 -23 6.5 -41.5t21 -32t31.5 -20t38 -5.5q20 0 35.5 7.5t27 18.5t18 23
t8.5 21l4 14t2 15q0 26 -17 49.5t-54 36.5q-26 9 -48 4.5t-37.5 -17t-25 -32t-10.5 -41.5z" />
    <glyph glyph-name="afii10101" unicode="&#x454;" horiz-adv-x="642" 
d="M259 299q62 10 122 21q28 6 34.5 14t-1.5 31q-5 20 -11.5 39.5t-18.5 39.5q-11 20 -27 26t-44 5q-34 -1 -64 -3l-48 -4q7 16 15 34q24 56 52 102.5t55 75.5t47 23q20 -8 24 -34t3 -38q0 -18 3 -39q4 -25 13 -34t24 -23.5t38 -25t55 -16.5q17 -3 27 -2t15.5 5t8.5 11t6 15
q6 18 11 40.5t8 37t4.5 29.5t0.5 38q-1 20 -4 37.5t-10.5 33.5t-20 31.5t-31.5 31.5q-20 13 -45 25.5t-53 23t-58 18t-58 10.5q-38 3 -81 -8t-85 -47q-52 -45 -92.5 -104.5t-69.5 -126.5t-45.5 -137.5t-19.5 -137t7.5 -125t36.5 -101.5q15 -28 42 -49t54 -32
q30 -10 68 -21.5t85 -14.5q22 -2 45.5 0t45 7t41 13t33.5 17q28 20 56 50t46 66q17 31 15.5 52t-39.5 31q-95 27 -154 -33q-82 -84 -122 -71q-21 6 -32 34t-13 69q-2 33 2 71q50 10 104 19z" />
    <glyph glyph-name="afii10103" unicode="&#x456;" horiz-adv-x="312" 
d="M259 794q-27 18 -63 34t-67 24q-31 9 -46.5 2.5t-24.5 -35.5q-11 -47 -24 -109.5t-25.5 -132.5t-24.5 -143t-21.5 -139t-16 -121.5t-8.5 -90.5q-3 -26 4.5 -40.5t30.5 -25.5q21 -11 44.5 -18t49.5 -14q26 -6 34.5 -1t13.5 22q9 45 21.5 102.5t27.5 122t31 132t32.5 132
t33 122.5t30.5 103q7 27 1.5 41t-33.5 33z" />
    <glyph glyph-name="afii10104" unicode="&#x457;" horiz-adv-x="312" 
d="M250 794q-27 18 -63 34t-67 24q-32 9 -47 2.5t-24 -35.5q-11 -47 -23 -109.5t-23.5 -132.5t-23 -143t-20 -139t-14.5 -121.5t-8 -90.5q-3 -26 4.5 -40.5t30.5 -25.5q22 -11 45.5 -18t49.5 -14q26 -6 34.5 -1t13.5 22q9 45 21 102.5t26 122t29.5 132t31 132t31 122.5
t29.5 103q3 13 4 23t-2.5 18t-11.5 16t-23 17zM-25 1017q-1 -23 7 -41.5t21.5 -32t31.5 -20t38 -5.5q19 0 35 7.5t27 18.5t18 23t9 21q5 11 5 29q0 26 -17 49.5t-53 36.5q-27 9 -49 4.5t-37.5 -17t-25 -32t-10.5 -41.5zM247 1017q-5 -48 23 -75.5t70 -25.5q20 0 35.5 7.5
t27 18.5t19 23.5t10.5 21.5q2 8 3 14.5t2 15.5q1 24 -15 48t-51 37q-27 8 -49 3.5t-38 -17t-26 -31.5t-11 -40z" />
    <glyph glyph-name="afii10110" unicode="&#x45e;" horiz-adv-x="686" 
d="M322 235q-21 -60 -41 -96t-41 -35q-24 3 -30 25.5t-10 42.5q-3 38 -122 79q-36 12 -52 2t-21 -40q-3 -14 0 -34.5t19 -53.5q10 -23 24 -44t35 -39t49.5 -32t67.5 -23q75 -17 123.5 -7.5t83.5 30.5q44 28 82 90t70.5 154t60.5 213t53 268q3 13 3.5 22.5t-3 17.5
t-11.5 15.5t-23 17.5q-29 18 -65.5 32t-66.5 22q-31 8 -47.5 1.5t-22.5 -36.5q-9 -63 -21.5 -141t-27.5 -158q-9 -50 -19 -99q-39 -27 -108 -31q-52 -1 -32 62q9 49 26.5 126t33.5 134q3 13 4 23t-2.5 18t-12 16t-23.5 17q-27 18 -63.5 33.5t-68.5 24.5q-29 11 -44 5
t-23 -38q-12 -84 -23.5 -183.5t-18.5 -189.5t56 -132.5t159 -41.5q78 5 111 20q-7 -28 -18 -57zM353 875q54 -4 123 49q40 28 59.5 53.5t22.5 48.5q2 21 -20 40q-19 14 -42 16q-14 1 -26.5 -4t-25.5 -13t-29.5 -22.5t-31.5 -20t-31 -4t-32 8.5t-48.5 25t-54.5 10.5
t-28.5 -41.5t7 -57t24 -33.5t24.5 -21.5t42.5 -21t66.5 -13z" />
    <glyph glyph-name="uni0478" unicode="&#x478;" horiz-adv-x="651" 
d="M128 86q-9 -19 -5 -30t23 -26q21 -15 48.5 -26t50.5 -18t35.5 -0.5t27.5 26.5q43 75 70 130.5t68.5 142.5t77.5 169.5t87 202.5t48 155.5t-34 38.5q-33 6 -61.5 7.5t-51.5 3.5q-28 2 -46.5 -10t-29.5 -45q-31 -88 -68 -184q-26 -69 -55 -135q-25 67 -49 140
q-34 100 -68 201q-4 27 -23 32t-44 -1.5t-50.5 -21t-44.5 -26.5q-11 -9 -17.5 -17t-9 -18t-1 -22t5.5 -29q9 -40 31.5 -101.5t51 -133.5t61.5 -149q24 -53 45 -101q-34 -83 -73 -155z" />
    <glyph glyph-name="uni0479" unicode="&#x479;" horiz-adv-x="651" 
d="M128 86q-9 -19 -5 -30t23 -26q21 -15 48.5 -26t50.5 -18t35.5 -0.5t27.5 26.5q43 75 70 130.5t68.5 142.5t77.5 169.5t87 202.5t48 155.5t-34 38.5q-33 6 -61.5 7.5t-51.5 3.5q-28 2 -46.5 -10t-29.5 -45q-31 -88 -68 -184q-26 -69 -55 -135q-25 67 -49 140
q-34 100 -68 201q-4 27 -23 32t-44 -1.5t-50.5 -21t-44.5 -26.5q-11 -9 -17.5 -17t-9 -18t-1 -22t5.5 -29q9 -40 31.5 -101.5t51 -133.5t61.5 -149q24 -53 45 -101q-34 -83 -73 -155z" />
    <glyph glyph-name="afii10050" unicode="&#x490;" horiz-adv-x="570" 
d="M593 818q2 49 3 91q1 26 -10 43t-34 28q-23 13 -42 20t-42 12q-24 8 -32.5 -1.5t-12.5 -35.5q-3 -29 -6 -62q-3 -22 -5 -46q-30 -2 -59 -4q-62 -5 -121 -12.5t-112.5 -17t-96.5 -21.5q3 -49 -1 -114t-12.5 -136.5t-19.5 -144.5t-21 -137.5t-17.5 -116t-8.5 -79.5
q0 -26 5 -40t30 -26q19 -8 44.5 -17t48.5 -12.5t39 0t17 21.5q12 54 26.5 123.5t33.5 146.5q61 241 71.5 290t24.5 90q71 10 132.5 17t121.5 15q30 4 37 13q6 6 10 25q6 43 9 88z" />
    <glyph glyph-name="afii10098" unicode="&#x491;" horiz-adv-x="570" 
d="M593 818q2 49 3 91q1 26 -10 43t-34 28q-23 13 -42 20t-42 12q-24 8 -32.5 -1.5t-12.5 -35.5q-3 -29 -6 -62q-3 -22 -5 -46q-30 -2 -59 -4q-62 -5 -121 -12.5t-112.5 -17t-96.5 -21.5q3 -49 -1 -114t-12.5 -136.5t-19.5 -144.5t-21 -137.5t-17.5 -116t-8.5 -79.5
q0 -26 5 -40t30 -26q19 -8 44.5 -17t48.5 -12.5t39 0t17 21.5q12 54 26.5 123.5t33.5 146.5q61 241 71.5 290t24.5 90q71 10 132.5 17t121.5 15q30 4 37 13q6 6 10 25q6 43 9 88z" />
    <glyph glyph-name="endash" unicode="&#x2013;" horiz-adv-x="832" 
d="M3 435q-76 -8 -42 -51q23 -35 71 -72q25 -19 49 -24.5t58 -0.5q120 15 255.5 23t264.5 13q37 1 50.5 7.5t5.5 26.5q-8 16 -14 34.5t-23 38.5q-26 36 -95 36q-73 0 -154 -2.5t-159 -7t-147.5 -10t-119.5 -11.5z" />
    <glyph glyph-name="emdash" unicode="&#x2014;" horiz-adv-x="1266" 
d="M-16 435q-76 -8 -40 -51q12 -18 30.5 -35.5t43.5 -36.5q26 -19 50 -24.5t58 -0.5q30 4 83.5 7t123.5 6t150.5 5t163.5 4t164.5 3.5t152.5 3t127 2.5t88 2q37 2 51 8.5t6 26.5q-6 16 -11.5 34.5t-22.5 38.5q-22 35 -94 35q-36 0 -98.5 -0.5t-140.5 -1.5t-167 -2.5
t-179 -3.5t-176.5 -4.5t-158.5 -5t-125.5 -5t-78.5 -5.5z" />
    <glyph glyph-name="quoteleft" unicode="&#x2018;" horiz-adv-x="393" 
d="M132 662q24 -39 60 -54q17 -6 37.5 -10t38.5 -6q49 -6 33 37q-11 30 -25.5 76t-30.5 96.5t-31 101t-25 89.5q-14 47 -66 32q-21 -9 -41 -18t-34 -20q-15 -15 -19.5 -28t-2 -28.5t8.5 -36t12 -50.5q9 -25 19.5 -51t21.5 -50t22.5 -45t21.5 -35z" />
    <glyph glyph-name="quoteright" unicode="&#x2019;" horiz-adv-x="348" 
d="M228 665q8 18 17.5 46.5t18.5 60.5t16.5 65t11.5 61q1 14 1 25t-3 20.5t-9.5 19t-18.5 19.5q-35 27 -83 46q-27 12 -41.5 7.5t-18.5 -33.5q-5 -38 -12.5 -86.5t-15.5 -98.5t-16.5 -95t-14.5 -75q-9 -41 38 -40q46 0 76 9q19 6 30.5 16.5t23.5 32.5z" />
    <glyph glyph-name="quotesinglbase" unicode="&#x201a;" horiz-adv-x="348" 
d="M221 -97q7 15 15.5 36.5t16.5 46.5t14.5 50.5t10.5 46.5q1 21 -2.5 35t-24.5 30q-15 10 -34 19t-39 16q-23 9 -35.5 5.5t-16.5 -25.5q-5 -29 -11.5 -66.5t-13.5 -76t-14 -73t-13 -57.5q-9 -32 33 -31q40 0 67 6q16 5 26 13t21 25z" />
    <glyph glyph-name="quotedblleft" unicode="&#x201c;" horiz-adv-x="582" 
d="M353 662q13 -21 26 -33.5t33 -20.5q15 -6 35.5 -10t39.5 -6q49 -6 33 37q-10 30 -24 76t-29 96.5t-28.5 101t-23.5 89.5q-11 47 -64 32q-21 -9 -41 -18t-36 -20q-22 -20 -25 -36t7 -44q5 -28 15.5 -62.5t24 -68.5t28.5 -64t29 -49zM109 673q17 -21 32 -31.5t36 -17.5
q19 -5 38.5 -6.5t39.5 -2.5q45 -3 24 40q-14 30 -35.5 75t-45 95t-45.5 99t-37 87q-19 50 -68 26q-41 -21 -67 -45q-12 -13 -15.5 -27.5t0 -32.5t13 -39.5t23.5 -47.5q26 -49 54.5 -96t52.5 -76z" />
    <glyph glyph-name="quotedblright" unicode="&#x201d;" horiz-adv-x="576" 
d="M213 665q8 18 17 46.5t17.5 60.5t15.5 65t10 61q1 28 -3 46t-29 38q-37 28 -84 46q-27 12 -41.5 7.5t-18.5 -33.5q-4 -38 -10.5 -86.5t-13.5 -98.5t-14 -95t-13 -75q-4 -21 5 -31t34 -9q47 0 76 9q18 6 29.5 16.5t22.5 32.5zM454 650q16 20 34.5 56.5t34.5 76t26 75.5
t9 56t-22 41q-15 15 -34.5 28t-40.5 26q-51 32 -65 -19q-9 -37 -24 -84.5t-31 -95t-31 -90t-25 -70.5q-17 -41 32 -44q43 -8 76 1q20 3 33.5 13t27.5 30z" />
    <glyph glyph-name="quotedblbase" unicode="&#x201e;" horiz-adv-x="576" 
d="M223 -93q7 14 15 36t15.5 47t13.5 50.5t9 46.5q1 22 -2.5 35.5t-25.5 29.5q-16 10 -35 19t-39 16q-23 9 -36 6t-16 -26q-4 -29 -9.5 -66.5t-12 -76t-13 -73t-11.5 -57.5q-7 -32 34 -31q20 0 37 1t30 5q16 5 26 13t20 25zM435 -104q14 16 30.5 44t30 58.5t22.5 58t8 42.5
q-3 18 -20 32q-13 11 -30 21t-36 21q-21 11 -36 7.5t-21 -22.5q-8 -29 -20.5 -65t-26.5 -73t-27.5 -70t-22.5 -54q-15 -31 29 -34q37 -6 67 1q17 2 28.5 10t24.5 23z" />
    <glyph glyph-name="dagger" unicode="&#x2020;" horiz-adv-x="660" 
d="M-47 598q-77 -8 -43 -54q13 -19 31 -37.5t42 -38.5q26 -20 50.5 -25.5t59.5 -0.5l60 6q-9 -56 -17 -109.5t-14.5 -101t-11 -87t-5.5 -67.5q-3 -26 5 -40.5t31 -25.5q21 -11 44.5 -18t49.5 -14q26 -6 34.5 -1t13.5 22q9 43 20.5 97t25 114.5t28 124.5t29.5 126
q61 5 121.5 7.5t119.5 4.5q38 1 52 8t5 28q-7 17 -13.5 36t-24.5 41q-24 37 -98 37q-28 0 -58 -0.5t-62 -1.5q8 26 14 49t14 43q7 27 1.5 41t-33.5 33q-27 18 -63 34t-67 24q-32 9 -47 2.5t-24 -35.5q-10 -39 -20.5 -91t-21.5 -111q-67 -5 -125 -9.5t-103 -9.5z" />
    <glyph glyph-name="daggerdbl" unicode="&#x2021;" horiz-adv-x="733" 
d="M-25 287q-73 -8 -41 -49q25 -34 70 -69q24 -18 47.5 -23t57.5 -1q14 2 28 3.5t30 3.5q-2 -20 -3.5 -37.5t-2.5 -31.5q-2 -26 5 -40.5t30 -25.5q22 -11 45.5 -18t49.5 -14q26 -6 34.5 -1t13.5 22q7 34 16 75t18 88q62 4 122.5 6.5t120.5 4.5q36 1 49 7t5 26q-7 15 -13 32
t-23 37q-24 34 -94 34q-32 0 -65.5 -0.5t-68.5 -1.5q9 38 18.5 77t19.5 77q61 5 121.5 7.5t119.5 4.5q38 1 52 8t6 28q-8 17 -14.5 36t-23.5 41q-25 37 -98 37q-29 0 -59 -0.5t-61 -1.5q7 26 14 49t13 43q4 13 5 23t-2.5 18t-11.5 16t-23 17q-26 18 -62 34t-68 24
q-31 9 -46 2.5t-23 -35.5q-11 -39 -22 -91t-23 -111q-66 -5 -123.5 -9.5t-102.5 -9.5q-79 -8 -43 -54q11 -19 29.5 -37.5t42.5 -38.5q26 -20 50 -25.5t59 -0.5q15 2 30.5 3t30.5 3q-7 -38 -12.5 -74t-10.5 -70q-63 -4 -117 -8.5t-96 -8.5z" />
    <glyph glyph-name="bullet" unicode="&#x2022;" horiz-adv-x="486" 
d="M21 395q-1 -45 15 -80.5t44 -60.5t65.5 -37.5t79.5 -10.5q41 0 73.5 14t56.5 34.5t39.5 43.5t21.5 40q4 14 6 27t3 30q1 23 -7 47t-25.5 45.5t-45 40.5t-65.5 31q-57 17 -104.5 8.5t-81.5 -33t-53.5 -61.5t-21.5 -78z" />
    </font>
</defs>
</svg>
